<mxfile host="Electron" modified="2024-01-20T00:21:44.149Z" agent="Mozilla/5.0 (Windows NT 10.0; Win64; x64) AppleWebKit/537.36 (KHTML, like Gecko) draw.io/22.1.15 Chrome/120.0.6099.109 Electron/28.1.0 Safari/537.36" etag="cIsL1B4t6vZuaFCsdLom" version="22.1.15" type="device" pages="2">
  <diagram name="ページ1" id="WAsMSGLgWNE72qkEcdSf">
    <mxGraphModel dx="2495" dy="965" grid="1" gridSize="10" guides="1" tooltips="1" connect="1" arrows="1" fold="1" page="1" pageScale="1" pageWidth="827" pageHeight="1169" math="0" shadow="0">
      <root>
        <mxCell id="0" />
        <mxCell id="1" parent="0" />
        <mxCell id="VlmwhRbNjf-6dhdqVEAL-2" value="" style="shape=image;verticalLabelPosition=bottom;labelBackgroundColor=default;verticalAlign=top;aspect=fixed;imageAspect=0;image=data:image/png,iVBORw0KGgoAAAANSUhEUgAAAGUAAABkCAYAAACfIP5qAAAACXBIWXMAAAsTAAALEwEAmpwYAAAAGXRFWHRTb2Z0d2FyZQBBZG9iZSBJbWFnZVJlYWR5ccllPAAABtFJREFUeNrsnct12zgUQGGerMeaCqxUYM9mspRcQTQVmNpklqN0wHSgLLOyXEHkCkItZxWqgkgdSBU4ePJjQlP8AMTnPZDGOTiKT/QBcPm++F08PT2JEMrlu39H8uVG1jFWgX+PKt5+kDXDf++wZsf/vxxC6OsFRygIYIqDnr9eWvjqI8JK81eOoNhAkSDg6Z9hnXj86Y2sa6gS0G7wUFAiAMJC1msG47GVdYmADoOCglIBIGJLasl2OaL0JBTS4xUKwkhkvRPhlAffcLxAQTW1DAwGGZzIA5AFuqQhAxHY/kz2JwlWUmTjwY1dMTHgLhyCWEpNFoykoHR87ykQgf367kpqrEoK2g6QjvdiOAXinJlNF9oaFFRX4EZeieGVPYKxos4iS0CmmLoYIhCB/U7lOMxYQJENgQDwG9Mg0GtMLOtXHA86KNiAe/FaiuXeFEzUEyB7dFN7ASYKHAjkqG6lgR3LCo7GLSM4ncFoe1/oZaUMbAgAmZY9HnTLU0YxEjw0qTMomFDMuAJhCqaxrTbU15o7kNMbngO5KRNVBuO1wgfFLhT5pUsGT57yU8cMDIzb0qr6wqDoa2hqgKEq+0e2f20MBTu1I1ZbnYAwBAP9GLflyVTU1zJkIMxU2cm+GEkK5rS+hQyEqcQ0usmRgpT0AggziVl1Ul8YjV73BQgzMFc4EagtKUnfgDADk9TFLlGDlFz1EQgjMGD0Yx1JoZKSmQ8gFWCoykIJCgaKFFKy1U3cWQTzQGhbYhVJiYkauCZ8Yil/uxkKZoGpVqLMCAeG8rcnOO61kkLZuOty4wYC5cy2vGGiuvLyQ4JpswEXmlF8CFvVZkUwUUl1uQwWj2hQH0U4ZeOpvVdFLVGUFJeu4V9FVzeAVfhHdM/TwgP7w4O0LMs2xZleLcce4IbKCqryI1Mg06J77mlvyqzK0HsPomRn4cmYMwSSEfz25AUUXKFCMmciB2DFBAwlEFHg8EtSbkhHgx4MOZAihxzKmPwxVQSDE2+qT14cEJAzKFPBQX+ogUksBoWcgJxBGTFplAoYSEukTVIASVVZIZ/1PiAgvzRWHqew2gYHYDCyv2/wVABO1/XMHIGcgsiqNEvX8igsz+crgPFt1G8VVM9CGE57QGB98cffH0yj1Y3soDObZHmFv3MJke3dGYK5jSx4XqtA3GVfKisx/YLI0qBxj2N82pA1ORTPXtmnjh9f+DLqNrZuBwPFQFXufUizzRIUFMzW7jU/dgjswQsLSseVNtd5oi8kKIdAgIwMPButnVTkUEwNoE6C0BBIapB5gM+lPsBYGI/MhvqKmQPxDcZoPMB7y6GYrKe9g/2QLpYHNQCBtM4cV7b8iSmQYp3X9MkZmEIS1GTdAcRTz5uGIOsq3B87q5WOaQCi/D3yO1Y1g7TFYPKg0R4fS5VOfcslJWVo1OtUlo6xX1HbGF17UnSJd4EAETqLwFveyxHMrgglCwGIg8INzG9JQbf4ODAg7MDkkl10idMBAuEEZlOVZkkHCoQLmLQKynrAQDiAWZ9BwQzsdsBAKMHsi+muNxW0XA3SBINUiB0g+IOMb3mp7FsHi6k3Lf8/qugz/J1h8LkT7jfmvtBSL44B8bTkv65s8chBCrsGA095fO+LrSJRySXbKTxZXp4Wz2VF+NvbcqY+YtRAyn2HY8LfPlsvV3mKEaE4v/V9sw/xeWZH2d8zhyJSpedLhfn0egoe4CUXKWmCAiqMIu3ic4aQ2iU/akHBeYaEqLHOwTCJkZZ18zm108G4H3HfNzBMgOybTETbHP2iT5E1oyxC0jTrqXLaatvmG+d+vNCcumUOpHU6W2U1y0LQzrUYSwyzI3Djtje1QsG4YUHcmc5gmCU+le6JVL6AgIEa01ZlzIA8ynYrZS10FuPFgv7oWGWJYQZkLzQW6SlDwaczJrYvSmAYXtWhdeWg1rJVzGbGDDpaC4bh5Jn2hiXttcR4q8GcEZhxAciYGZB5lw1LnS/fZHZRGswBHQSvm1g/SyCdvFajG1FfrxSsLQ94nlmnYrQVgtGxUJzKRxMgxpLyKjF2bIgTKAiGy1WDlG5vauPLrG1ERbfvRvC6mdRXluHG5pHwVu+jL0gNzBX8NwAgnT0s71AQzFQ8Tyv38Tr0U9rE1YUJzvbRY4NBnX3qm3TYVlfeJKUkNWOUmknAMDYoHTvXP+QFSkmlJYHBARiJz7tdvEIpwYHY5o4xjNNpfxQX7ZBAKam1GCsHh2CPanble6UmGygVwSfA8X39FIBYIwgWG3LZQKmQoClWgGUzFQ/BXobZh5RSIoKC0mCHRuL3EfBThY/l9gAgHCjsQ5fyU4ABAFYokP5BaA9wAAAAAElFTkSuQmCC;" parent="1" vertex="1">
          <mxGeometry x="320" y="360" width="80.8" height="80" as="geometry" />
        </mxCell>
        <mxCell id="VlmwhRbNjf-6dhdqVEAL-79" style="edgeStyle=orthogonalEdgeStyle;rounded=0;orthogonalLoop=1;jettySize=auto;html=1;entryX=1;entryY=0.5;entryDx=0;entryDy=0;endArrow=none;endFill=0;" parent="1" source="VlmwhRbNjf-6dhdqVEAL-4" target="VlmwhRbNjf-6dhdqVEAL-2" edge="1">
          <mxGeometry relative="1" as="geometry" />
        </mxCell>
        <mxCell id="VlmwhRbNjf-6dhdqVEAL-4" value="" style="shape=image;verticalLabelPosition=bottom;labelBackgroundColor=default;verticalAlign=top;aspect=fixed;imageAspect=0;image=data:image/png,iVBORw0KGgoAAAANSUhEUgAAAGUAAABkCAYAAACfIP5qAAAACXBIWXMAAAsTAAALEwEAmpwYAAAAGXRFWHRTb2Z0d2FyZQBBZG9iZSBJbWFnZVJlYWR5ccllPAAABtFJREFUeNrsnct12zgUQGGerMeaCqxUYM9mspRcQTQVmNpklqN0wHSgLLOyXEHkCkItZxWqgkgdSBU4ePJjQlP8AMTnPZDGOTiKT/QBcPm++F08PT2JEMrlu39H8uVG1jFWgX+PKt5+kDXDf++wZsf/vxxC6OsFRygIYIqDnr9eWvjqI8JK81eOoNhAkSDg6Z9hnXj86Y2sa6gS0G7wUFAiAMJC1msG47GVdYmADoOCglIBIGJLasl2OaL0JBTS4xUKwkhkvRPhlAffcLxAQTW1DAwGGZzIA5AFuqQhAxHY/kz2JwlWUmTjwY1dMTHgLhyCWEpNFoykoHR87ykQgf367kpqrEoK2g6QjvdiOAXinJlNF9oaFFRX4EZeieGVPYKxos4iS0CmmLoYIhCB/U7lOMxYQJENgQDwG9Mg0GtMLOtXHA86KNiAe/FaiuXeFEzUEyB7dFN7ASYKHAjkqG6lgR3LCo7GLSM4ncFoe1/oZaUMbAgAmZY9HnTLU0YxEjw0qTMomFDMuAJhCqaxrTbU15o7kNMbngO5KRNVBuO1wgfFLhT5pUsGT57yU8cMDIzb0qr6wqDoa2hqgKEq+0e2f20MBTu1I1ZbnYAwBAP9GLflyVTU1zJkIMxU2cm+GEkK5rS+hQyEqcQ0usmRgpT0AggziVl1Ul8YjV73BQgzMFc4EagtKUnfgDADk9TFLlGDlFz1EQgjMGD0Yx1JoZKSmQ8gFWCoykIJCgaKFFKy1U3cWQTzQGhbYhVJiYkauCZ8Yil/uxkKZoGpVqLMCAeG8rcnOO61kkLZuOty4wYC5cy2vGGiuvLyQ4JpswEXmlF8CFvVZkUwUUl1uQwWj2hQH0U4ZeOpvVdFLVGUFJeu4V9FVzeAVfhHdM/TwgP7w4O0LMs2xZleLcce4IbKCqryI1Mg06J77mlvyqzK0HsPomRn4cmYMwSSEfz25AUUXKFCMmciB2DFBAwlEFHg8EtSbkhHgx4MOZAihxzKmPwxVQSDE2+qT14cEJAzKFPBQX+ogUksBoWcgJxBGTFplAoYSEukTVIASVVZIZ/1PiAgvzRWHqew2gYHYDCyv2/wVABO1/XMHIGcgsiqNEvX8igsz+crgPFt1G8VVM9CGE57QGB98cffH0yj1Y3soDObZHmFv3MJke3dGYK5jSx4XqtA3GVfKisx/YLI0qBxj2N82pA1ORTPXtmnjh9f+DLqNrZuBwPFQFXufUizzRIUFMzW7jU/dgjswQsLSseVNtd5oi8kKIdAgIwMPButnVTkUEwNoE6C0BBIapB5gM+lPsBYGI/MhvqKmQPxDcZoPMB7y6GYrKe9g/2QLpYHNQCBtM4cV7b8iSmQYp3X9MkZmEIS1GTdAcRTz5uGIOsq3B87q5WOaQCi/D3yO1Y1g7TFYPKg0R4fS5VOfcslJWVo1OtUlo6xX1HbGF17UnSJd4EAETqLwFveyxHMrgglCwGIg8INzG9JQbf4ODAg7MDkkl10idMBAuEEZlOVZkkHCoQLmLQKynrAQDiAWZ9BwQzsdsBAKMHsi+muNxW0XA3SBINUiB0g+IOMb3mp7FsHi6k3Lf8/qugz/J1h8LkT7jfmvtBSL44B8bTkv65s8chBCrsGA095fO+LrSJRySXbKTxZXp4Wz2VF+NvbcqY+YtRAyn2HY8LfPlsvV3mKEaE4v/V9sw/xeWZH2d8zhyJSpedLhfn0egoe4CUXKWmCAiqMIu3ic4aQ2iU/akHBeYaEqLHOwTCJkZZ18zm108G4H3HfNzBMgOybTETbHP2iT5E1oyxC0jTrqXLaatvmG+d+vNCcumUOpHU6W2U1y0LQzrUYSwyzI3Djtje1QsG4YUHcmc5gmCU+le6JVL6AgIEa01ZlzIA8ynYrZS10FuPFgv7oWGWJYQZkLzQW6SlDwaczJrYvSmAYXtWhdeWg1rJVzGbGDDpaC4bh5Jn2hiXttcR4q8GcEZhxAciYGZB5lw1LnS/fZHZRGswBHQSvm1g/SyCdvFajG1FfrxSsLQ94nlmnYrQVgtGxUJzKRxMgxpLyKjF2bIgTKAiGy1WDlG5vauPLrG1ERbfvRvC6mdRXluHG5pHwVu+jL0gNzBX8NwAgnT0s71AQzFQ8Tyv38Tr0U9rE1YUJzvbRY4NBnX3qm3TYVlfeJKUkNWOUmknAMDYoHTvXP+QFSkmlJYHBARiJz7tdvEIpwYHY5o4xjNNpfxQX7ZBAKam1GCsHh2CPanble6UmGygVwSfA8X39FIBYIwgWG3LZQKmQoClWgGUzFQ/BXobZh5RSIoKC0mCHRuL3EfBThY/l9gAgHCjsQ5fyU4ABAFYokP5BaA9wAAAAAElFTkSuQmCC;" parent="1" vertex="1">
          <mxGeometry x="790" y="360" width="80.8" height="80" as="geometry" />
        </mxCell>
        <mxCell id="VlmwhRbNjf-6dhdqVEAL-13" style="rounded=0;orthogonalLoop=1;jettySize=auto;html=1;endArrow=none;endFill=0;exitX=0.5;exitY=1;exitDx=0;exitDy=0;entryX=0.5;entryY=0;entryDx=0;entryDy=0;" parent="1" source="VlmwhRbNjf-6dhdqVEAL-8" target="VlmwhRbNjf-6dhdqVEAL-69" edge="1">
          <mxGeometry relative="1" as="geometry">
            <mxPoint x="210" y="600" as="targetPoint" />
          </mxGeometry>
        </mxCell>
        <mxCell id="VlmwhRbNjf-6dhdqVEAL-14" style="rounded=0;orthogonalLoop=1;jettySize=auto;html=1;exitX=0.5;exitY=1;exitDx=0;exitDy=0;endArrow=none;endFill=0;entryX=0.5;entryY=0;entryDx=0;entryDy=0;" parent="1" source="VlmwhRbNjf-6dhdqVEAL-8" target="VlmwhRbNjf-6dhdqVEAL-71" edge="1">
          <mxGeometry relative="1" as="geometry">
            <mxPoint x="679" y="620" as="targetPoint" />
          </mxGeometry>
        </mxCell>
        <mxCell id="VlmwhRbNjf-6dhdqVEAL-8" value="TP-LINK&lt;br&gt;Archer AX73" style="text;html=1;strokeColor=none;fillColor=none;align=center;verticalAlign=middle;whiteSpace=wrap;rounded=0;" parent="1" vertex="1">
          <mxGeometry x="320.8" y="440" width="80" height="30" as="geometry" />
        </mxCell>
        <mxCell id="VlmwhRbNjf-6dhdqVEAL-9" value="" style="shape=image;verticalLabelPosition=bottom;labelBackgroundColor=default;verticalAlign=top;aspect=fixed;imageAspect=0;image=data:image/png,iVBORw0KGgoAAAANSUhEUgAAAGQAAABkCAYAAABw4pVUAAAACXBIWXMAAAsTAAALEwEAmpwYAAAAGXRFWHRTb2Z0d2FyZQBBZG9iZSBJbWFnZVJlYWR5ccllPAAABKxJREFUeNrsnU1O21AQxx2LNeEGyQ2SbugSc4CK3ACzocvQExBOgCVWrJKcoOkJcJesSm5gbhBO4L4RE2QSJ/LHPHvI+/8li7bBSTU/z8z7mDfppGnqbar7/eeJ+TEyV2iuMw+S0NJcsbkWb8+P8a5f6mwCMTAIRGSuHmxoTa/0sOeB8TdgEIjfgGFdZN8ntnc+EH5xDFs1qrGx+2wLCIcpwGhHl8b+k48ccnx6TQk8IS6wTas6p5zi82gKMNrXbB2yRrCFjkRvQld4ZP4QVLj5jcbTPK5O+N8S43KJq9Y0xuybH33+65DtelHybULKIWnJm+6M4Sd4oAtBGnIoGhS9xy/pFd8Ao4TBnh9f2FOWNoCM+AOgclBWZaAUBXK3b/0FKgQllALyijAlFr7+SACJYE4xLSSAIG/IKZEAsoIdxbSqDQQjK/E8IjbshRoQgADI1xXXGgCIIt3QiiyA6NLUJhQAUQYFQKor4uV1ANGS480VS0MBEGVQjg5sWBpb/oj+HiiBxKrG0YE9sWctesqCPIX3PhCyFKjHnnICIHo0qAsFQJRBsQrExjj9C0EJVQFhGLGjQOYmuUdqgGRgdB2FEVa92QcMPTDEgXAicxUGFcLdqJkYKoFxZ/n9gx2TT4IR1J0UigHJwBjkvBZYNtJH1b3tgj4+6XRmC4YIkH0wWE8NeMWkJY8UhSGVQ/bBOGTRaYCRJIzaQPgEqaswAhsHlPyaMC4dhmGlgNCvCCNyFMbKJow6HuJqean1OudKQMwTMmtgzK9RfU9gz8NKDuEx/9xBKF2bUGqNsnjdxkUoA1tQas9DAEUWisjSCUHh/1jeQflzy4ZJ2obivTcK0AOEFebN2ps8vZvtqmNJQR4UmpPVXXYXB0JLCLyQGLc4e79t6XOpxZInAUV0P6TsIfkD0+VmM7LWgQBKfShW9tQznQveHIUSqgLCUGh55YfnpqbcNlEPEB4GPzgKZN2jVweQAruIh6z18vxKk4dEgKEkh2Djqt5eiQ8YemCIztQ1wDAG6dh8f16ayVsNENtFlKrLutkFw7yWWubQdlPOK8ktXV8ABk2C7h0d3l7x7qmnAgjDmAKGAiCAIQ+jMhA+cuAqjLktGHWS+sRRGDPb7dSrhiwKV84trzfR275qXZbLex6eRg8BFG1AMlBGnpsbUaqS+qe4miluyDvOZrvkNAaQbSgvu6Cgb3yDIWsTCucUhC8NQDJQ8J1WWoAwFApbVzCtEiAMZQYoioAAikIgGSiQJJAm+p27oiK2LOIhQ5hSTEMJIPAQZTkkgJl0eQgmenIKJID0qlZyQ1sJ/UICCAnfZVhfhbrNFQXS4/4mUDXvoNxxKwmENLb9dT8HDCO2NVOfShxsdBBG1xYQEp2he2mgl+JXh0E5459XrinosnN8ek0Eq37Nw19zkcckXqYZpaMA+t57t6AhJ/Behbf5RUDo5ns8062Ldlr7FLIWsIUKRVTF43OYmcMerWq5LgbxM5OWV9iltVAVfhploeCtVRifjsN9DHszZTwoDW0oTHk5ZxM7aZpuDt9oEYzi2Rg2s+YV0a4Cwi0gG+PqCXtND3asDSHmEe1iX2OB/wIMANIN2RKIRxMNAAAAAElFTkSuQmCC;" parent="1" vertex="1">
          <mxGeometry x="479" y="658" width="80" height="80" as="geometry" />
        </mxCell>
        <mxCell id="VlmwhRbNjf-6dhdqVEAL-10" value="" style="shape=image;verticalLabelPosition=bottom;labelBackgroundColor=default;verticalAlign=top;aspect=fixed;imageAspect=0;image=data:image/png,iVBORw0KGgoAAAANSUhEUgAAAGQAAABkCAYAAABw4pVUAAAACXBIWXMAAAsTAAALEwEAmpwYAAAAGXRFWHRTb2Z0d2FyZQBBZG9iZSBJbWFnZVJlYWR5ccllPAAABKxJREFUeNrsnU1O21AQxx2LNeEGyQ2SbugSc4CK3ACzocvQExBOgCVWrJKcoOkJcJesSm5gbhBO4L4RE2QSJ/LHPHvI+/8li7bBSTU/z8z7mDfppGnqbar7/eeJ+TEyV2iuMw+S0NJcsbkWb8+P8a5f6mwCMTAIRGSuHmxoTa/0sOeB8TdgEIjfgGFdZN8ntnc+EH5xDFs1qrGx+2wLCIcpwGhHl8b+k48ccnx6TQk8IS6wTas6p5zi82gKMNrXbB2yRrCFjkRvQld4ZP4QVLj5jcbTPK5O+N8S43KJq9Y0xuybH33+65DtelHybULKIWnJm+6M4Sd4oAtBGnIoGhS9xy/pFd8Ao4TBnh9f2FOWNoCM+AOgclBWZaAUBXK3b/0FKgQllALyijAlFr7+SACJYE4xLSSAIG/IKZEAsoIdxbSqDQQjK/E8IjbshRoQgADI1xXXGgCIIt3QiiyA6NLUJhQAUQYFQKor4uV1ANGS480VS0MBEGVQjg5sWBpb/oj+HiiBxKrG0YE9sWctesqCPIX3PhCyFKjHnnICIHo0qAsFQJRBsQrExjj9C0EJVQFhGLGjQOYmuUdqgGRgdB2FEVa92QcMPTDEgXAicxUGFcLdqJkYKoFxZ/n9gx2TT4IR1J0UigHJwBjkvBZYNtJH1b3tgj4+6XRmC4YIkH0wWE8NeMWkJY8UhSGVQ/bBOGTRaYCRJIzaQPgEqaswAhsHlPyaMC4dhmGlgNCvCCNyFMbKJow6HuJqean1OudKQMwTMmtgzK9RfU9gz8NKDuEx/9xBKF2bUGqNsnjdxkUoA1tQas9DAEUWisjSCUHh/1jeQflzy4ZJ2obivTcK0AOEFebN2ps8vZvtqmNJQR4UmpPVXXYXB0JLCLyQGLc4e79t6XOpxZInAUV0P6TsIfkD0+VmM7LWgQBKfShW9tQznQveHIUSqgLCUGh55YfnpqbcNlEPEB4GPzgKZN2jVweQAruIh6z18vxKk4dEgKEkh2Djqt5eiQ8YemCIztQ1wDAG6dh8f16ayVsNENtFlKrLutkFw7yWWubQdlPOK8ktXV8ABk2C7h0d3l7x7qmnAgjDmAKGAiCAIQ+jMhA+cuAqjLktGHWS+sRRGDPb7dSrhiwKV84trzfR275qXZbLex6eRg8BFG1AMlBGnpsbUaqS+qe4miluyDvOZrvkNAaQbSgvu6Cgb3yDIWsTCucUhC8NQDJQ8J1WWoAwFApbVzCtEiAMZQYoioAAikIgGSiQJJAm+p27oiK2LOIhQ5hSTEMJIPAQZTkkgJl0eQgmenIKJID0qlZyQ1sJ/UICCAnfZVhfhbrNFQXS4/4mUDXvoNxxKwmENLb9dT8HDCO2NVOfShxsdBBG1xYQEp2he2mgl+JXh0E5459XrinosnN8ek0Eq37Nw19zkcckXqYZpaMA+t57t6AhJ/Behbf5RUDo5ns8062Ldlr7FLIWsIUKRVTF43OYmcMerWq5LgbxM5OWV9iltVAVfhploeCtVRifjsN9DHszZTwoDW0oTHk5ZxM7aZpuDt9oEYzi2Rg2s+YV0a4Cwi0gG+PqCXtND3asDSHmEe1iX2OB/wIMANIN2RKIRxMNAAAAAElFTkSuQmCC;" parent="1" vertex="1">
          <mxGeometry x="639" y="658" width="80" height="80" as="geometry" />
        </mxCell>
        <mxCell id="VlmwhRbNjf-6dhdqVEAL-11" value="" style="shape=image;verticalLabelPosition=bottom;labelBackgroundColor=default;verticalAlign=top;aspect=fixed;imageAspect=0;image=data:image/png,iVBORw0KGgoAAAANSUhEUgAAAGQAAABkCAYAAABw4pVUAAAACXBIWXMAAAsTAAALEwEAmpwYAAAAGXRFWHRTb2Z0d2FyZQBBZG9iZSBJbWFnZVJlYWR5ccllPAAABKxJREFUeNrsnU1O21AQxx2LNeEGyQ2SbugSc4CK3ACzocvQExBOgCVWrJKcoOkJcJesSm5gbhBO4L4RE2QSJ/LHPHvI+/8li7bBSTU/z8z7mDfppGnqbar7/eeJ+TEyV2iuMw+S0NJcsbkWb8+P8a5f6mwCMTAIRGSuHmxoTa/0sOeB8TdgEIjfgGFdZN8ntnc+EH5xDFs1qrGx+2wLCIcpwGhHl8b+k48ccnx6TQk8IS6wTas6p5zi82gKMNrXbB2yRrCFjkRvQld4ZP4QVLj5jcbTPK5O+N8S43KJq9Y0xuybH33+65DtelHybULKIWnJm+6M4Sd4oAtBGnIoGhS9xy/pFd8Ao4TBnh9f2FOWNoCM+AOgclBWZaAUBXK3b/0FKgQllALyijAlFr7+SACJYE4xLSSAIG/IKZEAsoIdxbSqDQQjK/E8IjbshRoQgADI1xXXGgCIIt3QiiyA6NLUJhQAUQYFQKor4uV1ANGS480VS0MBEGVQjg5sWBpb/oj+HiiBxKrG0YE9sWctesqCPIX3PhCyFKjHnnICIHo0qAsFQJRBsQrExjj9C0EJVQFhGLGjQOYmuUdqgGRgdB2FEVa92QcMPTDEgXAicxUGFcLdqJkYKoFxZ/n9gx2TT4IR1J0UigHJwBjkvBZYNtJH1b3tgj4+6XRmC4YIkH0wWE8NeMWkJY8UhSGVQ/bBOGTRaYCRJIzaQPgEqaswAhsHlPyaMC4dhmGlgNCvCCNyFMbKJow6HuJqean1OudKQMwTMmtgzK9RfU9gz8NKDuEx/9xBKF2bUGqNsnjdxkUoA1tQas9DAEUWisjSCUHh/1jeQflzy4ZJ2obivTcK0AOEFebN2ps8vZvtqmNJQR4UmpPVXXYXB0JLCLyQGLc4e79t6XOpxZInAUV0P6TsIfkD0+VmM7LWgQBKfShW9tQznQveHIUSqgLCUGh55YfnpqbcNlEPEB4GPzgKZN2jVweQAruIh6z18vxKk4dEgKEkh2Djqt5eiQ8YemCIztQ1wDAG6dh8f16ayVsNENtFlKrLutkFw7yWWubQdlPOK8ktXV8ABk2C7h0d3l7x7qmnAgjDmAKGAiCAIQ+jMhA+cuAqjLktGHWS+sRRGDPb7dSrhiwKV84trzfR275qXZbLex6eRg8BFG1AMlBGnpsbUaqS+qe4miluyDvOZrvkNAaQbSgvu6Cgb3yDIWsTCucUhC8NQDJQ8J1WWoAwFApbVzCtEiAMZQYoioAAikIgGSiQJJAm+p27oiK2LOIhQ5hSTEMJIPAQZTkkgJl0eQgmenIKJID0qlZyQ1sJ/UICCAnfZVhfhbrNFQXS4/4mUDXvoNxxKwmENLb9dT8HDCO2NVOfShxsdBBG1xYQEp2he2mgl+JXh0E5459XrinosnN8ek0Eq37Nw19zkcckXqYZpaMA+t57t6AhJ/Behbf5RUDo5ns8062Ldlr7FLIWsIUKRVTF43OYmcMerWq5LgbxM5OWV9iltVAVfhploeCtVRifjsN9DHszZTwoDW0oTHk5ZxM7aZpuDt9oEYzi2Rg2s+YV0a4Cwi0gG+PqCXtND3asDSHmEe1iX2OB/wIMANIN2RKIRxMNAAAAAElFTkSuQmCC;" parent="1" vertex="1">
          <mxGeometry x="925" y="658" width="80" height="80" as="geometry" />
        </mxCell>
        <mxCell id="VlmwhRbNjf-6dhdqVEAL-16" style="rounded=0;orthogonalLoop=1;jettySize=auto;html=1;endArrow=none;endFill=0;exitX=0.5;exitY=1;exitDx=0;exitDy=0;entryX=0.5;entryY=0;entryDx=0;entryDy=0;" parent="1" source="VlmwhRbNjf-6dhdqVEAL-12" target="VlmwhRbNjf-6dhdqVEAL-72" edge="1">
          <mxGeometry relative="1" as="geometry">
            <mxPoint x="970" y="610" as="targetPoint" />
          </mxGeometry>
        </mxCell>
        <mxCell id="VlmwhRbNjf-6dhdqVEAL-12" value="BUFFALOのやつ" style="text;html=1;strokeColor=none;fillColor=none;align=center;verticalAlign=middle;whiteSpace=wrap;rounded=0;" parent="1" vertex="1">
          <mxGeometry x="780" y="440" width="100.8" height="30" as="geometry" />
        </mxCell>
        <mxCell id="VlmwhRbNjf-6dhdqVEAL-15" style="rounded=0;orthogonalLoop=1;jettySize=auto;html=1;entryX=0.5;entryY=1;entryDx=0;entryDy=0;endArrow=none;endFill=0;exitX=0.5;exitY=0;exitDx=0;exitDy=0;" parent="1" source="VlmwhRbNjf-6dhdqVEAL-70" target="VlmwhRbNjf-6dhdqVEAL-12" edge="1">
          <mxGeometry relative="1" as="geometry">
            <mxPoint x="519" y="630" as="sourcePoint" />
          </mxGeometry>
        </mxCell>
        <mxCell id="VlmwhRbNjf-6dhdqVEAL-17" value="" style="swimlane;startSize=0;" parent="1" vertex="1">
          <mxGeometry x="159" y="1098" width="880" height="80" as="geometry" />
        </mxCell>
        <mxCell id="VlmwhRbNjf-6dhdqVEAL-19" value="&lt;font style=&quot;font-size: 24px;&quot;&gt;Proxmox クラスタ&lt;/font&gt;" style="text;html=1;align=center;verticalAlign=middle;resizable=0;points=[];autosize=1;strokeColor=none;fillColor=none;" parent="VlmwhRbNjf-6dhdqVEAL-17" vertex="1">
          <mxGeometry x="330" y="20" width="220" height="40" as="geometry" />
        </mxCell>
        <mxCell id="VlmwhRbNjf-6dhdqVEAL-20" value="" style="swimlane;startSize=0;" parent="1" vertex="1">
          <mxGeometry x="599" y="1018" width="440" height="80" as="geometry" />
        </mxCell>
        <mxCell id="VlmwhRbNjf-6dhdqVEAL-23" value="&lt;span style=&quot;font-size: 24px;&quot;&gt;新デスクトップ&lt;/span&gt;" style="text;html=1;align=center;verticalAlign=middle;resizable=0;points=[];autosize=1;strokeColor=none;fillColor=none;" parent="VlmwhRbNjf-6dhdqVEAL-20" vertex="1">
          <mxGeometry x="125" y="20" width="190" height="40" as="geometry" />
        </mxCell>
        <mxCell id="VlmwhRbNjf-6dhdqVEAL-21" value="" style="swimlane;startSize=0;" parent="1" vertex="1">
          <mxGeometry x="159" y="1018" width="440" height="80" as="geometry" />
        </mxCell>
        <mxCell id="VlmwhRbNjf-6dhdqVEAL-22" value="&lt;font style=&quot;font-size: 24px;&quot;&gt;Let&#39;snote CF-NX2(入院中)&lt;/font&gt;" style="text;html=1;align=center;verticalAlign=middle;resizable=0;points=[];autosize=1;strokeColor=none;fillColor=none;" parent="VlmwhRbNjf-6dhdqVEAL-21" vertex="1">
          <mxGeometry x="65" y="20" width="300" height="40" as="geometry" />
        </mxCell>
        <mxCell id="VlmwhRbNjf-6dhdqVEAL-25" value="" style="swimlane;startSize=0;" parent="1" vertex="1">
          <mxGeometry x="618" y="878" width="60" height="140" as="geometry" />
        </mxCell>
        <mxCell id="VlmwhRbNjf-6dhdqVEAL-26" value="&lt;font style=&quot;font-size: 19px;&quot;&gt;検証用Ubuntu&lt;/font&gt;" style="text;html=1;align=center;verticalAlign=middle;resizable=0;points=[];autosize=1;strokeColor=none;fillColor=none;rotation=90;" parent="VlmwhRbNjf-6dhdqVEAL-25" vertex="1">
          <mxGeometry x="-40" y="50" width="140" height="40" as="geometry" />
        </mxCell>
        <mxCell id="VlmwhRbNjf-6dhdqVEAL-75" style="rounded=0;orthogonalLoop=1;jettySize=auto;html=1;exitX=0.5;exitY=0;exitDx=0;exitDy=0;endArrow=none;endFill=0;" parent="1" source="VlmwhRbNjf-6dhdqVEAL-31" edge="1">
          <mxGeometry relative="1" as="geometry">
            <mxPoint x="679" y="770" as="targetPoint" />
          </mxGeometry>
        </mxCell>
        <mxCell id="VlmwhRbNjf-6dhdqVEAL-31" value="" style="swimlane;startSize=0;" parent="1" vertex="1">
          <mxGeometry x="708" y="878" width="60" height="140" as="geometry" />
        </mxCell>
        <mxCell id="VlmwhRbNjf-6dhdqVEAL-32" value="&lt;span style=&quot;font-size: 19px;&quot;&gt;OpenVPN&lt;br&gt;DNS&lt;br&gt;&lt;/span&gt;" style="text;html=1;align=center;verticalAlign=middle;resizable=0;points=[];autosize=1;strokeColor=none;fillColor=none;rotation=90;" parent="VlmwhRbNjf-6dhdqVEAL-31" vertex="1">
          <mxGeometry x="-25" y="40" width="110" height="60" as="geometry" />
        </mxCell>
        <mxCell id="VlmwhRbNjf-6dhdqVEAL-34" value="" style="swimlane;startSize=0;" parent="1" vertex="1">
          <mxGeometry x="798.8" y="878" width="59.2" height="140" as="geometry" />
        </mxCell>
        <mxCell id="VlmwhRbNjf-6dhdqVEAL-35" value="&lt;span style=&quot;font-size: 16px;&quot;&gt;WARP接続用&lt;br&gt;サーバー&lt;br style=&quot;font-size: 16px;&quot;&gt;&lt;/span&gt;" style="text;html=1;align=center;verticalAlign=middle;resizable=0;points=[];autosize=1;strokeColor=none;fillColor=none;rotation=90;fontSize=16;" parent="VlmwhRbNjf-6dhdqVEAL-34" vertex="1">
          <mxGeometry x="-30" y="45" width="120" height="50" as="geometry" />
        </mxCell>
        <mxCell id="VlmwhRbNjf-6dhdqVEAL-77" style="rounded=0;orthogonalLoop=1;jettySize=auto;html=1;entryX=0.5;entryY=1;entryDx=0;entryDy=0;exitX=0.5;exitY=0;exitDx=0;exitDy=0;endArrow=none;endFill=0;" parent="1" source="VlmwhRbNjf-6dhdqVEAL-36" target="VlmwhRbNjf-6dhdqVEAL-45" edge="1">
          <mxGeometry relative="1" as="geometry" />
        </mxCell>
        <mxCell id="VlmwhRbNjf-6dhdqVEAL-36" value="" style="swimlane;startSize=0;" parent="1" vertex="1">
          <mxGeometry x="888" y="878" width="50" height="140" as="geometry" />
        </mxCell>
        <mxCell id="VlmwhRbNjf-6dhdqVEAL-37" value="&lt;span style=&quot;font-size: 16px;&quot;&gt;NextCloud&lt;br style=&quot;font-size: 16px;&quot;&gt;&lt;/span&gt;" style="text;html=1;align=center;verticalAlign=middle;resizable=0;points=[];autosize=1;strokeColor=none;fillColor=none;rotation=90;fontSize=16;" parent="VlmwhRbNjf-6dhdqVEAL-36" vertex="1">
          <mxGeometry x="-25" y="55" width="100" height="30" as="geometry" />
        </mxCell>
        <mxCell id="VlmwhRbNjf-6dhdqVEAL-41" value="" style="swimlane;startSize=0;" parent="1" vertex="1">
          <mxGeometry x="969" y="878" width="51" height="140" as="geometry" />
        </mxCell>
        <mxCell id="VlmwhRbNjf-6dhdqVEAL-42" value="&lt;span style=&quot;font-size: 16px;&quot;&gt;Webサーバー&lt;br&gt;(LXC)&lt;br style=&quot;font-size: 16px;&quot;&gt;&lt;/span&gt;" style="text;html=1;align=center;verticalAlign=middle;resizable=0;points=[];autosize=1;strokeColor=none;fillColor=none;rotation=90;fontSize=16;" parent="VlmwhRbNjf-6dhdqVEAL-41" vertex="1">
          <mxGeometry x="-35" y="45" width="120" height="50" as="geometry" />
        </mxCell>
        <mxCell id="VlmwhRbNjf-6dhdqVEAL-44" value="仮想スイッチ" style="text;html=1;strokeColor=none;fillColor=none;align=center;verticalAlign=middle;whiteSpace=wrap;rounded=0;" parent="1" vertex="1">
          <mxGeometry x="634" y="738" width="90" height="30" as="geometry" />
        </mxCell>
        <mxCell id="VlmwhRbNjf-6dhdqVEAL-45" value="仮想スイッチ" style="text;html=1;strokeColor=none;fillColor=none;align=center;verticalAlign=middle;whiteSpace=wrap;rounded=0;" parent="1" vertex="1">
          <mxGeometry x="920" y="738" width="90" height="30" as="geometry" />
        </mxCell>
        <mxCell id="VlmwhRbNjf-6dhdqVEAL-46" value="仮想スイッチ" style="text;html=1;strokeColor=none;fillColor=none;align=center;verticalAlign=middle;whiteSpace=wrap;rounded=0;" parent="1" vertex="1">
          <mxGeometry x="474" y="738" width="90" height="30" as="geometry" />
        </mxCell>
        <mxCell id="VlmwhRbNjf-6dhdqVEAL-70" value="USB増設NIC" style="text;html=1;strokeColor=none;fillColor=none;align=center;verticalAlign=middle;whiteSpace=wrap;rounded=0;" parent="1" vertex="1">
          <mxGeometry x="474" y="628" width="90" height="30" as="geometry" />
        </mxCell>
        <mxCell id="VlmwhRbNjf-6dhdqVEAL-71" value="オンボードNIC" style="text;html=1;strokeColor=none;fillColor=none;align=center;verticalAlign=middle;whiteSpace=wrap;rounded=0;" parent="1" vertex="1">
          <mxGeometry x="634" y="628" width="90" height="30" as="geometry" />
        </mxCell>
        <mxCell id="VlmwhRbNjf-6dhdqVEAL-72" value="PCIEx1増設NIC" style="text;html=1;strokeColor=none;fillColor=none;align=center;verticalAlign=middle;whiteSpace=wrap;rounded=0;" parent="1" vertex="1">
          <mxGeometry x="920" y="628" width="90" height="30" as="geometry" />
        </mxCell>
        <mxCell id="VlmwhRbNjf-6dhdqVEAL-74" style="rounded=0;orthogonalLoop=1;jettySize=auto;html=1;entryX=0.5;entryY=1;entryDx=0;entryDy=0;exitX=0.002;exitY=0.483;exitDx=0;exitDy=0;exitPerimeter=0;endArrow=none;endFill=0;" parent="1" source="VlmwhRbNjf-6dhdqVEAL-26" target="VlmwhRbNjf-6dhdqVEAL-45" edge="1">
          <mxGeometry relative="1" as="geometry" />
        </mxCell>
        <mxCell id="VlmwhRbNjf-6dhdqVEAL-76" style="rounded=0;orthogonalLoop=1;jettySize=auto;html=1;entryX=0.5;entryY=1;entryDx=0;entryDy=0;exitX=0.5;exitY=0;exitDx=0;exitDy=0;endArrow=none;endFill=0;" parent="1" source="VlmwhRbNjf-6dhdqVEAL-34" target="VlmwhRbNjf-6dhdqVEAL-45" edge="1">
          <mxGeometry relative="1" as="geometry" />
        </mxCell>
        <mxCell id="VlmwhRbNjf-6dhdqVEAL-78" style="rounded=0;orthogonalLoop=1;jettySize=auto;html=1;exitX=0.5;exitY=0;exitDx=0;exitDy=0;endArrow=none;endFill=0;entryX=0.5;entryY=1;entryDx=0;entryDy=0;" parent="1" source="VlmwhRbNjf-6dhdqVEAL-41" target="VlmwhRbNjf-6dhdqVEAL-45" edge="1">
          <mxGeometry relative="1" as="geometry" />
        </mxCell>
        <mxCell id="VlmwhRbNjf-6dhdqVEAL-85" style="rounded=0;orthogonalLoop=1;jettySize=auto;html=1;entryX=0.5;entryY=1;entryDx=0;entryDy=0;endArrow=none;endFill=0;exitX=0.5;exitY=0.07;exitDx=0;exitDy=0;exitPerimeter=0;" parent="1" source="VlmwhRbNjf-6dhdqVEAL-83" target="VlmwhRbNjf-6dhdqVEAL-8" edge="1">
          <mxGeometry relative="1" as="geometry" />
        </mxCell>
        <mxCell id="VlmwhRbNjf-6dhdqVEAL-83" value="" style="fontColor=#0066CC;verticalAlign=top;verticalLabelPosition=bottom;labelPosition=center;align=center;html=1;outlineConnect=0;fillColor=#CCCCCC;strokeColor=#6881B3;gradientColor=none;gradientDirection=north;strokeWidth=2;shape=mxgraph.networks.pc;" parent="1" vertex="1">
          <mxGeometry x="-140" y="658" width="100" height="70" as="geometry" />
        </mxCell>
        <mxCell id="VlmwhRbNjf-6dhdqVEAL-84" value="Windowsマシンやスマートフォン" style="text;html=1;strokeColor=none;fillColor=none;align=center;verticalAlign=middle;whiteSpace=wrap;rounded=0;" parent="1" vertex="1">
          <mxGeometry x="-140" y="738" width="110" height="30" as="geometry" />
        </mxCell>
        <mxCell id="VlmwhRbNjf-6dhdqVEAL-87" value="" style="swimlane;startSize=0;" parent="1" vertex="1">
          <mxGeometry x="858" y="74" width="340" height="210" as="geometry" />
        </mxCell>
        <mxCell id="VlmwhRbNjf-6dhdqVEAL-88" value="&lt;b style=&quot;font-size: 18px;&quot;&gt;Xserver VPS（関東？）&lt;/b&gt;" style="text;html=1;strokeColor=none;fillColor=none;align=center;verticalAlign=middle;whiteSpace=wrap;rounded=0;fontSize=18;" parent="VlmwhRbNjf-6dhdqVEAL-87" vertex="1">
          <mxGeometry x="12" y="10" width="210" height="30" as="geometry" />
        </mxCell>
        <mxCell id="VlmwhRbNjf-6dhdqVEAL-90" value="&lt;font style=&quot;font-size: 15px;&quot;&gt;デフォルトのNIC&lt;/font&gt;" style="text;html=1;strokeColor=#6c8ebf;fillColor=#dae8fc;align=center;verticalAlign=middle;whiteSpace=wrap;rounded=0;" parent="VlmwhRbNjf-6dhdqVEAL-87" vertex="1">
          <mxGeometry y="60" width="120" height="30" as="geometry" />
        </mxCell>
        <mxCell id="VlmwhRbNjf-6dhdqVEAL-102" style="edgeStyle=orthogonalEdgeStyle;rounded=0;orthogonalLoop=1;jettySize=auto;html=1;exitX=0.5;exitY=0;exitDx=0;exitDy=0;entryX=0.5;entryY=1;entryDx=0;entryDy=0;endArrow=none;endFill=0;" parent="VlmwhRbNjf-6dhdqVEAL-87" source="VlmwhRbNjf-6dhdqVEAL-94" target="VlmwhRbNjf-6dhdqVEAL-90" edge="1">
          <mxGeometry relative="1" as="geometry" />
        </mxCell>
        <mxCell id="VlmwhRbNjf-6dhdqVEAL-94" value="&lt;span style=&quot;font-size: 15px;&quot;&gt;Cloudflare WARP&lt;/span&gt;" style="text;html=1;strokeColor=#d6b656;fillColor=#fff2cc;align=center;verticalAlign=middle;whiteSpace=wrap;rounded=0;" parent="VlmwhRbNjf-6dhdqVEAL-87" vertex="1">
          <mxGeometry y="130" width="120" height="30" as="geometry" />
        </mxCell>
        <mxCell id="VlmwhRbNjf-6dhdqVEAL-99" value="&lt;font style=&quot;font-size: 16px;&quot;&gt;Nginxで外部からのリクエストを受け付ける。&lt;/font&gt;" style="text;html=1;strokeColor=none;fillColor=none;align=center;verticalAlign=middle;whiteSpace=wrap;rounded=0;" parent="VlmwhRbNjf-6dhdqVEAL-87" vertex="1">
          <mxGeometry x="140" y="60" width="182" height="30" as="geometry" />
        </mxCell>
        <mxCell id="VlmwhRbNjf-6dhdqVEAL-100" value="&lt;span style=&quot;font-size: 16px;&quot;&gt;条件に合致した通信はCloudflare WARPを経由し自宅へ転送する。&lt;/span&gt;" style="text;html=1;strokeColor=none;fillColor=none;align=center;verticalAlign=middle;whiteSpace=wrap;rounded=0;" parent="VlmwhRbNjf-6dhdqVEAL-87" vertex="1">
          <mxGeometry x="130" y="120" width="200" height="30" as="geometry" />
        </mxCell>
        <mxCell id="VlmwhRbNjf-6dhdqVEAL-97" style="edgeStyle=orthogonalEdgeStyle;rounded=0;orthogonalLoop=1;jettySize=auto;html=1;entryX=0.5;entryY=0;entryDx=0;entryDy=0;endArrow=none;endFill=0;exitX=0.5;exitY=1;exitDx=0;exitDy=0;" parent="1" source="VlmwhRbNjf-6dhdqVEAL-98" target="VlmwhRbNjf-6dhdqVEAL-2" edge="1">
          <mxGeometry relative="1" as="geometry">
            <mxPoint x="360" y="110" as="sourcePoint" />
          </mxGeometry>
        </mxCell>
        <mxCell id="VlmwhRbNjf-6dhdqVEAL-95" value="" style="shape=image;verticalLabelPosition=bottom;labelBackgroundColor=default;verticalAlign=top;aspect=fixed;imageAspect=0;image=data:image/png,iVBORw0KGgoAAAANSUhEUgAAAGUAAABkCAYAAACfIP5qAAAACXBIWXMAAAsTAAALEwEAmpwYAAAAGXRFWHRTb2Z0d2FyZQBBZG9iZSBJbWFnZVJlYWR5ccllPAAACq1JREFUeNrsXcF12zgQhfl8XikViFuBmcvuUUwFUiqQfNk9hq7AdAWWjzmZqcByBUsdcwpVQegKYlWQ5ShDm4YHIECAICRn3uNzYkskgI+Z+TMAhic/f/5khySjv/8Nqx/L6oqqayz5aFld693Xz2t2YHLq8cDHMOjVoK6af6v+X+LfZy23AcAS4t4A5ry6iurKq/s9+tb/E180BQdriWCcNf70pRq4JfH5BAe+xCvCa1FdD/BvfsDxGTn8s/HrbXVlqFXlmwelYYrgmkg+SgIjuOcYNawkfp9zgPNSA5QNqUGDgFINUIxALDS+dsGbMo3nqQDywkqC5lRXOoT2nA4ARlpd0w5fHxs8eq0BCEPzBhNmUbX5i2twnGgKmqmsIxh7s1INStTx2eB7ri10wxk4Qc9gjKsLTM53A0BAVgbfLSx1BzSnqPqTHqymoKnKWhy4moH/+vnEsC2ljXZwhGBZtas4CE1paMd/lgZiY+EetgcP/NO3vrQmsAxIiCznk2fxWNHTfS+rPufI7vwDBc1VoclyXEnc472n6Gsir0CpGrREczXqodOhJ/eQCZhp0Ji5F6CgXb3ts8MWZuHYgTbChLzDCTocKFUDgF1dOuhwYvj9OXMnt6bABIaALBx11GhQK+oK5OP8UIAJOgKSOATEykyvgIFJdHUIwAQdAFlaSluoygXOdC0mSNHU6j4ppktcyaqLP9SK6PEB3xx2SrSWMkbtyetcFP4uRv8DNHVT/S0W9CNnZmkfLSVlv9Z2SuugYKfLnmgvmcoQJSGrtkDWd2YIau4wptJKqOqYr7VDQHaigA8p+EzxPgvKruMC1hKf40LOMPVkT1Mspr9V5T2V7MPg7M7i/WIMel3JR5WNHIECINEAjp0aQIjKs473zPH7FFW+cNg3pfarmK+Vw0bfU0u+6ANMzCd8by1gZCuHjKwwBgXtsSuW8oB2XjQxTJ3ymWSCgXneOuhjbkNTChwsJwEitYMEJ4atQHWB/nEox28OCtr2yMEsuhL4kagH83lNBXT4/GXP/SxsaEo9i+Ie7e4GI23Kj2Q90fBc4F/Ab930GKs8WgGlBgaDMNsN3klmZ9pjcDdC4kD1tS//opwqCqgZKlqswQbbzLaSW3bw+X0vKU8la+x9+JdCkJlQ0hRo0J2owZhtfW+h0RsJ/c2YG7nEAJLyL2mfmoL9nFHPDwT0sG5w1iMBWHqQztkHdJL4ZWPpGQ+ERYi48aZBQVYy4SikCJgSCcB9R7ZVCtI5U+ZWJhLNtGXGKH9Sa8iMnxSBQEt4bl8IZhMQALD/V5qzJhWkUVI2jMwEicvSUptkoLyyGjwoc0k0TOaPsPHQ8I+CWbVDbbrCSxa1j9hwshLkx2yYMQqUqQiUpyyxYsZ0n1IXbddE85chiPDZBIkBa0nndM3+9hEzxQIt/m7gT0LuftRYv6vjmEBBS3h+n0soc4FqCRoRqgDS0BIfZCpIw5Ss+/r+usV0vRr/oOWDImDuqMY3/EyqeRLKF1D2sZPATK86Ov1cEZT4BSjoxHWj52sRM9MO63/Z7XtPQBlRkwQnWWIJlGkrKA3OrCtCZtZBEo+0ZSYIKmES6mTNt8RhWJFFmtQaGmiaLhEzK023lqLd3noEjMgK6FDktcx3EBLZ0JSmytvYepR7BMqESjVpaouqkydBCW3QSQv38K3QQCIwzSrasuNDBwXf/QIUH8+U+OL0E4EG7CxrCciYiuiNOL6Fe4QeAvNKW9B5tzHPXNOfPI1hIGED+tPK/NBM7Km2zDvEVuuu/bN9ENUUlJS527Wo2y6KLW4k6RqqLsxkCFAWJpqHzCbElIZP4EwE/cpsawk8p4/iBmuTmKVO03gITiKYRDtFUJaqD+oDlBGzsJzLgXPO3O0/k0X5oQIAW0EFJWWG21fBnLxFRUP2XFJqJatO1GA6WcfqR7Z95oowYYsWk6bla/uqzbImgEiwEADMIlibuETHB4nNUuUoGmzIxq1O71B7XKdlKBOWc1q8NgXl5I+//oHZZ/M4AESyYwKUR9a+sgidSzXWYWqtS7DjEwfAvCciddCeT4w4HISm64fG/T8EjrRkztSWemFQb1FzEpXsM9hv2I+Gq3uw9emmZ/+TSFiYsekCzXMCSof4ZW/W2K/sc6bK5mAGcwBd9GDi5tRzkSna6PuvNfqq09bqS1FloCyVdtqik13r1ndsVG+d40/TDRofVE4sdzBde9Nvm33dEw2LmB1bD5TyFs0bPCdTrTmMFDWrzQuyuBog3WTsjcYRcl0tKZqUeMvsZIqNgiadmAHjhroAp1ZRaBzUvDGba4Dilgl0g/updcYj0Rjbx6b5Uj0C3SZ/EoFTydywohqgvIuJI0wdD5LwXL7C/QpFkwk7R9MalJSZF76h6GDIuu+XMpVNQ4vKzumJZ5CKruUJNcZ3f3r4tBGBm4KS22AeFmWKFwSnDw0t0iql3vBHJpIpjm/RjOhtlPNbewYKT7EhuINdmD8ws5DaXEtSALYtdnramd/ctmpUapCnwh3o4JCyaWhR3scDFOrBPJUsOeXMT1dQqI10MTscqU0dnMnpBSQgCaiZ9YsSQg6kp+eccuan65E23/yJbZB0qXArFefiuHnz9y9qsygmDSmhknSuqLALebVzvk8JFJy1SmqgIGjksQCyJwo2CnaqyilB3XQXkPID9yeqAmytS96taZ5KlZjplLd5yOknhqDMjxAUGJOVTtqIe7PRJf5uhyEIXCUV3FKp+9VvTRHKXHTEsAWQF39CEgGk6poRGxADQfSpuoOE8icRG/bsYq8mTCNlEyqMwwNFuQOCtj1qaMtb0hJRMYZQ8BIClfgmVWFfTRO2+w3K81yV+JIMzVFMTO5ti5ZkyqBoaEvxVpiXQjGGWHHSSrVEpilK2sLbwyP1J7IaMmnLZBSBspXt2AkkA9528HLzBrRkJ6H3GTcBzzT8SqIT0fPAZEy8s5x6YHRkoCwlJRRnbZMSv8un7L+0JTlVthglb9Sf3FDr/hiniPxtmwnbMYVT0CrlCmHwL9o05cjyXVtJVlhW+ipqGaelSppGtVwhXzTmgbj5sZguoR/BtXbZmtNUYlFuVHfc6OyQnDfY2DGbrqWA/kL/WtfZ+SVmtDQbnfUYZVAaVVeP2clfCfxIXUFcRWJi7LQmrNZeYkT9nKnXGzkkuaeKwzUm4agrKLqivW2VCnpc7QrpUYQl3fGYg87eBWOLYWvX/SGbrr1jl8QjuvsWRqZ1amyBcsiakjgs6f5bUxQdeyZx7F3yeOemb9+2BUp6hI5dNxAGM/hR52hgr6BgQ0TVVr2M2CWOPWP6mxKBKMQ6xzFcaEr9RoWY+VVITdexg+bo7uaBTEdkarKaovWeRyXq8bzO8MlTQGKBYwfN0X0x9YWsBoA3oHCxS8b8SlKeCxy77ktF9+bPpnY4AcVDrbkQrCBGGhE7aNpKQhD8B4Xg/EOlYmRvRi0VAYE3LaUmp8K8AoUzaaljcESl0lVfVesMjEFA4cCBVPas50dt0bE/agJSH2p1CsagoDQGJ2TP1YxsEwIY2FBAfUWnobdITrKup4sPHhTC7wA4NgrfyKhvxsUiNRDrIbTCa1AIDYrxijpE2KIXOK/wfgXrcFL4TYMi0aSQPSc/4SdV5SizkX8aUv4XYADgqjqCpVHaZQAAAABJRU5ErkJggg==;" parent="1" vertex="1">
          <mxGeometry x="313" y="99" width="101" height="100" as="geometry" />
        </mxCell>
        <mxCell id="VlmwhRbNjf-6dhdqVEAL-96" style="edgeStyle=orthogonalEdgeStyle;rounded=0;orthogonalLoop=1;jettySize=auto;html=1;entryX=1;entryY=0.5;entryDx=0;entryDy=0;endArrow=none;endFill=0;" parent="1" source="VlmwhRbNjf-6dhdqVEAL-90" target="VlmwhRbNjf-6dhdqVEAL-95" edge="1">
          <mxGeometry relative="1" as="geometry" />
        </mxCell>
        <mxCell id="VlmwhRbNjf-6dhdqVEAL-98" value="インターネット" style="text;html=1;strokeColor=none;fillColor=none;align=center;verticalAlign=middle;whiteSpace=wrap;rounded=0;" parent="1" vertex="1">
          <mxGeometry x="305.8" y="199" width="110" height="30" as="geometry" />
        </mxCell>
        <mxCell id="VlmwhRbNjf-6dhdqVEAL-105" value="" style="swimlane;startSize=0;" parent="1" vertex="1">
          <mxGeometry x="160" y="630" width="438" height="389" as="geometry" />
        </mxCell>
        <mxCell id="VlmwhRbNjf-6dhdqVEAL-7" value="" style="shape=image;verticalLabelPosition=bottom;labelBackgroundColor=default;verticalAlign=top;aspect=fixed;imageAspect=0;image=data:image/png,iVBORw0KGgoAAAANSUhEUgAAAGQAAABkCAYAAABw4pVUAAAACXBIWXMAAAsTAAALEwEAmpwYAAAAGXRFWHRTb2Z0d2FyZQBBZG9iZSBJbWFnZVJlYWR5ccllPAAABKxJREFUeNrsnU1O21AQxx2LNeEGyQ2SbugSc4CK3ACzocvQExBOgCVWrJKcoOkJcJesSm5gbhBO4L4RE2QSJ/LHPHvI+/8li7bBSTU/z8z7mDfppGnqbar7/eeJ+TEyV2iuMw+S0NJcsbkWb8+P8a5f6mwCMTAIRGSuHmxoTa/0sOeB8TdgEIjfgGFdZN8ntnc+EH5xDFs1qrGx+2wLCIcpwGhHl8b+k48ccnx6TQk8IS6wTas6p5zi82gKMNrXbB2yRrCFjkRvQld4ZP4QVLj5jcbTPK5O+N8S43KJq9Y0xuybH33+65DtelHybULKIWnJm+6M4Sd4oAtBGnIoGhS9xy/pFd8Ao4TBnh9f2FOWNoCM+AOgclBWZaAUBXK3b/0FKgQllALyijAlFr7+SACJYE4xLSSAIG/IKZEAsoIdxbSqDQQjK/E8IjbshRoQgADI1xXXGgCIIt3QiiyA6NLUJhQAUQYFQKor4uV1ANGS480VS0MBEGVQjg5sWBpb/oj+HiiBxKrG0YE9sWctesqCPIX3PhCyFKjHnnICIHo0qAsFQJRBsQrExjj9C0EJVQFhGLGjQOYmuUdqgGRgdB2FEVa92QcMPTDEgXAicxUGFcLdqJkYKoFxZ/n9gx2TT4IR1J0UigHJwBjkvBZYNtJH1b3tgj4+6XRmC4YIkH0wWE8NeMWkJY8UhSGVQ/bBOGTRaYCRJIzaQPgEqaswAhsHlPyaMC4dhmGlgNCvCCNyFMbKJow6HuJqean1OudKQMwTMmtgzK9RfU9gz8NKDuEx/9xBKF2bUGqNsnjdxkUoA1tQas9DAEUWisjSCUHh/1jeQflzy4ZJ2obivTcK0AOEFebN2ps8vZvtqmNJQR4UmpPVXXYXB0JLCLyQGLc4e79t6XOpxZInAUV0P6TsIfkD0+VmM7LWgQBKfShW9tQznQveHIUSqgLCUGh55YfnpqbcNlEPEB4GPzgKZN2jVweQAruIh6z18vxKk4dEgKEkh2Djqt5eiQ8YemCIztQ1wDAG6dh8f16ayVsNENtFlKrLutkFw7yWWubQdlPOK8ktXV8ABk2C7h0d3l7x7qmnAgjDmAKGAiCAIQ+jMhA+cuAqjLktGHWS+sRRGDPb7dSrhiwKV84trzfR275qXZbLex6eRg8BFG1AMlBGnpsbUaqS+qe4miluyDvOZrvkNAaQbSgvu6Cgb3yDIWsTCucUhC8NQDJQ8J1WWoAwFApbVzCtEiAMZQYoioAAikIgGSiQJJAm+p27oiK2LOIhQ5hSTEMJIPAQZTkkgJl0eQgmenIKJID0qlZyQ1sJ/UICCAnfZVhfhbrNFQXS4/4mUDXvoNxxKwmENLb9dT8HDCO2NVOfShxsdBBG1xYQEp2he2mgl+JXh0E5459XrinosnN8ek0Eq37Nw19zkcckXqYZpaMA+t57t6AhJ/Behbf5RUDo5ns8062Ldlr7FLIWsIUKRVTF43OYmcMerWq5LgbxM5OWV9iltVAVfhploeCtVRifjsN9DHszZTwoDW0oTHk5ZxM7aZpuDt9oEYzi2Rg2s+YV0a4Cwi0gG+PqCXtND3asDSHmEe1iX2OB/wIMANIN2RKIRxMNAAAAAElFTkSuQmCC;" parent="VlmwhRbNjf-6dhdqVEAL-105" vertex="1">
          <mxGeometry x="20" y="28" width="80" height="80" as="geometry" />
        </mxCell>
        <mxCell id="VlmwhRbNjf-6dhdqVEAL-47" value="仮想スイッチ" style="text;html=1;strokeColor=none;fillColor=none;align=center;verticalAlign=middle;whiteSpace=wrap;rounded=0;" parent="VlmwhRbNjf-6dhdqVEAL-105" vertex="1">
          <mxGeometry x="15" y="108" width="90" height="30" as="geometry" />
        </mxCell>
        <mxCell id="VlmwhRbNjf-6dhdqVEAL-69" value="オンボードNIC" style="text;html=1;strokeColor=none;fillColor=none;align=center;verticalAlign=middle;whiteSpace=wrap;rounded=0;" parent="VlmwhRbNjf-6dhdqVEAL-105" vertex="1">
          <mxGeometry x="20" width="90" height="30" as="geometry" />
        </mxCell>
        <mxCell id="VlmwhRbNjf-6dhdqVEAL-110" value="" style="swimlane;startSize=0;" parent="1" vertex="1">
          <mxGeometry x="600" y="629" width="438" height="389" as="geometry" />
        </mxCell>
        <mxCell id="I1IXjIapEW5mU9hD-b8A-2" style="rounded=0;orthogonalLoop=1;jettySize=auto;html=1;entryX=0.5;entryY=1;entryDx=0;entryDy=0;endArrow=none;endFill=0;" parent="1" edge="1">
          <mxGeometry relative="1" as="geometry" />
        </mxCell>
        <mxCell id="I1IXjIapEW5mU9hD-b8A-14" value="&lt;br&gt;&lt;ul&gt;&lt;li style=&quot;text-align: left;&quot;&gt;必ずCloudflare ZeroTrustを経由し、&lt;br&gt;自宅ネットワークを直接公開しない（安全）&lt;/li&gt;&lt;li style=&quot;text-align: left;&quot;&gt;インターネットからの接続はVPS上のNGINXもしくはCloudflareのチェックを受け、条件に合わないリクエストは自宅に転送されない&lt;/li&gt;&lt;/ul&gt;" style="text;html=1;strokeColor=none;fillColor=none;align=center;verticalAlign=middle;whiteSpace=wrap;rounded=0;fontSize=23;" parent="1" vertex="1">
          <mxGeometry x="1400" y="160" width="630" height="160" as="geometry" />
        </mxCell>
        <mxCell id="I1IXjIapEW5mU9hD-b8A-16" value="" style="shape=flexArrow;endArrow=classic;startArrow=classic;html=1;rounded=0;entryX=0;entryY=0.5;entryDx=0;entryDy=0;fillColor=#fff2cc;strokeColor=#d6b656;exitX=1.02;exitY=0.617;exitDx=0;exitDy=0;exitPerimeter=0;" parent="1" source="I1IXjIapEW5mU9hD-b8A-45" edge="1">
          <mxGeometry width="100" height="100" relative="1" as="geometry">
            <mxPoint x="1850" y="1580" as="sourcePoint" />
            <mxPoint x="2322" y="1577" as="targetPoint" />
          </mxGeometry>
        </mxCell>
        <mxCell id="I1IXjIapEW5mU9hD-b8A-17" style="rounded=0;orthogonalLoop=1;jettySize=auto;html=1;entryX=0;entryY=0.5;entryDx=0;entryDy=0;endArrow=none;endFill=0;" parent="1" source="I1IXjIapEW5mU9hD-b8A-18" target="I1IXjIapEW5mU9hD-b8A-21" edge="1">
          <mxGeometry relative="1" as="geometry" />
        </mxCell>
        <mxCell id="I1IXjIapEW5mU9hD-b8A-18" value="" style="shape=actor;whiteSpace=wrap;html=1;" parent="1" vertex="1">
          <mxGeometry x="1420" y="1285" width="50" height="60" as="geometry" />
        </mxCell>
        <mxCell id="I1IXjIapEW5mU9hD-b8A-19" value="" style="swimlane;startSize=0;" parent="1" vertex="1">
          <mxGeometry x="1578" y="1210" width="340" height="200" as="geometry" />
        </mxCell>
        <mxCell id="I1IXjIapEW5mU9hD-b8A-20" value="Xserver VPS （関東？）" style="text;html=1;strokeColor=none;fillColor=none;align=center;verticalAlign=middle;whiteSpace=wrap;rounded=0;fontSize=20;" parent="I1IXjIapEW5mU9hD-b8A-19" vertex="1">
          <mxGeometry x="16" y="20" width="140" height="30" as="geometry" />
        </mxCell>
        <mxCell id="I1IXjIapEW5mU9hD-b8A-21" value="" style="shape=image;verticalLabelPosition=bottom;labelBackgroundColor=default;verticalAlign=top;aspect=fixed;imageAspect=0;image=data:image/png,iVBORw0KGgoAAAANSUhEUgAAC7gAAAfQCAMAAABlzOIIAAAABGdBTUEAALGPC/xhBQAAAAFzUkdCAK7OHOkAAADDUExURUdwTACZAACZAACYAACZAACZAACYAACbAACWAACZAACZAACXAADRAACZAACZAACZAACZAACZAACZAACZAACZAACZAACYAACZAACZAACbAACZAACYAACYAACZAACZAACZAACYAACZAACZAACZAACZAACZAACZAACYAACYAACfAACZAACZAACZAACZAACZAACZAACZAACZAACZAACZAACZAACWAACYAACYAACZAACZAACZAACZAACZAACZAACZAACZAACZAHFkXU4AAABAdFJOUwDGw5D92PkzEbLhYwGAeWx9TYj77/UDRFkLVmYiGWBKFCjpvB7No4UPBtyqmOXRLpN1njo/CN/VUnC3ya82i8BeWu9dAAAgAElEQVR42uzBAQEAAACAkP6v7ggKAAAAAAAAAAAAAAAAAAAAAAAAAAAAAAAAAAAAAAAAAAAAAAAAAAAAAAAAAAAAAAAAAAAAAAAAAAAAAAAAAAAAAAAAAAAAAAAAAAAAAAAAAAAAAAAAAAAAAAAAAAAAAAAAAAAAAAAAAAAAAAAAAAAAAAAAAAAAAAAAAAAAAAAAAAAAAAAAAAAAAAAAAAAAAAAAAAAAAAAAAAAAAAAAAAAAAAAAAAAAAAAAAAAAAAAAAAAAAAAAAAAAAAAAAAAAAAAAAAAAAAAAAAAAAAAAAAAAAAAAAAAAAAAAAAAAAAAAAAAAAAAAAAAAAAAAAAAAAAAAAAAAAAAAAAAAAAAAAAAAAAAAAAAAAAAAAAAAAAAAAAAAAAAAAAAAAAAAAAAAAAAAAAAAAAAAAAAAAAAAAAAAAAAAAAAAAAAAAAAAAAAAAAAAAAAAAAAAAAAAAAAAAAAAAAAAAAAAAAAAAAAAAAAAAAAAAAAAAAAAAAAAAAAAAAAAAAAAAAAAAAAAAAAAAAAAAAAAAAAAAAAAAAAAAAAAAAAAAAAAAAAAAAAAAAAAAAAAAAAAAAAAAAAAAAAAAAAAAAAAAAAAAAAAAAAAAAAAAAAAAAAAAAAAAAAAAAAAAAAAAAAAAAAAAAAAAAAAAAAAAAAAAAAAAAAAAAAAAAAAAAAAAAAAAAAAAAAAAAAAgNmDAwEAAAAAIP/XRlBVVVVVVVVVVVVVVVVVVVVVVVVVVVVVVVVVVVVVVVVVVVVVVVVVVVVVVVVVVVVVVVVVVVVVVVVVVVVVVVVVVVVVVVVVVVVVVVVVVVVVVVVVVVVVVVVVVVVVVVVVVVVVVVVVVVVVVVVVVVVVVVVVVVVVVVVVVVVVVVVVVVVVVVVVVVVVVVVVVVVVVVVVVVVVVVVVVVVVVVVVVVVVVVVVVVVVVVVVVVVVVVVVVVVVVVVVVVVVVVVVVVVVVVVVVVVVVVVVVVVVVVVVVVVVVVVVVVVVVVVVVVVVVVVVVVVVVVVVVVVVVVVVVVVVVVVVVVVVVVVVVVVVVVVVVVVVVVVVVVVVVVVVVVVVVVVVVVVVVVVVVVVVVVVVVVVVVVVVVVVVVVVVVVVVVVVVVVVVVVVVVVVVVVVVVVVVVVVVVVVVVVVVVVVVVVVVVVVVVVVVVVVVVVVVVVVVVVVVVVVVVVVVVVVVVVVVVVVVVVVVVVVVVVVVVVVVVVVVVVVVVVVVVVVVVVVVVVVVVVVVVVVVVVVVVVVVVVVVVVVVVVVVVVVVVVVVVVVVVVVVVVVVVVVVVVVVVVVVVVVVVVVVVVVVVVVVVVVVVVVVVVVVVVVVVVVVVVVVVVVVVVVVVVVVVVVVVVVVVVVVVVVVVVVVVVVVVVVVVVVVVVVVVVVVVVVVVVVVVVVVYQ8OBAAAAACA/F8bQVVVVVVVVVVVVVVVVVVVVVVVVVVVVVVVVVVVVVVVVVVVVVVVVVVVVVVVVVVVVVVVVVVVVVVVVVVVVVVVVVVVVVVVVVVVVVVVVVVVVVVVVVVVVVVVVVVVVVVVVVVVVVVVVVVVVVVVVVVVVVVVVVVVVVVVVVVVVVVVVVVVVVVVVVVVVVVVVVVVVVVVVVVVVVVVVVVVVVVVVVVVVVVVVVVVVVVVVVVVVVVVVVVVVVVVVVVVVVVVVVVVVVVVVVVVVVVVVVVVVVVVVVVVVVVVVVVVVVVVVVVVVVVVVVVVVVVVVVVVVVVVVVVVVVVVVVVVVVVVVVVVVVVVVVVVVVVVVVVVVVVVVVVVVVVVVVVVVVVVVVVVVVVVVVVVVVVVVVVVVVVVVVVVVVVVVVVVVVVVVVVVVVVVVVVVVVVVVVVVVVVVVVVVVVVVVVVVVVVVVVVVVVVVVVVVVVVVVVVVVVVVVVVVVVVVVVVVVVVVVVVVVVVVVVVVVVVVVVVVVVVVVVVVVVVVVVVVVVVVVVVVVVVVVVVVVVVVVVVVVVVVVVVVVVVVVVVVVVVVVVVVVVVVVVVVVVVVVVVVVVVVVVVVVVVVVVVVVVVVVVVVVVVVVVVVVVVVVVVVVVVVVVVVVVVVVVVVVVVVVVVVVVVVVVVVVVVVVVVVVVVVVVVVVVVVVVVVVVVVVVWFPTgQAAAAAADyf20EVVVVVVVVVVVVVVVVVVVVVVVVVVVVVVVVVVVVVVVVVVVVVVVVVVVVVVVVVVVVVVVVVVVVVVVVVVVVVVVVVVVVVVVVVVVVVVVVVVVVVVVVVVVVVVVVVVVVVVVVVVVVVVVVVVVVVVVVVVVVVVVVVVVVVVVVVVVVVVVVVVVVVVVVVVVVVVVVVVVVVVVVVVVVVVVVVVVVVVVVVVVVVVVVVVVVVVVVVVVVVVVVVVVVVVVVVVVVVVVVVVVVVVVVVVVVVVVVVVVVVVVVVVVVVVVVVVVVVVVVVVVVVVVVVVVVVVVVVVVVVVVVVVVVVVVVVVVVVVVVVVVVVVVVVVVVVVVVVVVVVVVVVVVVVVVVVVVVVVVVVVVVVVVVVVVVVVVVVVVVVVVVVVVVVVVVVVVVVVVVVVVVVVVVVVVVVVVVVVVVVVVVVVVVVVVVVVVVVVVVVVVVVVVVVVVVVVVVVVVVVVVVVVVVVVVVVVVVVVVVVVVVVVVVVVVVVVVVVVVVVVVVVVVVVVVVVVVVVVVVVVVVVVVVVVVVVVVVVVVVVVVVVVVVVVVVVVVVVVVVVVVVVVVVVVVVVVVVVVVVVVVVVVVVVVVVVVVVVVVVVVVVVVVVVVVVVVVVVVVVVVVVVVVVVVVVVVVVVVVVVVVVVVVVVVVVVVVVVVVVVVVVVVVVVVVVVVVVVVVVVRX27nUtbaUNA/ClIhYVrQLu6haVWkERxbqt5vyP6vNbP1dXK0lmDIn3fQTJGzJ55s1kAAAAAAAAAAAAAAAAAAAAAAAAAAAAAAAAAAAAAAAAAAAAAAAAAAAAAAAAAAAAAAAAAAAAAAAAAAAAAAAAAAAAAAAAAAAAAAAAAAAAAAAAAAAAAAAAAAAAAAAAAAAAAAAAAAAAAAAAAAAAAAAAAAAAAAAAAAAAAAAAAAAAAAAAAAAAAAAAAAAAAAAAAAAAAAAAAAAAAAAAAAAAAAAAAAD4EIc3Ww8vg36/0e8NmqtrRz+U5APdLtyvfv+n+v3B+sPWr7OKn++XBd5RvYt+crAy12vMXp6+PvavV+4NMQCQxdlB87ib/Etrvrc63FCc6DZuHvo/a/8u/2JjZXxb3ZPuJbzjoFo/8u/H7d+GmLurtWmaoe6N91eu+v3H40a/9/I2e942OH3kU+jX1sNLr984fuz3r1b2x3tTdXTbC/vNQePp9Pz8/PSpcd3cr3xvZboaW8Odr1fPM6fzb+U/fbxe/zY+VBQ+s93Ra+uP4aF7vePpFdOX/X77j9XvPK7uVfO0F2qC+XtmKnO1t7d6f/yRt2ZG0/Ab/7L2/fX3Y1x8Ht14LRDfj/HoefG36rdfv0/HvG732/X8fwxY573VI9fuA+bTW1en/xFRLp5HvzQW+ZQOV5/eyw+d3qbbI9Lz6v65/k71a8f7VZw5Hcvl79usxrU+Wu++9xvfKTYdH63M/rl30e4vfTFUxXwGLT3/uXfReh0VG46Xb+bm//Lb/Xnl6RjVsHn6lyZPt3d/q0Z8MkdznYkSxPnIoyvCA2u0OFH124PK9XU2pfIJvFbgSi/fz05yqt2Vwqanhw+n7x1d/fle3z1S72Kn8V7vInlaPSzq8E6a5+/+dhdf9N0j+fL+vfn2ePylUHwiC4+TZ4h204q+sPau6hNXv9XbrdS5Lz9J5ZMYl3+GdjrlI8ykvYvu+p4xq7DeRb03LOLwxv3WRIdXaxwsu5jBDQeT3ZvJ05Z5NZ/EUSPdMuP2yDupcM5eOqmq37quUm7Ykcknclzy6zyeSTfCfPiig2F/8kGwPhDdA8f29RSD4PGH91Vv0qznu9wR3QMHlF5r8vL//GbBEp/AdrOeOkacr6lbGMv73dTV7zQrM3HamJfJJ3NT6snpIO0XyJcfe75Hz+kOsLPuQ/3iehe15w997ThM+xnOjBUbAe31Ug4e89IJlXewmClH9A+VLoDd2Ux7qlxWZWfvVVvKTKhR4qu8lmGMqfU+7mOaLL2LC429UL2LnfQ/j9bch02czuZa6X+81x6PgfwYddIPHo+7CkeVbQ+yJqeuaW3+R9a3Tsbqt5qViA3bFxL5pFmgtHO1s362M178qKb7ZrbexfGJESyAk2zbSv3cnOofR3vLlQ1heJqp/PWRaTXVdXSZI0oMfAaSM7b2c1R/tgrLbL8K5BN7LusYc5f1jFujj1gsvH2VtXfRXjKG5baUtXdRu/qABYPZG1tJ3x4OuW2s1DM/H02rqaqddq4oMesTrVyJJt/67oub0lfgsC2PTx5UhqW8xludPJOV+OFnN0/vomelez631zmqf3c01T+ORSvd8z4fHnOUv32vgFTSQ94FxhdDRcxsnDe11kv/NvZFHE/TwivhFV7OeYnvYvfN1vLdhZcW0+bqXVzmqn57bap/HJ19VziPhZ/5Oh1Nu/tQPRuD/FmiPVbHrJ3Ieu7q10blLsFJXRqvdst94zrvSUfuDeTuXRgBc7jpTvUIuNTK++tdFx2z28z9PrZv22oql9t7IcJE3Seq2ewH2U5lvdQ16Anj6RZmlO0C/+jnP+l2xBVhG3P5j6/jjXxW9wEm7i/RovHyeoBb9to3ksVNm5Lk2FI25HbJfcpye7mT+7Ali6f7WLNk6zK2HwOcdK0Traed/33AP1dlx3CWyVaQ+38QKbkvzwW5Z/t2cMgmzEbBM5I7lTIIlSbqB4qZ2k6w7ctLvFqmIYqn7d+VqzfwHOas25E2wlwehLkLW3b+Ky63x2pqB8rtkntGD4GekJI7VfI1XJrQc09tHG5xd620H0DdCOLVbrlfhTrtbpzdQ+aCXRa9i/SWgvUuXmIcXjPYTfssuWfI7cHK/2qdO9XpdoT8w0o995R22wHLXy/rrpCzgnj6dQElur7hok9yHmPf2VG44+vcGNRS2g84BD5EmFYEvGkbomNxuT1J+j4QpiKGnaBxQs89ldvToNXvlnM3/TUxPMOdVp5/FdkPed4z4buW9yF7F13/9pIyGIesfi3482cc9PMbPfcCc3uSfFVQKuFsPnSe0HNPIfRmKq9l3Llg404Mz+Dqk/YG5kIf327Y//560lVNNaurBa1+O/Baqr2LsHetnnuBuT2pSSdIjnru09SKLG1LYUkIz3SjleT1ynboeVngTRe3Lz/rjGoqbv5a4OpfBv0E8cdM6NtWzz2FUejqex9GFcRYpCC5T9zNaQcvfqt8/619uyiET8+XeOFdhz7vwE3VQfALYzv3yVsXteDVDzpvaoa/bR/13AvL7Ukyazd9Su+wGyNQWC0zoccIxb8sXUNnJIJn/A7ysAyXdyf8ic+EfPhuho+O3UNjW2G5PehyiIUI/y9Rk9yLfDI8qCtlN4iTKPTcJ3Ifpfhl2839rC2CZ1SGv9w6u4hw4t8CHl+M9z19g1thuT1JFoMtlvlxGeW+bVgtU1xHp7OrspTbQqz/q5TcJ3D7M0rt2yXbWWZdAK9yy/1qyn/jLzGOzzdwBeb2gBPah0g3rp57Ybn9bdqktJTba7wP5zy53rUSqfbl+k/NvY4Anlnzs/YGgrW0j+Ic352eanG5PakH+ghiL9rLQMm9sNyeJLIJpbYZMVLoub8n2hKR1lGZynAtfufoPJ9N+dVdfop05uNAB9iIdHyrBrjCcnuwpuog3p1rV8iC2lr/n1X7PpUym0kk9+I0o5W+V6IqDFvidw4rU355D2Kd+HGY4/sVKzxeCGbF5fYkCbK31kk94hHquRfUb3+zpb6U1zhuprBa5q+2432T2SrRXrWPwnce3Sl//M9GO/MwLffjaMdn84oCc3vyGOIQ474MlNyL6be/mddyp7wakUOFnvvfrEas/EtpqjCWvavcPIq4GC9Iy30h3vFdWOVeXG5PkoX8h7hXTyT3CvbbE3+0QImdRF+kILn/2fJdxMK3t0tShY1T0Tufmam+vq8RzzxEy70X8fi8jy8wt4f4Qv977HtXci8otyezakxZfY+fKiT3glrN+2V5fkveU9BajGYY88QDfMkRtac6Y5ArLrcn9cO8x3jbTST3Qnz93KMm/K3le55I7sUZRK37cTmKcLv4P/buRC+NZAvAeKu4BIlJZFFGDCjiEo0YjRG32O//VJO7TH53ZnIDmao651Sd73sCuujq/lP0ArwNLC0mayXpsWXD+MrelKOcmtsj3GMwE5i8yF1jvf1bVwwz5dmNCCu4Q/X/kDXt60LbebyEaQt3B9fdMPv19tKuWYY/cfEy6ec74TCn5/Z6Evopn2rkXqrb60PuQKE8W5FxBWvuP2yYeNj3chiEUQd3G1haTNbMOM2maT9fk2dX6Lk9+A+PjbUauSv0WuaoyYIi5dlqjdzL/dn0ikHw0mrL6vd7nnjLQ180ltoIzxzn9Nxevw37mLtC03eM3BXcXl8w1JRjAzFYcLXMD0p9g0E3g9PBYA11x2jH6PfbS/2HSui1Mo+JP99rjnN6bg+9OfhYavq+9NkpxN1ef2wx2JRhe3KwYM39bx0lH/TP9gfhHHMX/e/Ks/ENH6Um5CMHOj231+1R0K/OQ7H5y5r7907kjprcOk45dl0jd71+Sz7mW+bH4LmBuaPUGNj8gpPfetw5sz0JG6cc6dTcHviWnangBGbNXXq9vY5xazuRfKuStEDufyn91d32L3JfhtyRMvr4knHyDb8xPgl3ONLpuT3s/dF7khMYuYu7vT5nvCm/+rLLncj9z70kH/Gm9SGYAe5YHZr8r73XTb7hn4I+4GPyz/eWI52e28Nej3ktOoPHyF30OplvfWHAKb/WhW2B3P9U+gsoG8ZPBWergDtauxa/YYHb34NePiXww+KJI52e2+tuyP2HE9kZvIzcT4QPmlzHRvm1K20L5P4/bQgMuPGXOr+B2/FasvgND41vt8APizsOdXpur+ujf/5ZW13hz+pe7tJu52GtlGHy76zkqZCy/3f8ZnoE+odwu/BfaffpN7tj/IdFm/czKro95BaDI/Ep7Fzu4m6v3zMlKbuu5HHBmvv33gkM973pETgB22auGUnUhcB27xv/z2fAsU7P7SGvj/4sP4ddy13hfMBbFii/NJ6hjdz/SOKRBSeWB2C/C7ajXs67Ye87fiWw3SEPY5awwg3HOj23h9BsV2ESO5a7xjoO706l/HrR4AVXy/y3Le/HpWusXfz/K2PjMJbYB2cc6/TcHnIIvNeYxG7lrvL/K3eOU349qvCCNff/JPHA2mPD2z9tQ+24fei5PMSEPCj9yfbFGrg9uHPbR+i/5/R57l91BptpSdl1qeML5P7vtm2ftZL3gLRjN3R5iJkZ3wl5PaOi20NeQretM4tdrrkr3e/0yLyk7LpT8gVXy/yrFdtnrdTt4GwHX/cHga0OeTKExNWCnzjW6bm9Hts+QiN3zd9I9SUTk7JL7fU3rLm7h3tvgrOj1zD3AJOmwFZvBny+JYHP95ZjnZ7bQ16deqU1j93JXesnEi9ZIOCO3IH74idymJ2gbeAO3HF7JLh/VZvHS77e6LmtNtATpiYBd+QO3BfrtomyE3R4C9yBO26PA3fF90x4kntrRXGcmZsE3JE7cF+srZpSZO1NgMAduKu6PQTumgepJTdXy2i6PeQOCCKHcEfunuE+6mDsJFl7SgJwB+6qbg+B+6bmTPay5q7qdtPPSyYyCHf3cvcM9yuInah14A7ccXsUuA9VZ7IPueu6vf6KAgm4I3fgvkiDNYSdqGvgDtxxexS4r+tOZQ9ybykv4dxXRMAduQP3BXqqKVHdEXAH7rg9Btz7yh99soHbE8cbZQi4I3fgvkjPjZpSZet1P8DdOdy13R4C90r70Vely13d7fWgIgLuyB24z28ZXqfrQw+4A3fcHgPuD9of/rHoq2VaF+r/T/YqIuCO3IH73Gbo2s2/v8DdNdz13R4E9xP1T1/ymrv+envQzkHkF+6O5e4V7merNXn5zoG7Z7gbcHuQzYb6H79cuRtwu703TRPlAXe/cvcK9zfYOmkNS9dtAnfHcLfg9iC4bxjYgFKvltG/TuZbMxBIwB25A/e59Q+xddosPZsYuPuFuwm3h10N8WhgA8pcc7ew3l63Tysi4I7cgfu8tpF14jqG3pYO3N3C3Ybbw+D+2sIWTEa4PU0vGJCAO3IH7nPb7yLr1L0H7sAdt0eA+7qJTShvzb13YWJgP1VEwB25A/d5XePq9Cd64A7ccXsEuBs5RZa25t6y4fYGT3En4I7cgfvcprx7SaBn4A7ccXsEuL+2sRFlyb11YWPv4EoZAu7IHbjP76Gm9F0Dd+CO28Ph3hoY2ZCSrpbpWfnXdQ8CEnBH7sB9XsOaJCaTmQU64O4R7obcHvqOnbGVy9+KWXM3cp2MrZv4ifKEuz+5O4R7bwKqRTJz1xVwdwh3S24Phfs7K9txWYjczbjd1GNziTKFuzu5O4T7e0gt05cecAfuuD0c7j0zJ8ky1tzNXCdTt7k1lYA7cgfu87pt1iSTlakE3N3B3ZbbQ+FuaLGhhDV3O243dCMQUc5wdyZ3f3DfAtRSPQB34I7bI8C9d4fcS3Q7C+4E3JE7cJ/bqAOopWocAHfgjtvD4V7N7GxL7nLvHdsZyyv8R8AduQP3eV3habmM3HkF3H3B3Zzbw+Fu5sEy37rbz9vtdvaOzqgiAu7IHbj/vMEanBY8Mdl41hlwdwV3e26PAPeDNnIvbb2dZ7gTcEfuwH1+T2hask0TXzpw9wR3g26PAPdq29Dm5Hu1jCm3L/UqIuCO3IH7z7tp1CTYBLgDd9weA+5nl4a2ZzXTNXdTbu9yZyoBd+QO3Oe2jKVlewbuwN2922PAvZpausovzzV3U26v34A/Au7IHbjPa1aTbMfAHbi7d3sUuFdvLG1Rjmvuttz+1AJ/BNyRO3Cf09lqTcKzyMLKHHD3Anejbo8D9+ra0iblJ3dbbl89xX4E3JE7cM9qycpJW8AduHt3eyS49x8tbVNuz5bpnVsavc5BRQTckTtwn3feO8TR4jUNPDkBuPuAu1m3R4J7NTJ1ssxrzd3WevvaDfIj4J5odg2Be0Fw365JPgO/foG7C7jbdXssuFcHptYeclpzt7Xe3p4BPwLurLkD97ntd1G0Qg/AHbg7d3s0uCP3Mty+i/sIuCN34D6/45oUauhfzAncHcDdstvjwb2ampJ7LlfL4HYiR3AvXu5+4D7l3Us6rQB34O7b7RHhjtz/idtNLdq036M+Au7IHbgv0BhC69TpA3fg7trtMeFeHXxE7ridCLj7lbsbuA8RtFab2t89cC8d7sbdHhXuyP1X3W7rOhncTsAduQP3hQ7eEwCt1QS4A3fXbo8Ld2Ny/2Bc7mdPuJ3IHdyLlrsXuL/Hz3ppP7MYuJcNd/Nujwx31txxOxFw9yt3J3C/bdak1jFwB+6e3R4b7qy55+p2nidDwB25A/fF2kLPmtNH+cQO3EuGewZujw53a2vuR7h9Mbf3KiLgjtyB+wKNOuhZsy3gDtwduz0+3I3J/YtRubPeTuQY7sXK3Qfcr7Czak3dhSbgXi7cs3B7Argjd9bbiYC7T7m7gPtBGzvrpjt5gHuxcM/D7SngjtxZbycC7i7l7gLuTzXpNgbuwN2v25PA3ZrcB7j9525vgT0C7sgduC/WTaMm3RoHwB24u3V7Grgj95+7/RXr7UTu4V6k3D3AfRk4q7cC3IG7W7cngjtyx+1EwN2f3B3AfSa+n3QGG3m0LTckfeAO3L26PRXcjcm9aUjuuJ0IuJcq9/Lhfia/g33K5dsXfEzmHnAH7l7dngzuyB23EwF3b3IvH+738qevfjZf/1exQbkE7sDdq9vTwb0aIHfcTgTcXcm9eLifHorvIxkdpve7YqNyA9yBu1O3J4Q7crfv9hnKI+CO3IH74m2L7yGTHt//DzoG7sDdqdtTwr2F3HE7EXD3JPfS4S64pPxHOzl9//trYvNmH7gDd59uTwl31tz/2i1uJwLuJcu9dLgfi+8er/LaAS7EBmYLuAN3n25PC/fWoGlpW7XljtuJgHvZci8c7lPxM3x7mtcOcCS25N5Uu4QIuJcF9912bqeM5cST+Atyt+n2NdxOwB25A/dfaiy+b1zktgdciw2N2jkMuBcF9/zcnhruLeSO24mAuxe5lw33ofie0d3PbQ8YiDFoDNyBu0u3p4Y7a+7f3T7GCUTAvfAZWTTcexPxHSNDH8ndBqB1FRFwLwjuObo9PdyNyf2jktxxOxFwL39OFg33TfkTVj+/XeBA7D6AFeAO3D26XQDurLnjdiLg7mNWlgz3W/mHLWzmuA+cS41OR+lnDXAvBu55ul0C7qy5V33cTgTcHczLkuH+VnyfuOvluA/IPXpnD7gDd4duF4G7Nbkf4HYi4I7cgfuvNOqI7xLDPHcCsQcx3LWAO3D353YZuDuXO24nAu4+5mbBcL8S3yHGme4E62JL7p+BO3D353YhuFdHH/zKHbcTAXcns7NcuB+In+Ub67nuBQ9SI3QO3IG7P7dLwd2Y3A8F5Y7biYC7l/lZLtyfxPeG62z3ghupIWqrPOYeuJcA94zdLgZ3t3LH7UTA3c0MLRbuNw3pfaF7lO9uIHbaU/EjcC8A7jm7XQ7uTuWO24mAu585WircW0viu8JJxrvBjth1r2fAHbh7c7sg3K3JXeSla7idCLg7mqWlwv03+VPUac77wbLUMM2AO3D35nZJuFu7Q1VA7sbcPqyIgDtyB+6/2pn8yetN1rNwKDVMGk/eAe65wz1zt4vC3d2ae/8FtxMBd0dyLxTu9+J7wepZ3tPwUWqgpvLbBtwzh3vubpeFuy25N1LL3ZbbuzuQjoA7cgfuv97pofhOkPt1je+kBuoKuAN3Z24XhrurNXfcTgTcncm9TLhvi+8CL7lPw9ZEaEctyUUAACAASURBVKQ68vcCAPes4Z6/26Xh7kjuuJ0IuHuTe5FwP+qK/x/8O3v3opXWuYVhGLcnVIwaDopKREAEBYkHJDZGuf+rajraMbp3Nx2NNnxrHt73CuI/nawnS2Ddu99D2cd59R8GAO6e4R7A7XK4p5E7bicC7unkHhLuffn8+/73sHEjOqtZBbgD91Ru18O91JplkDtuJwLu+eQeEe4T+bOXNk4DLOKR6rQegDtwT+X2AuCeQu64nQi4J5R7RLjrv9X3JcIiNlSbeA3cgXsqtxcB9wRyH6xY+glxOwF35A7c39mZfPS1cohN3BEdV7UF3IF7JrcXAvfwcsftRMA9pdzjwV32Xu0/e4qxicNH0XntAnfgnsntxcA9uNxxOxFwzyn3eHDfkc/9cRpkFfdEBzYWP6wKuPuEexi3FwT30HIffLX0s9UfSkTAHbkD93c13ZaP/TjKKk7HohP7AtyBeyK3FwV3Y3KvbeJ2IuCO3IH7X9qXD/1rJcwuPomOTPy4KuDuEe6B3F4Y3MPK3Zrb41wDiNLB3Z/co8G9XZPP/D7OLspuuU+kPxZwdwj3SG4vDu5B5c79diLgnlfu0eA+kk/8OtIy3ooO7TNwB+553F4g3EvtgHLH7UTAPbHcg8H9XH65r55GWsZmR3StGwB34J7G7UXCvdS+sXQSP0PuuJ0IuGeWezC4P8vHvRprG/dFx7YH3IF7GrcXCndrcv+G24mAO3IH7n90vya/DLVjbeNA9BmBmfLTXMDdGdyjub1YuJdaoeSO24mAe265h4J7Rf9IjttoXyewKzo45fUOuPuCezi3Fwz3UPfccTsRcE8u91BwP5ZPersZbR3Lolvuys/0AndXcI/n9qLhHkjuuJ0IuGeXeyS4D6/kgz6Kt48fNSdX7QF34J7E7YXDPYzcBxemfo77EhFwR+7A/f09ycd80Yi3j+265ux2gTtwT+L24uEeRO64nQi4I/dAcB905FM+jLiQq5qzGw+BO3DP4XYDcA8h9zJuJwLuyD0Q3F/kM94KuZAt0S33Y+AO3HO43QLcA8gdtxMBd+QeCe69unrC1UnMjRQ9ffYVuAP3HG43AXdr7v2W7d9PBNyRO3D/n/ryAY+CbmRvQ3N+sv/3AHcncI/qdhtwdy5f3E4E3JF7KLhP5M9eqreiruRdsP/4AHcfcA/rdiNwd/1ek2jPfyUC7sg9O9y78unuh13JUw2g6gPgDtwzuN0K3B1/KwtuJwLuyD0W3M/ksx034+6k6G1He8AduGdwuxm4u5U7bicC7sg9Ftwb+tf1ncA7ea5539GsAtyBewK324G7sSeP/qjccTsRcEfuweC+Ix/srBF5Ka81hyj6Hnzgbh/uod1uCO7G5F5/wO1EwB25J4T7dFs+17PQSyn6qO8zcAfuCdxuCe4O5Y7biYA7co8G9335VLvBt/JZcorVHnAH7vHdbgru7uSO24mAO3KPBvd2TT3Ttc3gW7mpueW+C9yBe3y324K7M7njdiLgjtzDwX0kH+ld+LX8RXKO4yFwB+7h3W4M7q7kbsztmyUiygB3y3KPAPdz+XW/3gu/lveakzwC7unhHt/t1uDuSO7tGW4nAu7IPRrct+TzvEywl904ogHuluGewO3m4O5G7i3cTgTckXs4uD/Ip9kZJNhL0bEqLoXA3TDcM7jdHtydyB23EwF35B4P7pUV+TD3UizmfyRnOQLuqeGewu0G4e5C7ridCLgj94BwP5aPcn2YYjHPNFfsMnBPDPccbrcI99JgxdIJ1Q+tu70zAWtEyeBuVO7u4T68kk/yIMlmam7JCf58Adytwj2J203C3bzccTsRcEfuEeH+JJ/ja5bNPND8/aIC3LPCPYvbbcLduNxxOxFwR+4R4T7oqKe4dp9mNS8kB3oI3JPCPY3bjcLdtNxxOxFwR+4h4f4iH2I/z2p+kRzoM3DPCfc8brcK91Lz1arccTsRcEfuIeHe25CP8DTPalYkDy2sLv1pVsDdItwTud0s3M3KHbcTAXfkHhPuffkEXzLt5pHkSJf+OCvgbhDumdxuF+5G5d67svSvwu1EqeFuTu6+4T5ZU8+vVs60mw3JcnamwD0d3FO53TDcTcq9ZwoFuJ0oOdytyd033Lvy8T3lWs5PkkM9Au7Z4J7L7ZbhblDu3G8nAu7IPSjcz+TDe5zmWs7hYwTWAHdrcE/mdtNwNyd33E4E3L9n6pVg4wy4/5QaN/LZHWfbzhPJsS75WeLA3Rjcs7ndNtxLza6p6+MYtxMB9/l875J77vHgfiKf3NdKtu0cKtA7HwH3THD/ZMrtiguQbbgbkztuJwLuv8G9hNzDwX26LR/cfb713JP8eXy5H/kF7qbgbut+++0ucEfuf+f2c4BGVBzckXs4uO/Lx3adcD2nkj9cL/czv8DdEtxtuf1DCbgjd9xOZBLuyD0Y3Ns19dCqpxn381ZxtFcN4J4E7tbcDtyRO24nMgp35B4L7iP5zFZT7mezozjbQ+CeA+7m3A7ckTtuJ7IKd+QeCe7ncgDU2jkX9IPicJ+Bewq423M7cEfuCxvjdiIDcEfugeC+JR/YbSXngg4U70mq9oB7ArgbdDtwR+6L3Z709Z7IGNyRexi4P8jHtd3MuqEK2cwvgXt8uFt0O3BH7txvJzIMd+QeBO6VFfm0jtJuaFlxy72zxGfSAncbcDfpduCO3BfcpjnlfjuRFbgj9xhwP5bP6qKRd0UPTwS1lvfv//Bx+X0D7j7dDtz/qyly/8PtwIzIDtyRewS4D6/kozpkU2lJ5YC7UbcDd+TO/XYi23BH7gHg/iQf1BaLSsA9oNuBO3LnfjuRcbgjd/dwH3TUY6pOWFQC7gHdDtz/IvetefJwO5E9uCN373B/kU9pxJ4ScI/oduCO3HE7kXm4I3ffcO9tqGdUb7GnBNwjuh24I3fcTmQf7sjdNdz78hHts6YE3EO6Hbgjd9xO5ADuyN0x3Cdr6gGNm6wpAfeQbgfu/99wC7cTkTW4I3e/cNd/7cEOW0rAPabbgTtyx+1ELuCO3L3C/UA+nVmDLSXgHtPtwB2543YiH3BH7j7h3pjJh3PGkhJwD+p24I7ccTuRE7gjd5dwP5GPpsuOEnCP6nbgjtx/7xG3E5mHO3J3CPfmWD2YtU12lIB7VLcDd+SO24ncwB25+4P7rnwud6woAfewbgfuyB23E/mBO3L3Bvd2TT2Veo8VJeAe1u3A/e/l/ozbicga3JG7M7iP5EO5ZEMJuMd1O3BH7t/dzv0ZIjdwTy93X3A/l0ugM2BDCbjHdTtwR+64ncgV3LPL3Rfc9W+63GNBCbgHdjtwR+6PvQqvQkSO4J5c7q7g/iCfx/qQBSXgHtjtwD293Ne5307kDO655e4J7pUV+TgO2E8C7pHdDtyzy329xUsQkTe4p5a7J7gfyYfxynoScA/tduCeXO64ncgj3DPL3RHch1fqUazds54E3EO7HbjnljvvkyHyCffEcncE91v5JPpsJwH32G4H7v9Y5Zr77URkDe555e4H7oOOfA48k4OAe3C3A/d/rtGP63a+T4bIK9zTyt0P3F/kY3hhOQm4B3c7cP+Bhv2obufVh8gv3LPK3Q3cexvqIdTKLCcB9+BuB+5577njdiLfcE8qdzdw1184nthNAu5v7diZ24F7WrnjdiLvcM8pdy9w31xTT+Bxym4ScI/uduCeVe64ncg/3FPK3Qvcu/IBHLOaBNzDux24J5U7bieKAPeMcncC9wP58X/l2wYIuMd3O3DPKXfcThQD7gnl7gPujZn89Hn2EgH3BG4H7inljtuJosA9n9x9wP1EfvbXLCYB9wRuB+4Z5Y7bieLAPZ3cXcC9OVaffJVnLxFwz+B24J5Q7ridKBLcs8ndBdx35Qe/yl4ScM/gduCeT+64nSgW3JPJ3QPc2zX1sdfa7CUB9wxuB+7p5I7biaLBPZfcPcB9JD/1W9aSgHsKtwP3bHKf4XaicHBPJXcHcD+Xk2C7yVoScE/hduD+xip93E4E3K3BPZPcHcB9S37kR2wlAfccbgfub77nfufZ7TdtXnCIIsI9kdztw/1BfuAXDbaSgHsOtwP3VHLH7URR4Z5H7ubh3riQn/chS/lbg/KCWqeLmmwu6Nvhcop35fUOd9duB+6Z5I7bieLCPY3czcP9k/y0twpchsHm0e2Hj59Ho1H/elG/dBf0erGo9asFPdYWteHp0tt5+wcQFv6/4if3b0DgHO6+3Q7cE8kdtxNFhnsWuVuHe3NbfdbV82L2YHr4sTue00+HWamk+B3aSQt3524H7u+pMvL42nGB24lCwz2J3K3DfV9+1KMilqB3292Y0w9Ue8c3/gD3JcLdu9uBexq543ai6HDPIXfjcG/V1Qdd139Z2PR4qzqn5QEUuC8P7u7dDtyzyB23E8WHewq5G4e7/q2U++rf/97n2px++Ib7ALhb+r3273bgnkTuuJ0oA9wzyN023Cdr6lMei5+91FvlLTJvafc9hwzclwX3AG4H7jnkjtuJcsA9gdxtw/1Vfsg70t/91h3vkXnbDfcycDcE9whuB+7vl/tn3E4E3K3BPb7cTcP9i/yIb5TPXqp86kDxt3X5roMG7suBewi3A/cMcsftRHngHl7uluE+XJef8JnwF3+yMqe3VX/f5Re4LwXuMdwO3P9FDSdyv/iVvTtRaGJZAjA8HCKgxoUlQXZkM0iUXQEF5v2f6uq993iiR2TSqa7pqvr/J5hpemY+ijCZA1pEceDuXe4lw/1afX13FR95r/mUzNjdpa01cM8BdyduB+7+Z+64nSgW3J3LvWC4z6m/baUzq7brt29guNbAHbjngLsXtwN393LH7UTR4O5b7gXDXf+JcKa26S/4jtSUgXsXuJcCdzduB+7e5Y7bieLB3bXcy4X7W3UZ9Pa09vxzPiaTsvVTvxsLuIvD3Y/bgbtzueN2oohw9yz3cuH+VH1l32lt+dNOTeN3krrewF0a7o7cDtx9yx23E8WEu2O5Fwv3ZfV13RnobPjuHQZP2vfJfxAB7sJw9+R24O5a7ridKCrc/cq9VLj3P6ov6yud/d4/wOBJDZOXHLjLwt2V24G7Z7njdqK4cHcr91Lhvqa+qE8OdZ5xpr4nvKAW0/8DAbiLwt2X24G7xF1tusybxtQAYBHFhbtXuRcK9xX9t67M62z3BQiuPXAH7qJwd+Z24O5X7ridKDbcncq9ULjrL/a9zm6/rilt4L4O3IuAuze3A3e3csftRNHhXpjctzzDfa+nvZ6dW5XNPs/7ZBKb5B37wF0O7u7cDty9yh23EwF3l3IvE+76/795oLLX15dqShu4vwXuJcDdn9uBu1SFfQpwagVcEQH3su5MMnIvEu636nPpmXWNrX65j8Db+MUKuEvB3aHbgbtUFzNF3TLeYSsi4O5S7iXCvTulvpZ3Klv9DIAn1plk4A7cpeDu0e3AXajlXmE3jdfgigi4e5R7iXA/11/KM42dfgXAUzuaaOGBu4xiXLoduDt1e12/QFdEwN2h3EuEewtfvqTxv6mDZzUl/niOgXv7cPfpduDu1e3InQi4u5R7kZ9xX9Zfyalu9o3ONy+1NHAH7iJwd+p24C7i9pkibxwL+IoIuLuTe5lvlbnRX8mr3Pv8nDdBJg/cZ4F763D36nbg7tftyJ0IuDuUe5lwP9ZHwvvLvNu8yxtlFDcQcJeGu1u3A/fJ25op9t6B3ImAuze5F/rNqS18rOQ07zbnP1PTm/QfEID7xHD363bg7tntyJ0IuLuTe6Fw39b/pqKljawD9481JXYz6eID90nh7tjtwH1it/eKvn0gdyLg7kvuhcK9OtVfx2HOXb6Kv5M7B+4tw92z24G753n79+5AFhFw9yT3UuF++Ul9GRePM+5yBu7J7U68+MB9Mri7djtwdz1vR+5EwN2b3EuFexsj6t18m/y8ptQugHu7cPftduDue96O3ImAuzO5Fwv36i/9ZZzPtskP8HeLv04B90ng7tztwH0yt5t4yy1yJwLufuReLtxn9Z8I2V4JOejV1NrAHbhPAnfvbgfu3uftyJ0IuLuSe7lwb2NKfZ1pj7/C36lNCSw/cE+Hu3u3A/cAbkfuRMDdj9wLhvuG/ph6aTvPHr8H4KktA/c24e7f7cA9gtuROxFwdyP3guFevdNfxJMs+2Rlsaa0vkisP3BPhXsAtwP3EG5H7kTA3YvcS4b7ygf1NczzSki+NTW5LYn1B+6JcI/gduAew+3InQi4O5F7yXCvnuuvYZZXQg4BeGL7XeDeHtxDuB24B3F7XU+jLSLg7kDuRcO9v290xPtLn2pKS+YFncA9Ce4x3A7co7i97iB3IuDuQO5Fw7260F/Cz4fiW2QOgCf2UWTgDtyT4B7E7cA9pSub/7aD3ImAu325lw336qn+EsrvFb42NbUrmR8AcE+AexS3A/c4bkfuRMDdgdwLh/u6/h9k5V8JuYbAE//60QfubcE9jNuBeyC3f5N7F3IRAXfbci8c7irH93PyH4Q8geBprQr9AID72HCP43bgHsntdT1E7kTA3bbcS4f73JL+Aq4Lb49dCJ7UE6GBO3AfG+6B3A7cQ7kduRMBd+tyLx3u1bX+Aj4V3h37NaX0RuoHANzHhHsktwP3WG5H7kTA3bjci4f74RP9BVyW3RzvMXhK76UG7sB9TLiHcjtwD+Z25E4E3G3LvXi4V/P66/e5L7o3dkB4SptiPwDgPhbcY7kduI/V6qKDWwtyJwLuhuVePtyrG/31WxPdGjM1jd8nuRfqA/dx4B7M7cA9nNuROxFwtyx3A3A/1n9W7AwEN0YfhLf8yxNwHwPu0dwO3OO5HbkTAXfDcjcA92qov3wLTNxb7pngN9gC9+ZwD+d24B7Q7d/k3odeRMDdptwtwH3b+Csh+Yx7y5cscG8M93huB+4R3Y7ciYC7WblbgHt1qr96R4LbgrfKjN+HS+DeAtwDuh24h3R7XZ8hdyLgblLuJuB+2AJ9L+R2Be9xb/mKBe4N4R7R7cA9ptvrDnInAu4m5W4C7tWV/uLty93V+ebUdgfuwL0h3EO6HbjHdDszdyLgblTuNuBe3esvntxrxE+A+Lhdi16UwL0R3GO6Hbg36o0/tzNzJwLuJuVuBO6zHfW121mR2hJrQLy1tQfujeEe1O3AParbmbkTAXeTcjcC9+pMf+1eSO2ICyQ+ZqeylyRwbwD3qG4H7nHdjtyJgLtBuVuB+4b+KyF7e0IbYg6JtzpwB+4N4B7W7cA9sNuROxFwtyd3K3CvXusv3YHUhviExVtlG3B/FO5x3Q7cH22z4/hmg9yJgLsxuZuB+6W+fjvnQvthWNMYLQ2AuzLcA7sduId2O3InAu7W5G4G7tUb/ZX70pXZDlc1jdEL6csRuD8C98huB+6x3Y7ciYC7MbnbgXv3L/2VeyOzGwaLNTUfuM8Bd124h3Y7cP9zzzvu7zgHyJ0IuBuSux24V7f6T5BnQv8leV9T496JX4zA/Y9wj+124B7d7XV9hNyJgLsduRuCe3Wgv3CvZY78FRxvXG8buKvu5OBuB+7h3Y7ciYC7JblbgvtGT1+RMq+EHPRqatiC/KUI3P8A9+huB+64ve4gdyLgbkbuluCu8oj9pTOzfyxg4A7cG8A9vNuBO25n5k4E3A3J3RTcL5+pL1vnVuTI+fLUpt1luBCB+4Nwx+3AHbczcycC7obkbgru1ab+sgk9cj9D8mYD9w3grgh33A7ccTszdyLgbknutuDe/aK/bFciR76KyRs1neMyBO4PwB23A3fcjtyJgLspuduCe3Wu/zD5dCnyK8dHUN5ki+YYuAP3B+CO24H7g611wt19kDsRcLcgd2Nwr470V+1U5MD59tQmnWS5CIH7b+GO24E7bkfuRMDdmNytwX1vRn3RlkSmwN19WP74/tzLcg0C99/BHbcDd9yO3ImAuzW5W4N79U5/0YYiB34e81HYwkoD9yZwx+3AHbcjdyLgbk7u5uC+8kF9zTqzIkc+BOaPtJhn4A7cfwN33A7ccTtyJwLu9uRuDu7Vc/012xU58MGzmtoYuAP3f8MdtwN33P5buR9iMiLgXrTc7cG938KHxedFjpz/T31k4L4O3JXgjtuBO25H7kTA3aLc7cG9jW8hfSJzLz8D53/qLNflB9x/gTtuB+64HbkTAXeTcjcI9+qr/pJdixz4JW+WaWPgDtx/gTtuB+4Pds0/0SN3IuBestwtwn29hVdCbssc+RI+1x+4A/ef4Y7bgfvDbudGVNdfkTsRcC9X7hbhXt3pr9iJzJHPM87SH7gD95/gjtuBO25H7kTA3arcTcK9hVdCLh7zYLQ6cAfuo3DH7cCd29Ojz6xLZEYE3AuVu0m4V2v6C7brcReUNHB/C9w14I7bgTtuR+5EwN2u3G3Cvf9Rf8G2ZA69y/cw/baDjBcecP8Bd9wO3HE7cicC7oblbhPu1bL+en0W+kq9/hEPRd2BO3D/AXfcDtxxe7NukDsRcC9S7kbhXj3VXy+pTcTMXXngDtz/hjtuB+4Pdspd6Kc6yJ0IuBcpd6twt/tKyO+PSN4tozlwB+7/hztuB+7clJi5EwF323K3CneVA/9lAjMtdvBrizwV9QbuwP1/cMftwJ15O3InAu7G5W4W7nM7lsfCFx94Ko7+TnSc9ZoD7t/hjtuBO25H7kTAfey60yXdmHpfrMK9eqW/WoInsn3DU/GfjvJec8D9G9xxO3DH7cidCLibn7kb8+5Ih0/0z2RZ7vD7r/m4zI+B+9u8Vxxwr+svRW2304Lux8C9MLcX9WF75E4E3CPKPQ/cqy39M5F6JeR/O56qSWPgDtxL62VJt2PgXpbbp8v62xByJwLuAeWeCe5VC582WZM8/u7mTk3ZP+EO3HE7cLfj9m51hdyJgHtpcA8m91xwP9a/v+8MRM9g44zPy+QfuAN33A7crbj9+yEhdyLgXhzcY8k9F9yrE/1zWRA+hb3pmTp42QfuwB23A3dDbq+qraLuisidCLhHk3s2uG8vqZ/LzLr0SewNe7Hh/jX7xQbccTtwN+R25E4E3AuEeyS5P/X01MnwuY7L1d3A31rYmQXuuB244/a6vvvnwJA7EXBH7h7h3sYrIS9ynMj6y92oH5nJP3AH7rgduLd27kluR+5EwL3EEw8j93xwr+b1z2a/n+dUVpbv7gO+ZUZh4A7ccTtwN+b20uS+i9yJgHsguWeEe7WrfzqbGU9ncLt5+mJheHB0NBxtYbSXpyOtjbY62vJot7MjrY+2PTfSt99Jho42B3DH7cDdqNsLk3sHuRMB90Byz2mzNl4JueL4atzTfljeAvcwcC/S7XHhXrjbS5u533u+7xMBd+SuN1Qd6p/PC8dX44nDgTtwx+3A3Z7bkTsRcEfuHuHewishe3tuL8YN7VdTagzcgTtuB+4G3Y7ciYA7cncI9+ql/gkdMHAX6kblrIA7bgfuBt2O3P/D3r1uRZFkYQCN1lIcrKZRsBAFRUUb8IYoeMEL7/9UY/ea+TFrVnd7gchzTuzvCThZGZmbr7IiRcCd3AvCff+g+0Cz1wr3RIU7uHM7uP9vfs/h9mhyv0TuIuA+hNwv+DnmO/0nOp3XXIuXSxbu4M7t4B7Y7Tf/7k8ldxFwJ/dqcG9f+o90W+F+Hun0zQW4czu453Q7uYuAO7nXg/vSrPtIyyUv359rFu7gzu3gntXt5C4C7uReDu7tqP9MqwVX4k7vwv0NuA8B99BuHw/uydze2ga5i4A7udeC+7YtITMW7o96DQbu3A7uad3+Ve63Iv3J5C4C7uXlfvEv2VntP9RRvcK9978/vQp3cOd2cI/p9m98mR25i4A7udeC+/FJ96Fmn6otxN6nYLfCHdy5Hdwzu73NyV0E3LGpFNzb7f5T/VJsS8i6hTu4czu4Z3a7zl0E3Mm9Gtznl/qP9a7WOux9S//SbzRw53Zwj3eTWf2eP/0NuYuAO7kXgnv71H9LyJPjSstwr27hDu7cDu7J3R5N7r+Qu4A7uBeWew+4tyf953pVaRn+2vng9aQMuHM7uLf55VAnx+r3/v3B5L7HbgLu4F5W7l3gvtv/qr6+rXD/4WyAe3m4p3D7MHDP7nZyFwF3ci8F9+6V8dc8U7j/8F2v53Dgzu3Dwz2/28ldBNzJvRTcN5e7DzZbUrgnKNzBnduHh3sFt5O7CLiTeyW4t3v9J3tUZRGuVi7cwZ3bR4f7/LDGyRFL7o+v8ZuAO7iXlHsnuM9P+492o8Ya3HxYuXAHd24fHO7R3P7j78B4Te4i4E7uVeDeXvffEvKgxpaQK6ULd3Dn9rHhXqVvJ3cRcCf3UnBvT/vP9l7h/gO5D+614Z7I7QPAvZLbv8p9PdIw5C7gDu4V5d4N7ltXu8+2vqNw//6b3bzvfODO7QPDvZbbW3tD7iLgTu5F4D7FgTtUuEcv3MGd2weGezW369xFwJ3c68B983n34dZepl+Br4oX7uDO7ePCvZ7bde4i4E7uZeDervefLv2WkN0L9+5b8YA7t48K94pu17mLgHvABHtdRhq4Lx73H+9+8gX4vnrhDu7cPirca7q9zYPJfYfjBNzBvZTcO8K9vek/3tv91OvvuPfjRf33vgd3bh8T7rHcPjvHPbjIXQTcyb0G3NvH/vP9lnr91S/cwZ3bx4T7/FlVt5O7CLiTexW42xIyeOH+rv+M4M7tI8J9/mwW6NyYnfNdmNxFwJ3cS8C9fe5/R7qcePn91vlgvViAe1m4Z3R7XbgH69vP/SZM7iLgTu4l4L73sPuAaw/yFu7LnY/VBIU7uHP7gHCP5vbzf0RuidxFwJ3cC8C9e4fcf8LEB+vtBIU7uHP7eHCv3reTuwi4k3sV1i5e9B9xI+kJtn8yQOEO7tw+HNwXR/XdHk3uL8hdwB3ci8i9dx+90X/ESYrkc8jdIY4TuHP7YHAfw+3kLgLu5F7jQZJ/9Z/xrsL9W3JnkjHBndvHgvsobid36GqYOwAAHndJREFUEXAn9xJwf7DWfcaHewr3sF9MgDu3DwX3cdxO7iLgTu4V4N4mOGQ3Fe7/nNvTzAnu3D4S3BdPxnF7NLm/3UY6AXdwzy/3/nC/1n9LyKtb+c6s62MU7uDO7SPBfSy3t/aS3EXAndyzw32KLSGfpjuvFlc6H6KJCndw5/aB4L54Uvl9qTp3EXAn95JwX7ztP+abbKfVvc4H6MpUW++AO7cPA/fR+vY/5f4w0sxXyF3AHdyzy32K1xPd7z/m42RbQvYv3OcTTQru3D4K3Ed0O7mLgDu554d7+9B/znsK97/LwWT/2IA7tw8C9zHdTu4i4E7u+eE+xZaQmwr3kP/XgDu3jwH3Ud3e2ktyFwF3cs8N9/as/6C/Zjqhbg9TuIM7t48B92Bu7/pWOp27CLiTe3K4X+u/1cCt3USF+4txHiQCd24fAe7R3N73Ny06dxFwJ/fccG+v+k/6ROEesHAHd24fAe4j9+1/3B/JXQTcyT033Pev9L9ZvU5zLvUu3K9POCy4c3t9uAdz+wTfsJG7CLiTe2q4t3f9Rz2dJzmV7nQ+MCf74F4N7jXcXgXu3E7uIuBO7snh3h71n/V2khNppMId3Lm9PNy5ndxFwJ3c08P9Zf8tIZdzbAnZ+8uI5SkLd3Dn9upwj+X2tcl+if7gObmLgDu554V7O+o/7GqKs+hx56Nyd9JxwZ3ba8Od28ldBNzJvQLcd2wJqXAHd24vDvf9j9z+3/sjuYuAO7knhntb6T/tUYJzaKzCHdy5vTTc9z/OuF3nLgLu5F4B7vsH3aedfQp/Bt3oXbgfg3spuFdye36469sjy/2A3AXcwT2f3CeEe/dtD7/ml/BbQp52PiJTLz9w5/a6cA/m9gD7agXr3HebCLgPD/dscp8S7u1S/3nfBT997nc+Hs8nLtzBndvrwp3bo8v9hNwF3ME9m9wnhftS/8c/T45jnz2jFe7gzu1l4R7N7YsQnym5i4A7uaeFe5tgo7TflyLn+miFO7hze1W469vJXQTcyb0Y3LdvncmUmX7xgTu314R7NLfH+XkPuYuAO7lnhXtbZecpM33hDu7cXhPu+vY0ct8iPQF3cE8k94nhfnxCzxPm/fRLBdzPze3zehfSvHDf/xe3k7sIuJN7ObjPb9PzdHm4Ce5l4L5S8TqaFu7cTu4i4E7uFeHe5pfOZODCHdz17QXhzu255L5M7gLu4J5G7lPDvb2encm4hTu469vrwZ3byV0E3Mm9Ktyn2BJS/syrCMsE3PXt1eDO7d+SLXIXAXdyTwn3XVtCDly4g7u+vRrcg7k96sui5+QuAu7knhLuXW7OErRwB3d9ezG4c7vOXQTcyb003DeXz2TUwh3c9e214H7M7d/euYe69JO7gDu4p5B7ALi3exQ9LvfAXd9eCe7c/j3ZDfUeD3IXcAf3DHKPAPfFKUaPWriDu769Etxjuf3qu+j3R3IXAXdyTwh3W0IO3NOCu769DtyPH3G7zl0E3Mm9PNzbU5DunPW9IOsD3PXtZeAezO03MnzE5C4C7uSeEO5bV1G6b1ajLA9w17dXgTu3/9DF3y9URcA9nNwPwf2fchOlxyzcwV3fXgXuxx+4Pb/cT3a5T8Ad3EN37kHgvvn8TEYs3MH9J/JqXv3SmQnui1i/S72f51MOJvdt8BNwB/fIcg8C93YXpnsW7tfAPT/cV+pfOTPBPdQXq3n69j8S6zn3F3tNBNyHh3tguUeB++IxTvfLr3GWBrj/sNvn9S+cieC+om//ic49lNw/LNBPwB3c48o9CtzbG5wesXAHd317CbhvrOnbf6ZzP4i0tm6in4A7uMeVexi4t49APWDhDu769gpw333I7XXkPnvXRMAd3KPKPQ7cbQk5YuEO7vr2AnBfRDpNsj0n8x+5R3paZt3WMgLu4B5W7nHg3j4jdZ/8HmlZgLu+PT/cIz3gnrFvD9e5PxpkgQm4g3tCuQeC+97DM+mQWzvgnhzuK6NcM5PA/WWgbwtz9u3hOve79CfgDu5B5R4I7u03qB6ucAd3fXt6uM+/cHu1zn3dbu4C7uAeVO6R4L54QdWjFe7grm9PD/d73F5P7kf4J+AO7jHlHgnubQOrLz7BtjoDd317crgHeu3zrY3cn3cguc+W+E/AHdxDyj0U3NsHrh6scAd3fXt2uL/i9opy/8B/Au7gHlLuseD+YO1MLjafgy0IcNe354b7Zpgf1ed3eyi5vwFAAXdwjyj3WHBvh2Q9VuEO7vr25HAPU7hXcHskuavcBdzBPaTcg8H9mi0hxyrcwV3fnhvui+Ug50YNt7e2/TbIAZ09IEABd3APKPdgcG/v2foiczXcJmfgrm9PDfc73F5V7ocEKOAO7gHlHg3ui7dncnG5HG4xgLu+PTXcHwVxe6EnsrevxDim65sIKOAO7vHkHg3u7QZdj1S4g7u+PTXct2P8nr5O3x6pc7+NgALu4B5P7uHgbkvIoQp3cNe3p4Z7jJ+m1nJ7GLn7eaqAO7gHlHs8uNsScqTCHdz17anhfuo5mQuRe4inZdb2GFDAHdzDyT0e3Nszwr6gHAZcCOCub08M950Ztxfu3O8woIA7uIeTe0C476wj9sUU7rvgnhXuK2NeJcPD/R63V5b7EQMKuIN7OLkHhHugV4gr3MFd3w7uf50n3H5hcg/wtMxzBhRwB/dwco8I9/0rZzJI4Q7u+vbMcD/h9gvLToDOfbeJgDu4B5N7RLi3d5R9AXkWchGAu749L9y3uf0i5f5i8sNrQ0gBd3APJ/eQcI/yUpNSWYtZHoG7vj0v3Cd/68T668of//TPuX+GQAF3cI8m95hwf2lLyEEKd3DXtyeG+9Q/x6nct4fo3O3kLuAO7uHkHhPu7Qi0z7tw3wL3lHBfGfn6GB3uE1+nqru9zaeW+wEECriDezS5B4W7LSEHKdzBXd+eGO6XPCdTu3Of7VOggDu4B5N7ULi3FdQeonAHd317YrgfcHvxzt22MgLu4B5N7lHhfnxyJueYsG8SAXd9e1643+L24p37JwoUcAf3YHKPCvd2B7ZHKNzBXd+eF+6b3F5d7vcpUMAd3IPJPSzcJ358VOEO7pPDffS+PTzcdyZ0+0BV8JRyv0OBAu7gHkzuceG+NOPtcyvcH4T9mHs8EpUU7iuujMHhvsvtXXLt8WQH2huYBNzB/S/kfgju/5cnwF2/cO9yifmZm+90cNe3h4f7FrdX79yvW4SSLj2Wy12HecLO/WncY7J9i7jLF+6tR5d2IyPc9e0ad26fvHO/ZxFKupxaGcXl/mTwu/YQifwh9/gpw8+8puYLt0+YHrvC/pu9e11LXefCMMyc7ERBUQRUEEF2IiA7QRDU8z+r5bf5seY1EWiTkTThuY8gjNL27WiSNhV6C+R235M7c9zhni/ODGPJ3c5smQhPoojNT8ncvjfcY+8GCvAR8fGR23+yivZswSc7uT19jH+Fup3kfslJCOdsDJwZZcpssed+FeWS3BC6fW+4x/oGCtCI+CWQ3P6TCwO13ihcs1P02415Wts4E2echHDOwMCZMaLMFpP7KtIVYUtI3xvusa58ARJzhfFNye0Wmfiaw0BhfBbeCV4f7SeBrCT3KichnGNilnGdMltM7tHe7WrGlpCeN9xjNfkCPEf8weLv3M5+Mv/3aqDaOYXxmY+SxzlP5n9szHO/5SSEcwzcVYvcpGwm94i/CeyTu5X7zdF+pTWL9CRmM5M16Lf/pGGg3BcuXZ+Ot99up+f+yDkI9xi4q66pss3kHvH3HS22hFTVj/YRNrC+71NlfJf02y2aF+TrrfJRe9MbXx1zv91Kcv/iHISD58mxv8j3PblHvqHQJXl73XA3MU1YZcPZrPFv7NBv/zcDH9ZVmcVsePn8sed288l9wCkIrptbTCjyH0FhbPS61Ix6PW6HZG+fG+4mVn+2VIZXMrxxCP32P8jvxpkqKQyvYfS/QW43ntz5PCRcJD+Hj+2WbPbcc5GvR43s7XXDXf4AJ9XGZ3ZBHP32P8m/cVOaq5l9JLd7ndzZ8w4uEl+alZpTZIvJ/SHy5Si1Sd8+N9xj99I7B43Vxjcmt1skv8QgrjS+DLnd5+R+XaLecNBI+sz4TY3/Su7mokLhKfrlYEtIrxvusdibcA0Uv314Q263qC5+9qt9uXti7L/xSPPXfHJ/p9pwMkQOuVV53HN3Ys08W0KGt3Hg+ArPhigq7sTcIrf7/FiXuI92Z4vcviW5/zJV9QuKDSdJLx3jcmQzuTuxMriaIoCHTSUOvF3PVmWbqlPVAb6Q2y36FC56W3F8C3K7x8md76bCTQ+yJ8aCPRS2hhlDs2UaTlTjigTuccM9FvstWoNXV/5+7CezjfS3U7uK44uT2/1N7m0qDTeVZJfN56iwxZ67Ix+/YkvIsNz4zGIl2q2BD/rtFvWE921RfSeVJrf7m9zZqxquku39NiiwxZ67KzP4KkTwUDKO3IQlP4+bVx9fktzu7Q0oqTy+N3K7lW7Ol4GZhvfUGY4S7Sj8or4Wk3uq7kgt2BLS54a76Dzmoob/eI7cbtFMtO7qz3UTcruvPfcMVYazJGeg3lFei8l96kwtXgnhPt937uVa7l0Nw2sVyO0Wr4OSLe1CS3l8ou+LyO02e+5ligxnLeVOjGGP8lpM7g7dEDLEcH8b7oIr/HQ03GOxjfSRynO1+5nkRDkd3ycbk9v9TO5vrBaHu0pyUzxXVNdicnfp4xJsCen18RVruXe1DO+V3G4znwkuT51pGF8rRW73MrnXqDAcjo9inw4c3lJdi8n9w6VSxAniNkKJKUIfYXo80TM82U81Mk9mN7k1BnrWWA3I7T4m92SJAsPllrvUJEM+S2Yzubu18ubkkSQeTNOlwzt/jnTPTPRrFvTb93i6jvYkZsGW+5Bt13Ynd8EVeDeUF04rCz3RzimtveRecKyVc0EUD+bVqcMrEo2/tE1SFcwH9Nv3yguV/kvT+LpS/w367XuTe1PsbQwz3OE4maWBDxTWYnL/dKwQpTeyuPlZAOYILABN6WtXphP02+2ZL0RKn9A1WfB2IZTb6bdbS+6JD2oLx1Ul1o5tqKvF5D58cq0Ql4Rx87MAzLl/jHQmnpLbLboTqf0g4uNjnsxByV1mnvuYysJ5K4FuAl8ls5ncHXzd0SSNH27t3OF90N3UbupcXFaXmWfNPBl75/5jXd/4+vTb7SV3iT/Hgo0z4L6S/nODby/ZTO5TB+swSpDHfX4w0/z91KHezoDI3lp5rm6HaQk8N+m8A9WH5HafknvilbLChwvnI8nRo+SedLKfMCWPH6rt4MqqktZvmBd033r75HaLzrQXv6N1fGXdXQXmyQRI7tpny3QpKrxQ1vvZ7xfeRFlM7kU3Nyu4L5LID7R08vieaqyA9o+71U91HyTmyQSge/Hy4kTv+PLkdovJXXPPvckW7vCE1gvTdZWC2kvuCVd3qM2RyA/z5uaNp6FvQoTApkkjzc+Nea5rQbKZ3l2lUmnN4ytp3XptWGUzQnvJfVGnovAlO2qcqJAqU0+Lyd3ZxDA/JZN7vYBkpisbdyRyT4V+u0V6n5vO9GdHjTO9TmlsWUzu1+yeD3/03o++4+tHcnd4eUGNTH7QEgZn3/Qu9czIy8gUQOfy2TzXtIAeNM7WlJjDfL/Ql9vpt9tL7ikWpsKrU0NTSyFRoZYhkntc03Wp7/D8vVKbVH4Ahx+Mlzo+H58RWkGT7ZDbLdK3QLUvEoxbC125nWMd3FxTck9dUkuQ3LfkdtoJFvt9fafX3bySyvd7dvkQv6rPc+/0pAbX0zWRmXkyYUw0VT8j9AepapnKtyC3h0vuWqYEpPigO7xL7hoeagtn1DGkro7Jv46vl8+Qy/equXyAsx+qO8/GBf/impL7hIuZxeSeEXuwayXVR/fW4jiHTO4admy9Zvkd/FNSXqFa5IE2vJryLM+46287GgWC+b437T3HD7FS+imsRAfX0xAOChdcykK60HD6S75zPFHeUfxXnaMc+qFfeduxYZoqwkc5tQ9NLDgxVDyozSNIefC2Y0wy38P5JSS3CuH4Ubpjph4OUnw0OrxL5b1l4qLvHOeKyyCmc46xgoraEpk2bztAdvxbk3aCmtZapRX74UEFTq6J5ruPsvu3/uwqbGP1615+dBdq4cCLs9Ce2VDtqUn8sbZWjPLofJdWWSDc4akJ/mbH36EvS+d8kEy5ozMO/cqjf+JFBSZk8528mIcxCzVdJpU3coFRCgcmHi28VldZaHU6M/D3CP2pqBc2EFf/e4R+XXfNLtXwWbYSrqfwwjQZLZnmOdxlyZdmTi9JON81S9OPrlFvEryv/dtU7qlvQk9vz9O7UFXKhZ7ovqkbaa5chRpg4YqGrw534Va3vzNNBp6rhth4qTjpUTgtnj6D3xcSU38afUvS+Q4rXw7zKOCssOszgwuv78JN2Hqjd6HlrxHucw7mehfpEG+l10yh0vVcHQ/+VnpYY5Nq+O8yYNsz0eENsT6NoA9O65lPP/838fznxZm33hzm7DLAnIPiVd3o4O47wcNB8ZyWqh7z8+AvfY3egrK1gFu6L24Ijvp8BLxFFLu3FA3HoHQXILonMkze02sWZD/plzu/bgrpBAH9J+dHeZEpxs33BWbtoMGRd/H6tII+OJnuXfQqAVbRnq54pNN8dgbYlzM1oKuIo9G7OfBddnFAbBe4MvUPmzCTeH/wrpfTIaD/NBvgybP+wPJ9f0Bb5OpWBldu07uwpxEkutvoXfTuDvzSeLtCbLd3gxxaunoAtnwM9k/1bK9OKJRM0ym3f5nq8LPh4y8vEtG3y/t3sKtXO1uXxU7Z2nrP7MN7gt6FNaNBMeK9i9n+G+T1YMaRlLpB7n1hl9osWXqH4zNfdnas4U60c9ywRG8Mn7suTYtB2dM9LLpE9O0pwMuH5Gw6v94ekJ8HS8uvGBqfQ3oX1tRX+196nFrtXcwvpzv+IKeDS3KjpI+rlx1Xy80ZJyaOVeljstlybSq0xzdMHZNXPZu+bUk1i86Fx89Mt0NC+jZdfyPa5Xk/+a9334nFe/ysGonrX3m8Y1/3xDrf4CIl+eSUW+946/E8tt+7yI4uOsm/xlhIen2Fjo7Wzbj999ayw8z5K89MOPrWx2vlavrebj8/J9u/NuP83YhpewZzbPomN8j8+q7+c3udmXbPZr53Em5PsIXnm4TPW6PyslK7K89G0doFovEdzbb0LtbxmzpXJ/mbz3c02zKfOdmpROeZaT66W312Ns1vm87nivuj2Yfr6uVFd9r/T/Uz/fh5bUanHQCAo5b9fnrOjzdf7Xay3W524pNlg46eOb3GchLvNP9b/a/NOH+TZoM/AAAAAAAAAAAAAAAAAAAAAAAAAAAAAAAAAAAAAAAAAAAAAAAAAAAAAAAAAAAAAAAAAAAAAAAAAAAAAAAAAAAAAAAAAAAAAAAAAAAAAAAAAAAAAAAAAAAAAAAAAAAAAAAAAAAAAAAAAAAAAAAAAAAAAAAAAAAAAAAAAAAAAAAAAADwD3twIAAAAAAA5P/aCKqqqqqqqqqqqqqqqqqqqqqqqqqqqqqqqqqqqqqqqqqqqqqqqqqqqqqqqqqqqqqqqqqqqqqqqqqqqqqqqqqqqqqqqqqqqqqqqqqqqqqqqqqqqqqqqqqqqqqqqqqqqqqqqqqqqqqqqqqqqqqqqqqqqqqqqqqqqqqqqqqqqqqqqqqqqqqqqqqqqqqqqqqqqqqqqqqqqqqqqqqqqqqqqqqqqqqqqqqqqqqqqqqqqqqqqqqqqqqqqqqqqqqqqqqqqqqqqqqqqqqqqqqqqqqqqqqqqqqqqqqqqqqqqqqqqqqqqqqqqqqqqqqqqqqqqqqqqqqqqqqqqqqqqqqqqqqqqqqqqqqqqqqqqqqqqqqqqqqqqqqqqqqqqqqqqqqqqqqqqqqqqqqqqqqqqqqqqqqqqqqqqqqqqqqqqqqqqqqqqqqqqqqqqqqqqqqqqqqqqqqqqqqqqqqqqqqqqqqqqqqqqqqqqqqqqqqqqqqqqqqqqqqqqqqqqqqqqqqqqqqqqqqqqqqqqqqqqqqqqqqqqqqqqqqqqqqqqqqqqqqqqqqqqqqqqqqqqqqqqqqqqqqqqqqqqqqqqqqqqqqqqqqqqqqqqqqqqqqqqqqqqqqqqqqqqqqqqqqqqqqqqqqqqqqqqqqqqqqqqqqqqqqqqqqqqqqqqqqqqqqqqqqqqqqqqqqqqqqqqqoq7MGBAAAAAACQ/2sjqKqqqqqqqqqqqqqqqqqqqqqqqqqqqqqqqqqqqqqqqqqqqqqqqqqqqqqqqqqqqqqqqqqqqqqqqqqqqqqqqqqqqqqqqqqqqqqqqqqqqqqqqqqqqqqqqqqqqqqqqqqqqqqqqqqqqqqqqqqqqqqqqqqqqqqqqqqqqqqqqqqqqqqqqqqqqqqqqqqqqqqqqqqqqqqqqqqqqqqqqqqqqqqqqqqqqqqqqqqqqqqqqqqqqqqqqqqqqqqqqqqqqqqqqqqqqqqqqqqqqqqqqqqqqqqqqqqqqqqqqqqqqqqqqqqqqqqqqqqqqqqqqqqqqqqqqqqqqqqqqqqqqqqqqqqqqqqqqqqqqqqqqqqqqqqqqqqqqqqqqqqqqqqqqqqqqqqqqqqqqqqqqqqqqqqqqqqqqqqqqqqqqqqqqqqqqqqqqqqqqqqqqqqqqqqqqqqqqqqqqqqqqqqqqqqqqqqqqqqqqqqqqqqqqqqqqqqqqqqqqqqqqqqqqqqqqqqqqqqqqqqqqqqqqqqqqqqqqqqqqqqqqqqqqqqqqqqqqqqqqqqqqqqqqqqqqqqqqqqqqqqqqqqqqqqqqqqqqqqqqqqqqqqqqqqqqqqqqqqqqqqqqqqqqqqqqqqqqqqqqqqqqqqqqqqqqqqqqqqqqqqqqqqqqqqqqqqqqqqqqqqqqqqqqqqqqqqqqqqqqqqwBwcCAAAAAED+r42gqqqqqqqqqqqqqqqqqqqqqqqqqqqqqqqqqqqqqqqqqqqqqqqqqqqqqqqqqqqqqqqqqqqqqqqqqqqqqqqqqqqqqqqqqqqqqqqqqqqqqqqqqqqqqqqqqqqqqqqqqqqqqqqqqqqqqqqqqqqqqqqqqqqqqqqqqqqqqqqqqqqqqqqqqqqqqqqqqqqqqqqqqqqqqqqqqqqqqqqqqqqqqqqqqqqqqqqqqqqqqqqqqqqqqqqqqqqqqqqqqqqqqqqqqqqqqqqqqqqqqqqqqqqqqqqqqqqqqqqqqqqqqqqqqqqqqqqqqqqqqqqqqqqqqqqqqqqqqqqqqqqqqqqqqqqqqqqqqqqqqqqqqqqqqqqqqqqqqqqqqqqqqqqqqqqqqqqqqqqqqqqqqqqqqqqqqqqqqqqqqqqqqqqqqqqqqqqqqqqqqqqqqqqqqqqqqqqqqqqqqqqqqqqqqqqqqqqqqqqqqqqqqqqqqqqqqqqqqqqqqqqqqqqqqqqqqqqqqqqqqqqqqqqqqqqqqqqqqqqqqqqqqqqqqqqqqqqqqqqqqqqqqqqqqqqqqqqqqqqqqqqqqqqqqqqqqqqqqqqqqqqqqqqqqqqqqqqqqqqqqqqqqqqqqqqqqqqqqqqqqqqqqqqqqqqqqqqqqqqqqqqqqqqqqqqqqqqqqqqqqqqqqqqqqqqqqqqqqqqqqsIeHAgAAAAAAPm/NoKqqqqqqqqqqqqqqqqqqqqqqqqqqqqqqqqqqqqqqqqqqqqqqqqqqqqqqqqqqqqqqqqqqqqqqqqqqqqqqqqqqqqqqqqqqqqqqqqqqqqqqqqqqqqqqqqqqqqqqqqqqqqqqqqqqqqqqqqqqqqqqqqqqqqqqqqqqqqqqqqqqqqqqqqqqqqqqqqqqqqqqqqqqqqqqqqqqqqqqqqqqqqqqqqqqqqqqqqqqqqqqqqqqqqqqqqqqqqqqqqqqqqqqqqqqqqqqqqqqqqqqqqqqqqqqqqqqqqqqqqqqqqqqqqqqqqqqqqqqqqqqqqqqqqqqqqqqqqqqqqqqqqqqqqqqqqqqqqqqqqqqqqqqqqqqqqqqqqqqqqqqqqqqqqqqqqqqqqqqqqqqqqqqqqqqqqqqqqqqqqqqqqqqqqqqqqqqqqqqqqqqqqqqqqqqqqqqqqqqqqqqqqqqqqqqqqqqqqqqqqqqqqqqqqqqqqqqqqqqqqqqqqqqqqqqqqqqqqqqqqqqqqqqqqqqqqqqqqqqqqqqqqqqqqqqqqqqqqqqqqqqqqqqqqqqqqqqqqqqqqqqqqqqqqqqqqqqqqqqqqqqqqqqqqqqqqqqqqqqqqqqqqqqqqqqqqqqqqqqqqqqqqqqqqqqqqqqqqqqqqqqqqqqqqqqqqqqqqqqqqqqqqqqqqqqqqqqqqqqqqqSntwSAAAAAAg6P9rZ1gAAAAAAAAAAAAAAAAAAAAAAAAAAAAAAAAAAAAAAAAAAAAAAAAAAAAAAAAAAAAAAAAAAAAAAAAAAAAAAAAAAAAAAAAAAAAAAACAW8HNXaf7sJe+AAAAAElFTkSuQmCC;clipPath=inset(32.5% 10.67% 32% 10%);imageBorder=none;" parent="I1IXjIapEW5mU9hD-b8A-19" vertex="1">
          <mxGeometry x="54" y="70" width="234.65" height="70" as="geometry" />
        </mxCell>
        <mxCell id="I1IXjIapEW5mU9hD-b8A-22" value="&lt;font style=&quot;font-size: 15px;&quot;&gt;VPSのグローバルIP&lt;br style=&quot;font-size: 15px;&quot;&gt;xxx.xxx.xxx.xxx&lt;br style=&quot;font-size: 15px;&quot;&gt;&lt;/font&gt;" style="text;html=1;strokeColor=none;fillColor=none;align=center;verticalAlign=middle;whiteSpace=wrap;rounded=0;fontSize=15;" parent="I1IXjIapEW5mU9hD-b8A-19" vertex="1">
          <mxGeometry y="150" width="140" height="30" as="geometry" />
        </mxCell>
        <mxCell id="I1IXjIapEW5mU9hD-b8A-23" value="" style="swimlane;startSize=0;" parent="1" vertex="1">
          <mxGeometry x="2400" y="1212" width="296" height="200" as="geometry" />
        </mxCell>
        <mxCell id="I1IXjIapEW5mU9hD-b8A-24" value="WARP接続用サーバー" style="text;html=1;strokeColor=none;fillColor=none;align=center;verticalAlign=middle;whiteSpace=wrap;rounded=0;fontSize=21;" parent="I1IXjIapEW5mU9hD-b8A-23" vertex="1">
          <mxGeometry x="20" y="28" width="144" height="30" as="geometry" />
        </mxCell>
        <mxCell id="I1IXjIapEW5mU9hD-b8A-25" value="" style="shape=image;verticalLabelPosition=bottom;labelBackgroundColor=default;verticalAlign=top;aspect=fixed;imageAspect=0;image=data:image/png,iVBORw0KGgoAAAANSUhEUgAAC7gAAAfQCAMAAABlzOIIAAAABGdBTUEAALGPC/xhBQAAAAFzUkdCAK7OHOkAAADDUExURUdwTACZAACZAACYAACZAACZAACYAACbAACWAACZAACZAACXAADRAACZAACZAACZAACZAACZAACZAACZAACZAACZAACYAACZAACZAACbAACZAACYAACYAACZAACZAACZAACYAACZAACZAACZAACZAACZAACZAACYAACYAACfAACZAACZAACZAACZAACZAACZAACZAACZAACZAACZAACZAACWAACYAACYAACZAACZAACZAACZAACZAACZAACZAACZAACZAHFkXU4AAABAdFJOUwDGw5D92PkzEbLhYwGAeWx9TYj77/UDRFkLVmYiGWBKFCjpvB7No4UPBtyqmOXRLpN1njo/CN/VUnC3ya82i8BeWu9dAAAgAElEQVR42uzBAQEAAACAkP6v7ggKAAAAAAAAAAAAAAAAAAAAAAAAAAAAAAAAAAAAAAAAAAAAAAAAAAAAAAAAAAAAAAAAAAAAAAAAAAAAAAAAAAAAAAAAAAAAAAAAAAAAAAAAAAAAAAAAAAAAAAAAAAAAAAAAAAAAAAAAAAAAAAAAAAAAAAAAAAAAAAAAAAAAAAAAAAAAAAAAAAAAAAAAAAAAAAAAAAAAAAAAAAAAAAAAAAAAAAAAAAAAAAAAAAAAAAAAAAAAAAAAAAAAAAAAAAAAAAAAAAAAAAAAAAAAAAAAAAAAAAAAAAAAAAAAAAAAAAAAAAAAAAAAAAAAAAAAAAAAAAAAAAAAAAAAAAAAAAAAAAAAAAAAAAAAAAAAAAAAAAAAAAAAAAAAAAAAAAAAAAAAAAAAAAAAAAAAAAAAAAAAAAAAAAAAAAAAAAAAAAAAAAAAAAAAAAAAAAAAAAAAAAAAAAAAAAAAAAAAAAAAAAAAAAAAAAAAAAAAAAAAAAAAAAAAAAAAAAAAAAAAAAAAAAAAAAAAAAAAAAAAAAAAAAAAAAAAAAAAAAAAAAAAAAAAAAAAAAAAAAAAAAAAAAAAAAAAAAAAAAAAAAAAAAAAAAAAAAAAAAAAAAAAAAAAAAAAAAAAAAAAAAAAAAAAAAAAAAAAAAAAAAAAAAAAAAAAAAAAAAAAAAAAAAAAAAAAAAAAAAAAgNmDAwEAAAAAIP/XRlBVVVVVVVVVVVVVVVVVVVVVVVVVVVVVVVVVVVVVVVVVVVVVVVVVVVVVVVVVVVVVVVVVVVVVVVVVVVVVVVVVVVVVVVVVVVVVVVVVVVVVVVVVVVVVVVVVVVVVVVVVVVVVVVVVVVVVVVVVVVVVVVVVVVVVVVVVVVVVVVVVVVVVVVVVVVVVVVVVVVVVVVVVVVVVVVVVVVVVVVVVVVVVVVVVVVVVVVVVVVVVVVVVVVVVVVVVVVVVVVVVVVVVVVVVVVVVVVVVVVVVVVVVVVVVVVVVVVVVVVVVVVVVVVVVVVVVVVVVVVVVVVVVVVVVVVVVVVVVVVVVVVVVVVVVVVVVVVVVVVVVVVVVVVVVVVVVVVVVVVVVVVVVVVVVVVVVVVVVVVVVVVVVVVVVVVVVVVVVVVVVVVVVVVVVVVVVVVVVVVVVVVVVVVVVVVVVVVVVVVVVVVVVVVVVVVVVVVVVVVVVVVVVVVVVVVVVVVVVVVVVVVVVVVVVVVVVVVVVVVVVVVVVVVVVVVVVVVVVVVVVVVVVVVVVVVVVVVVVVVVVVVVVVVVVVVVVVVVVVVVVVVVVVVVVVVVVVVVVVVVVVVVVVVVVVVVVVVVVVVVVVVVVVVVVVVVVVVVVVVVVVVVVVVVVVVVVVVVVVVVVVVVVVVVVVVVVVVVVVVVVVVVVVVVVVVVVVVVVVVVVYQ8OBAAAAACA/F8bQVVVVVVVVVVVVVVVVVVVVVVVVVVVVVVVVVVVVVVVVVVVVVVVVVVVVVVVVVVVVVVVVVVVVVVVVVVVVVVVVVVVVVVVVVVVVVVVVVVVVVVVVVVVVVVVVVVVVVVVVVVVVVVVVVVVVVVVVVVVVVVVVVVVVVVVVVVVVVVVVVVVVVVVVVVVVVVVVVVVVVVVVVVVVVVVVVVVVVVVVVVVVVVVVVVVVVVVVVVVVVVVVVVVVVVVVVVVVVVVVVVVVVVVVVVVVVVVVVVVVVVVVVVVVVVVVVVVVVVVVVVVVVVVVVVVVVVVVVVVVVVVVVVVVVVVVVVVVVVVVVVVVVVVVVVVVVVVVVVVVVVVVVVVVVVVVVVVVVVVVVVVVVVVVVVVVVVVVVVVVVVVVVVVVVVVVVVVVVVVVVVVVVVVVVVVVVVVVVVVVVVVVVVVVVVVVVVVVVVVVVVVVVVVVVVVVVVVVVVVVVVVVVVVVVVVVVVVVVVVVVVVVVVVVVVVVVVVVVVVVVVVVVVVVVVVVVVVVVVVVVVVVVVVVVVVVVVVVVVVVVVVVVVVVVVVVVVVVVVVVVVVVVVVVVVVVVVVVVVVVVVVVVVVVVVVVVVVVVVVVVVVVVVVVVVVVVVVVVVVVVVVVVVVVVVVVVVVVVVVVVVVVVVVVVVVVVVVVVVVVVVVVVVVVVVVVVVVVVVVVVWFPTgQAAAAAADyf20EVVVVVVVVVVVVVVVVVVVVVVVVVVVVVVVVVVVVVVVVVVVVVVVVVVVVVVVVVVVVVVVVVVVVVVVVVVVVVVVVVVVVVVVVVVVVVVVVVVVVVVVVVVVVVVVVVVVVVVVVVVVVVVVVVVVVVVVVVVVVVVVVVVVVVVVVVVVVVVVVVVVVVVVVVVVVVVVVVVVVVVVVVVVVVVVVVVVVVVVVVVVVVVVVVVVVVVVVVVVVVVVVVVVVVVVVVVVVVVVVVVVVVVVVVVVVVVVVVVVVVVVVVVVVVVVVVVVVVVVVVVVVVVVVVVVVVVVVVVVVVVVVVVVVVVVVVVVVVVVVVVVVVVVVVVVVVVVVVVVVVVVVVVVVVVVVVVVVVVVVVVVVVVVVVVVVVVVVVVVVVVVVVVVVVVVVVVVVVVVVVVVVVVVVVVVVVVVVVVVVVVVVVVVVVVVVVVVVVVVVVVVVVVVVVVVVVVVVVVVVVVVVVVVVVVVVVVVVVVVVVVVVVVVVVVVVVVVVVVVVVVVVVVVVVVVVVVVVVVVVVVVVVVVVVVVVVVVVVVVVVVVVVVVVVVVVVVVVVVVVVVVVVVVVVVVVVVVVVVVVVVVVVVVVVVVVVVVVVVVVVVVVVVVVVVVVVVVVVVVVVVVVVVVVVVVVVVVVVVVVVVVVVVVVVVVVVVVVVVVVVVVVVVVVVVVVVVVVVVVVVRX27nUtbaUNA/ClIhYVrQLu6haVWkERxbqt5vyP6vNbP1dXK0lmDIn3fQTJGzJ55s1kAAAAAAAAAAAAAAAAAAAAAAAAAAAAAAAAAAAAAAAAAAAAAAAAAAAAAAAAAAAAAAAAAAAAAAAAAAAAAAAAAAAAAAAAAAAAAAAAAAAAAAAAAAAAAAAAAAAAAAAAAAAAAAAAAAAAAAAAAAAAAAAAAAAAAAAAAAAAAAAAAAAAAAAAAAAAAAAAAAAAAAAAAAAAAAAAAAAAAAAAAAAAAAAAAAD4EIc3Ww8vg36/0e8NmqtrRz+U5APdLtyvfv+n+v3B+sPWr7OKn++XBd5RvYt+crAy12vMXp6+PvavV+4NMQCQxdlB87ib/Etrvrc63FCc6DZuHvo/a/8u/2JjZXxb3ZPuJbzjoFo/8u/H7d+GmLurtWmaoe6N91eu+v3H40a/9/I2e942OH3kU+jX1sNLr984fuz3r1b2x3tTdXTbC/vNQePp9Pz8/PSpcd3cr3xvZboaW8Odr1fPM6fzb+U/fbxe/zY+VBQ+s93Ra+uP4aF7vePpFdOX/X77j9XvPK7uVfO0F2qC+XtmKnO1t7d6f/yRt2ZG0/Ab/7L2/fX3Y1x8Ht14LRDfj/HoefG36rdfv0/HvG732/X8fwxY573VI9fuA+bTW1en/xFRLp5HvzQW+ZQOV5/eyw+d3qbbI9Lz6v65/k71a8f7VZw5Hcvl79usxrU+Wu++9xvfKTYdH63M/rl30e4vfTFUxXwGLT3/uXfReh0VG46Xb+bm//Lb/Xnl6RjVsHn6lyZPt3d/q0Z8MkdznYkSxPnIoyvCA2u0OFH124PK9XU2pfIJvFbgSi/fz05yqt2Vwqanhw+n7x1d/fle3z1S72Kn8V7vInlaPSzq8E6a5+/+dhdf9N0j+fL+vfn2ePylUHwiC4+TZ4h204q+sPau6hNXv9XbrdS5Lz9J5ZMYl3+GdjrlI8ykvYvu+p4xq7DeRb03LOLwxv3WRIdXaxwsu5jBDQeT3ZvJ05Z5NZ/EUSPdMuP2yDupcM5eOqmq37quUm7Ykcknclzy6zyeSTfCfPiig2F/8kGwPhDdA8f29RSD4PGH91Vv0qznu9wR3QMHlF5r8vL//GbBEp/AdrOeOkacr6lbGMv73dTV7zQrM3HamJfJJ3NT6snpIO0XyJcfe75Hz+kOsLPuQ/3iehe15w997ThM+xnOjBUbAe31Ug4e89IJlXewmClH9A+VLoDd2Ux7qlxWZWfvVVvKTKhR4qu8lmGMqfU+7mOaLL2LC429UL2LnfQ/j9bch02czuZa6X+81x6PgfwYddIPHo+7CkeVbQ+yJqeuaW3+R9a3Tsbqt5qViA3bFxL5pFmgtHO1s362M178qKb7ZrbexfGJESyAk2zbSv3cnOofR3vLlQ1heJqp/PWRaTXVdXSZI0oMfAaSM7b2c1R/tgrLbL8K5BN7LusYc5f1jFujj1gsvH2VtXfRXjKG5baUtXdRu/qABYPZG1tJ3x4OuW2s1DM/H02rqaqddq4oMesTrVyJJt/67oub0lfgsC2PTx5UhqW8xludPJOV+OFnN0/vomelez631zmqf3c01T+ORSvd8z4fHnOUv32vgFTSQ94FxhdDRcxsnDe11kv/NvZFHE/TwivhFV7OeYnvYvfN1vLdhZcW0+bqXVzmqn57bap/HJ19VziPhZ/5Oh1Nu/tQPRuD/FmiPVbHrJ3Ieu7q10blLsFJXRqvdst94zrvSUfuDeTuXRgBc7jpTvUIuNTK++tdFx2z28z9PrZv22oql9t7IcJE3Seq2ewH2U5lvdQ16Anj6RZmlO0C/+jnP+l2xBVhG3P5j6/jjXxW9wEm7i/RovHyeoBb9to3ksVNm5Lk2FI25HbJfcpye7mT+7Ali6f7WLNk6zK2HwOcdK0Traed/33AP1dlx3CWyVaQ+38QKbkvzwW5Z/t2cMgmzEbBM5I7lTIIlSbqB4qZ2k6w7ctLvFqmIYqn7d+VqzfwHOas25E2wlwehLkLW3b+Ky63x2pqB8rtkntGD4GekJI7VfI1XJrQc09tHG5xd620H0DdCOLVbrlfhTrtbpzdQ+aCXRa9i/SWgvUuXmIcXjPYTfssuWfI7cHK/2qdO9XpdoT8w0o995R22wHLXy/rrpCzgnj6dQElur7hok9yHmPf2VG44+vcGNRS2g84BD5EmFYEvGkbomNxuT1J+j4QpiKGnaBxQs89ldvToNXvlnM3/TUxPMOdVp5/FdkPed4z4buW9yF7F13/9pIyGIesfi3482cc9PMbPfcCc3uSfFVQKuFsPnSe0HNPIfRmKq9l3Llg404Mz+Dqk/YG5kIf327Y//560lVNNaurBa1+O/Baqr2LsHetnnuBuT2pSSdIjnru09SKLG1LYUkIz3SjleT1ynboeVngTRe3Lz/rjGoqbv5a4OpfBv0E8cdM6NtWzz2FUejqex9GFcRYpCC5T9zNaQcvfqt8/619uyiET8+XeOFdhz7vwE3VQfALYzv3yVsXteDVDzpvaoa/bR/13AvL7Ukyazd9Su+wGyNQWC0zoccIxb8sXUNnJIJn/A7ysAyXdyf8ic+EfPhuho+O3UNjW2G5PehyiIUI/y9Rk9yLfDI8qCtlN4iTKPTcJ3Ifpfhl2839rC2CZ1SGv9w6u4hw4t8CHl+M9z19g1thuT1JFoMtlvlxGeW+bVgtU1xHp7OrspTbQqz/q5TcJ3D7M0rt2yXbWWZdAK9yy/1qyn/jLzGOzzdwBeb2gBPah0g3rp57Ybn9bdqktJTba7wP5zy53rUSqfbl+k/NvY4Anlnzs/YGgrW0j+Ic352eanG5PakH+ghiL9rLQMm9sNyeJLIJpbYZMVLoub8n2hKR1lGZynAtfufoPJ9N+dVdfop05uNAB9iIdHyrBrjCcnuwpuog3p1rV8iC2lr/n1X7PpUym0kk9+I0o5W+V6IqDFvidw4rU355D2Kd+HGY4/sVKzxeCGbF5fYkCbK31kk94hHquRfUb3+zpb6U1zhuprBa5q+2432T2SrRXrWPwnce3Sl//M9GO/MwLffjaMdn84oCc3vyGOIQ474MlNyL6be/mddyp7wakUOFnvvfrEas/EtpqjCWvavcPIq4GC9Iy30h3vFdWOVeXG5PkoX8h7hXTyT3CvbbE3+0QImdRF+kILn/2fJdxMK3t0tShY1T0Tufmam+vq8RzzxEy70X8fi8jy8wt4f4Qv977HtXci8otyezakxZfY+fKiT3glrN+2V5fkveU9BajGYY88QDfMkRtac6Y5ArLrcn9cO8x3jbTST3Qnz93KMm/K3le55I7sUZRK37cTmKcLv4P/buRC+NZAvAeKu4BIlJZFFGDCjiEo0YjRG32O//VJO7TH53ZnIDmao651Sd73sCuujq/lP0ArwNLC0mayXpsWXD+MrelKOcmtsj3GMwE5i8yF1jvf1bVwwz5dmNCCu4Q/X/kDXt60LbebyEaQt3B9fdMPv19tKuWYY/cfEy6ec74TCn5/Z6Evopn2rkXqrb60PuQKE8W5FxBWvuP2yYeNj3chiEUQd3G1haTNbMOM2maT9fk2dX6Lk9+A+PjbUauSv0WuaoyYIi5dlqjdzL/dn0ikHw0mrL6vd7nnjLQ180ltoIzxzn9Nxevw37mLtC03eM3BXcXl8w1JRjAzFYcLXMD0p9g0E3g9PBYA11x2jH6PfbS/2HSui1Mo+JP99rjnN6bg+9OfhYavq+9NkpxN1ef2wx2JRhe3KwYM39bx0lH/TP9gfhHHMX/e/Ks/ENH6Um5CMHOj231+1R0K/OQ7H5y5r7907kjprcOk45dl0jd71+Sz7mW+bH4LmBuaPUGNj8gpPfetw5sz0JG6cc6dTcHviWnangBGbNXXq9vY5xazuRfKuStEDufyn91d32L3JfhtyRMvr4knHyDb8xPgl3ONLpuT3s/dF7khMYuYu7vT5nvCm/+rLLncj9z70kH/Gm9SGYAe5YHZr8r73XTb7hn4I+4GPyz/eWI52e28Nej3ktOoPHyF30OplvfWHAKb/WhW2B3P9U+gsoG8ZPBWergDtauxa/YYHb34NePiXww+KJI52e2+tuyP2HE9kZvIzcT4QPmlzHRvm1K20L5P4/bQgMuPGXOr+B2/FasvgND41vt8APizsOdXpur+ujf/5ZW13hz+pe7tJu52GtlGHy76zkqZCy/3f8ZnoE+odwu/BfaffpN7tj/IdFm/czKro95BaDI/Ep7Fzu4m6v3zMlKbuu5HHBmvv33gkM973pETgB22auGUnUhcB27xv/z2fAsU7P7SGvj/4sP4ddy13hfMBbFii/NJ6hjdz/SOKRBSeWB2C/C7ajXs67Ye87fiWw3SEPY5awwg3HOj23h9BsV2ESO5a7xjoO706l/HrR4AVXy/y3Le/HpWusXfz/K2PjMJbYB2cc6/TcHnIIvNeYxG7lrvL/K3eOU349qvCCNff/JPHA2mPD2z9tQ+24fei5PMSEPCj9yfbFGrg9uHPbR+i/5/R57l91BptpSdl1qeML5P7vtm2ftZL3gLRjN3R5iJkZ3wl5PaOi20NeQretM4tdrrkr3e/0yLyk7LpT8gVXy/yrFdtnrdTt4GwHX/cHga0OeTKExNWCnzjW6bm9Hts+QiN3zd9I9SUTk7JL7fU3rLm7h3tvgrOj1zD3AJOmwFZvBny+JYHP95ZjnZ7bQ16deqU1j93JXesnEi9ZIOCO3IH74idymJ2gbeAO3HF7JLh/VZvHS77e6LmtNtATpiYBd+QO3BfrtomyE3R4C9yBO26PA3fF90x4kntrRXGcmZsE3JE7cF+srZpSZO1NgMAduKu6PQTumgepJTdXy2i6PeQOCCKHcEfunuE+6mDsJFl7SgJwB+6qbg+B+6bmTPay5q7qdtPPSyYyCHf3cvcM9yuInah14A7ccXsUuA9VZ7IPueu6vf6KAgm4I3fgvkiDNYSdqGvgDtxxexS4r+tOZQ9ybykv4dxXRMAduQP3BXqqKVHdEXAH7rg9Btz7yh99soHbE8cbZQi4I3fgvkjPjZpSZet1P8DdOdy13R4C90r70Vely13d7fWgIgLuyB24z28ZXqfrQw+4A3fcHgPuD9of/rHoq2VaF+r/T/YqIuCO3IH73Gbo2s2/v8DdNdz13R4E9xP1T1/ymrv+envQzkHkF+6O5e4V7merNXn5zoG7Z7gbcHuQzYb6H79cuRtwu703TRPlAXe/cvcK9zfYOmkNS9dtAnfHcLfg9iC4bxjYgFKvltG/TuZbMxBIwB25A/e59Q+xddosPZsYuPuFuwm3h10N8WhgA8pcc7ew3l63Tysi4I7cgfu8tpF14jqG3pYO3N3C3Ybbw+D+2sIWTEa4PU0vGJCAO3IH7nPb7yLr1L0H7sAdt0eA+7qJTShvzb13YWJgP1VEwB25A/d5XePq9Cd64A7ccXsEuBs5RZa25t6y4fYGT3En4I7cgfvcprx7SaBn4A7ccXsEuL+2sRFlyb11YWPv4EoZAu7IHbjP76Gm9F0Dd+CO28Ph3hoY2ZCSrpbpWfnXdQ8CEnBH7sB9XsOaJCaTmQU64O4R7obcHvqOnbGVy9+KWXM3cp2MrZv4ifKEuz+5O4R7bwKqRTJz1xVwdwh3S24Phfs7K9txWYjczbjd1GNziTKFuzu5O4T7e0gt05cecAfuuD0c7j0zJ8ky1tzNXCdTt7k1lYA7cgfu87pt1iSTlakE3N3B3ZbbQ+FuaLGhhDV3O243dCMQUc5wdyZ3f3DfAtRSPQB34I7bI8C9d4fcS3Q7C+4E3JE7cJ/bqAOopWocAHfgjtvD4V7N7GxL7nLvHdsZyyv8R8AduQP3eV3habmM3HkF3H3B3Zzbw+Fu5sEy37rbz9vtdvaOzqgiAu7IHbj/vMEanBY8Mdl41hlwdwV3e26PAPeDNnIvbb2dZ7gTcEfuwH1+T2hask0TXzpw9wR3g26PAPdq29Dm5Hu1jCm3L/UqIuCO3IH7z7tp1CTYBLgDd9weA+5nl4a2ZzXTNXdTbu9yZyoBd+QO3Oe2jKVlewbuwN2922PAvZpausovzzV3U26v34A/Au7IHbjPa1aTbMfAHbi7d3sUuFdvLG1Rjmvuttz+1AJ/BNyRO3Cf09lqTcKzyMLKHHD3Anejbo8D9+ra0iblJ3dbbl89xX4E3JE7cM9qycpJW8AduHt3eyS49x8tbVNuz5bpnVsavc5BRQTckTtwn3feO8TR4jUNPDkBuPuAu1m3R4J7NTJ1ssxrzd3WevvaDfIj4J5odg2Be0Fw365JPgO/foG7C7jbdXssuFcHptYeclpzt7Xe3p4BPwLurLkD97ntd1G0Qg/AHbg7d3s0uCP3Mty+i/sIuCN34D6/45oUauhfzAncHcDdstvjwb2ampJ7LlfL4HYiR3AvXu5+4D7l3Us6rQB34O7b7RHhjtz/idtNLdq036M+Au7IHbgv0BhC69TpA3fg7trtMeFeHXxE7ridCLj7lbsbuA8RtFab2t89cC8d7sbdHhXuyP1X3W7rOhncTsAduQP3hQ7eEwCt1QS4A3fXbo8Ld2Ny/2Bc7mdPuJ3IHdyLlrsXuL/Hz3ppP7MYuJcNd/Nujwx31txxOxFw9yt3J3C/bdak1jFwB+6e3R4b7qy55+p2nidDwB25A/fF2kLPmtNH+cQO3EuGewZujw53a2vuR7h9Mbf3KiLgjtyB+wKNOuhZsy3gDtwduz0+3I3J/YtRubPeTuQY7sXK3Qfcr7Czak3dhSbgXi7cs3B7Argjd9bbiYC7T7m7gPtBGzvrpjt5gHuxcM/D7SngjtxZbycC7i7l7gLuTzXpNgbuwN2v25PA3ZrcB7j9525vgT0C7sgduC/WTaMm3RoHwB24u3V7Grgj95+7/RXr7UTu4V6k3D3AfRk4q7cC3IG7W7cngjtyx+1EwN2f3B3AfSa+n3QGG3m0LTckfeAO3L26PRXcjcm9aUjuuJ0IuJcq9/Lhfia/g33K5dsXfEzmHnAH7l7dngzuyB23EwF3b3IvH+738qevfjZf/1exQbkE7sDdq9vTwb0aIHfcTgTcXcm9eLifHorvIxkdpve7YqNyA9yBu1O3J4Q7crfv9hnKI+CO3IH74m2L7yGTHt//DzoG7sDdqdtTwr2F3HE7EXD3JPfS4S64pPxHOzl9//trYvNmH7gDd59uTwl31tz/2i1uJwLuJcu9dLgfi+8er/LaAS7EBmYLuAN3n25PC/fWoGlpW7XljtuJgHvZci8c7lPxM3x7mtcOcCS25N5Uu4QIuJcF9912bqeM5cST+Atyt+n2NdxOwB25A/dfaiy+b1zktgdciw2N2jkMuBcF9/zcnhruLeSO24mAuxe5lw33ofie0d3PbQ8YiDFoDNyBu0u3p4Y7a+7f3T7GCUTAvfAZWTTcexPxHSNDH8ndBqB1FRFwLwjuObo9PdyNyf2jktxxOxFwL39OFg33TfkTVj+/XeBA7D6AFeAO3D26XQDurLnjdiLg7mNWlgz3W/mHLWzmuA+cS41OR+lnDXAvBu55ul0C7qy5V33cTgTcHczLkuH+VnyfuOvluA/IPXpnD7gDd4duF4G7Nbkf4HYi4I7cgfuvNOqI7xLDPHcCsQcx3LWAO3D353YZuDuXO24nAu4+5mbBcL8S3yHGme4E62JL7p+BO3D353YhuFdHH/zKHbcTAXcns7NcuB+In+Ub67nuBQ9SI3QO3IG7P7dLwd2Y3A8F5Y7biYC7l/lZLtyfxPeG62z3ghupIWqrPOYeuJcA94zdLgZ3t3LH7UTA3c0MLRbuNw3pfaF7lO9uIHbaU/EjcC8A7jm7XQ7uTuWO24mAu585WircW0viu8JJxrvBjth1r2fAHbh7c7sg3K3JXeSla7idCLg7mqWlwv03+VPUac77wbLUMM2AO3D35nZJuFu7Q1VA7sbcPqyIgDtyB+6/2pn8yetN1rNwKDVMGk/eAe65wz1zt4vC3d2ae/8FtxMBd0dyLxTu9+J7wepZ3tPwUWqgpvLbBtwzh3vubpeFuy25N1LL3ZbbuzuQjoA7cgfuv97pofhOkPt1je+kBuoKuAN3Z24XhrurNXfcTgTcncm9TLhvi+8CL7lPw9ZEaEctyUUAACAASURBVKQ68vcCAPes4Z6/26Xh7kjuuJ0IuHuTe5FwP+qK/x/8O3v3opXWuYVhGLcnVIwaDopKREAEBYkHJDZGuf+rajraMbp3Nx2NNnxrHt73CuI/nawnS2Ddu99D2cd59R8GAO6e4R7A7XK4p5E7bicC7unkHhLuffn8+/73sHEjOqtZBbgD91Ru18O91JplkDtuJwLu+eQeEe4T+bOXNk4DLOKR6rQegDtwT+X2AuCeQu64nQi4J5R7RLjrv9X3JcIiNlSbeA3cgXsqtxcB9wRyH6xY+glxOwF35A7c39mZfPS1cohN3BEdV7UF3IF7JrcXAvfwcsftRMA9pdzjwV32Xu0/e4qxicNH0XntAnfgnsntxcA9uNxxOxFwzyn3eHDfkc/9cRpkFfdEBzYWP6wKuPuEexi3FwT30HIffLX0s9UfSkTAHbkD93c13ZaP/TjKKk7HohP7AtyBeyK3FwV3Y3KvbeJ2IuCO3IH7X9qXD/1rJcwuPomOTPy4KuDuEe6B3F4Y3MPK3Zrb41wDiNLB3Z/co8G9XZPP/D7OLspuuU+kPxZwdwj3SG4vDu5B5c79diLgnlfu0eA+kk/8OtIy3ooO7TNwB+553F4g3EvtgHLH7UTAPbHcg8H9XH65r55GWsZmR3StGwB34J7G7UXCvdS+sXQSP0PuuJ0IuGeWezC4P8vHvRprG/dFx7YH3IF7GrcXCndrcv+G24mAO3IH7n90vya/DLVjbeNA9BmBmfLTXMDdGdyjub1YuJdaoeSO24mAe265h4J7Rf9IjttoXyewKzo45fUOuPuCezi3Fwz3UPfccTsRcE8u91BwP5ZPersZbR3Lolvuys/0AndXcI/n9qLhHkjuuJ0IuGeXeyS4D6/kgz6Kt48fNSdX7QF34J7E7YXDPYzcBxemfo77EhFwR+7A/f09ycd80Yi3j+265ux2gTtwT+L24uEeRO64nQi4I/dAcB905FM+jLiQq5qzGw+BO3DP4XYDcA8h9zJuJwLuyD0Q3F/kM94KuZAt0S33Y+AO3HO43QLcA8gdtxMBd+QeCe69unrC1UnMjRQ9ffYVuAP3HG43AXdr7v2W7d9PBNyRO3D/n/ryAY+CbmRvQ3N+sv/3AHcncI/qdhtwdy5f3E4E3JF7KLhP5M9eqreiruRdsP/4AHcfcA/rdiNwd/1ek2jPfyUC7sg9O9y78unuh13JUw2g6gPgDtwzuN0K3B1/KwtuJwLuyD0W3M/ksx034+6k6G1He8AduGdwuxm4u5U7bicC7sg9Ftwb+tf1ncA7ea5539GsAtyBewK324G7sSeP/qjccTsRcEfuweC+Ix/srBF5Ka81hyj6Hnzgbh/uod1uCO7G5F5/wO1EwB25J4T7dFs+17PQSyn6qO8zcAfuCdxuCe4O5Y7biYA7co8G9335VLvBt/JZcorVHnAH7vHdbgru7uSO24mAO3KPBvd2TT3Ttc3gW7mpueW+C9yBe3y324K7M7njdiLgjtzDwX0kH+ld+LX8RXKO4yFwB+7h3W4M7q7kbsztmyUiygB3y3KPAPdz+XW/3gu/lveakzwC7unhHt/t1uDuSO7tGW4nAu7IPRrct+TzvEywl904ogHuluGewO3m4O5G7i3cTgTckXs4uD/Ip9kZJNhL0bEqLoXA3TDcM7jdHtydyB23EwF35B4P7pUV+TD3UizmfyRnOQLuqeGewu0G4e5C7ridCLgj94BwP5aPcn2YYjHPNFfsMnBPDPccbrcI99JgxdIJ1Q+tu70zAWtEyeBuVO7u4T68kk/yIMlmam7JCf58Adytwj2J203C3bzccTsRcEfuEeH+JJ/ja5bNPND8/aIC3LPCPYvbbcLduNxxOxFwR+4R4T7oqKe4dp9mNS8kB3oI3JPCPY3bjcLdtNxxOxFwR+4h4f4iH2I/z2p+kRzoM3DPCfc8brcK91Lz1arccTsRcEfuIeHe25CP8DTPalYkDy2sLv1pVsDdItwTud0s3M3KHbcTAXfkHhPuffkEXzLt5pHkSJf+OCvgbhDumdxuF+5G5d67svSvwu1EqeFuTu6+4T5ZU8+vVs60mw3JcnamwD0d3FO53TDcTcq9ZwoFuJ0oOdytyd033Lvy8T3lWs5PkkM9Au7Z4J7L7ZbhblDu3G8nAu7IPSjcz+TDe5zmWs7hYwTWAHdrcE/mdtNwNyd33E4E3L9n6pVg4wy4/5QaN/LZHWfbzhPJsS75WeLA3Rjcs7ndNtxLza6p6+MYtxMB9/l875J77vHgfiKf3NdKtu0cKtA7HwH3THD/ZMrtiguQbbgbkztuJwLuv8G9hNzDwX26LR/cfb713JP8eXy5H/kF7qbgbut+++0ucEfuf+f2c4BGVBzckXs4uO/Lx3adcD2nkj9cL/czv8DdEtxtuf1DCbgjd9xOZBLuyD0Y3Ns19dCqpxn381ZxtFcN4J4E7tbcDtyRO24nMgp35B4L7iP5zFZT7mezozjbQ+CeA+7m3A7ckTtuJ7IKd+QeCe7ncgDU2jkX9IPicJ+Bewq423M7cEfuCxvjdiIDcEfugeC+JR/YbSXngg4U70mq9oB7ArgbdDtwR+6L3Z709Z7IGNyRexi4P8jHtd3MuqEK2cwvgXt8uFt0O3BH7txvJzIMd+QeBO6VFfm0jtJuaFlxy72zxGfSAncbcDfpduCO3BfcpjnlfjuRFbgj9xhwP5bP6qKRd0UPTwS1lvfv//Bx+X0D7j7dDtz/qyly/8PtwIzIDtyRewS4D6/kozpkU2lJ5YC7UbcDd+TO/XYi23BH7gHg/iQf1BaLSsA9oNuBO3LnfjuRcbgjd/dwH3TUY6pOWFQC7gHdDtz/IvetefJwO5E9uCN373B/kU9pxJ4ScI/oduCO3HE7kXm4I3ffcO9tqGdUb7GnBNwjuh24I3fcTmQf7sjdNdz78hHts6YE3EO6Hbgjd9xO5ADuyN0x3Cdr6gGNm6wpAfeQbgfu/99wC7cTkTW4I3e/cNd/7cEOW0rAPabbgTtyx+1ELuCO3L3C/UA+nVmDLSXgHtPtwB2543YiH3BH7j7h3pjJh3PGkhJwD+p24I7ccTuRE7gjd5dwP5GPpsuOEnCP6nbgjtx/7xG3E5mHO3J3CPfmWD2YtU12lIB7VLcDd+SO24ncwB25+4P7rnwud6woAfewbgfuyB23E/mBO3L3Bvd2TT2Veo8VJeAe1u3A/e/l/ozbicga3JG7M7iP5EO5ZEMJuMd1O3BH7t/dzv0ZIjdwTy93X3A/l0ugM2BDCbjHdTtwR+64ncgV3LPL3Rfc9W+63GNBCbgHdjtwR+6PvQqvQkSO4J5c7q7g/iCfx/qQBSXgHtjtwD293Ne5307kDO655e4J7pUV+TgO2E8C7pHdDtyzy329xUsQkTe4p5a7J7gfyYfxynoScA/tduCeXO64ncgj3DPL3RHch1fqUazds54E3EO7HbjnljvvkyHyCffEcncE91v5JPpsJwH32G4H7v9Y5Zr77URkDe555e4H7oOOfA48k4OAe3C3A/d/rtGP63a+T4bIK9zTyt0P3F/kY3hhOQm4B3c7cP+Bhv2obufVh8gv3LPK3Q3cexvqIdTKLCcB9+BuB+5577njdiLfcE8qdzdw1184nthNAu5v7diZ24F7WrnjdiLvcM8pdy9w31xTT+Bxym4ScI/uduCeVe64ncg/3FPK3Qvcu/IBHLOaBNzDux24J5U7bieKAPeMcncC9wP58X/l2wYIuMd3O3DPKXfcThQD7gnl7gPujZn89Hn2EgH3BG4H7inljtuJosA9n9x9wP1EfvbXLCYB9wRuB+4Z5Y7bieLAPZ3cXcC9OVaffJVnLxFwz+B24J5Q7ridKBLcs8ndBdx35Qe/yl4ScM/gduCeT+64nSgW3JPJ3QPc2zX1sdfa7CUB9wxuB+7p5I7biaLBPZfcPcB9JD/1W9aSgHsKtwP3bHKf4XaicHBPJXcHcD+Xk2C7yVoScE/hduD+xip93E4E3K3BPZPcHcB9S37kR2wlAfccbgfub77nfufZ7TdtXnCIIsI9kdztw/1BfuAXDbaSgHsOtwP3VHLH7URR4Z5H7ubh3riQn/chS/lbg/KCWqeLmmwu6Nvhcop35fUOd9duB+6Z5I7bieLCPY3czcP9k/y0twpchsHm0e2Hj59Ho1H/elG/dBf0erGo9asFPdYWteHp0tt5+wcQFv6/4if3b0DgHO6+3Q7cE8kdtxNFhnsWuVuHe3NbfdbV82L2YHr4sTue00+HWamk+B3aSQt3524H7u+pMvL42nGB24lCwz2J3K3DfV9+1KMilqB3292Y0w9Ue8c3/gD3JcLdu9uBexq543ai6HDPIXfjcG/V1Qdd139Z2PR4qzqn5QEUuC8P7u7dDtyzyB23E8WHewq5G4e7/q2U++rf/97n2px++Ib7ALhb+r3273bgnkTuuJ0oA9wzyN023Cdr6lMei5+91FvlLTJvafc9hwzclwX3AG4H7jnkjtuJcsA9gdxtw/1Vfsg70t/91h3vkXnbDfcycDcE9whuB+7vl/tn3E4E3K3BPb7cTcP9i/yIb5TPXqp86kDxt3X5roMG7suBewi3A/cMcsftRHngHl7uluE+XJef8JnwF3+yMqe3VX/f5Re4LwXuMdwO3P9FDSdyv/iVvTtRaGJZAjA8HCKgxoUlQXZkM0iUXQEF5v2f6uq993iiR2TSqa7pqvr/J5hpemY+ijCZA1pEceDuXe4lw/1afX13FR95r/mUzNjdpa01cM8BdyduB+7+Z+64nSgW3J3LvWC4z6m/baUzq7brt29guNbAHbjngLsXtwN393LH7UTR4O5b7gXDXf+JcKa26S/4jtSUgXsXuJcCdzduB+7e5Y7bieLB3bXcy4X7W3UZ9Pa09vxzPiaTsvVTvxsLuIvD3Y/bgbtzueN2oohw9yz3cuH+VH1l32lt+dNOTeN3krrewF0a7o7cDtx9yx23E8WEu2O5Fwv3ZfV13RnobPjuHQZP2vfJfxAB7sJw9+R24O5a7ridKCrc/cq9VLj3P6ov6yud/d4/wOBJDZOXHLjLwt2V24G7Z7njdqK4cHcr91Lhvqa+qE8OdZ5xpr4nvKAW0/8DAbiLwt2X24G7xF1tusybxtQAYBHFhbtXuRcK9xX9t67M62z3BQiuPXAH7qJwd+Z24O5X7ridKDbcncq9ULjrL/a9zm6/rilt4L4O3IuAuze3A3e3csftRNHhXpjctzzDfa+nvZ6dW5XNPs/7ZBKb5B37wF0O7u7cDty9yh23EwF3l3IvE+76/795oLLX15dqShu4vwXuJcDdn9uBu1SFfQpwagVcEQH3su5MMnIvEu636nPpmXWNrX65j8Db+MUKuEvB3aHbgbtUFzNF3TLeYSsi4O5S7iXCvTulvpZ3Klv9DIAn1plk4A7cpeDu0e3AXajlXmE3jdfgigi4e5R7iXA/11/KM42dfgXAUzuaaOGBu4xiXLoduDt1e12/QFdEwN2h3EuEewtfvqTxv6mDZzUl/niOgXv7cPfpduDu1e3InQi4u5R7kZ9xX9Zfyalu9o3ONy+1NHAH7iJwd+p24C7i9pkibxwL+IoIuLuTe5lvlbnRX8mr3Pv8nDdBJg/cZ4F763D36nbg7tftyJ0IuDuUe5lwP9ZHwvvLvNu8yxtlFDcQcJeGu1u3A/fJ25op9t6B3ImAuze5F/rNqS18rOQ07zbnP1PTm/QfEID7xHD363bg7tntyJ0IuLuTe6Fw39b/pqKljawD9481JXYz6eID90nh7tjtwH1it/eKvn0gdyLg7kvuhcK9OtVfx2HOXb6Kv5M7B+4tw92z24G753n79+5AFhFw9yT3UuF++Ul9GRePM+5yBu7J7U68+MB9Mri7djtwdz1vR+5EwN2b3EuFexsj6t18m/y8ptQugHu7cPftduDue96O3ImAuzO5Fwv36i/9ZZzPtskP8HeLv04B90ng7tztwH0yt5t4yy1yJwLufuReLtxn9Z8I2V4JOejV1NrAHbhPAnfvbgfu3uftyJ0IuLuSe7lwb2NKfZ1pj7/C36lNCSw/cE+Hu3u3A/cAbkfuRMDdj9wLhvuG/ph6aTvPHr8H4KktA/c24e7f7cA9gtuROxFwdyP3guFevdNfxJMs+2Rlsaa0vkisP3BPhXsAtwP3EG5H7kTA3YvcS4b7ygf1NczzSki+NTW5LYn1B+6JcI/gduAew+3InQi4O5F7yXCvnuuvYZZXQg4BeGL7XeDeHtxDuB24B3F7XU+jLSLg7kDuRcO9v290xPtLn2pKS+YFncA9Ce4x3A7co7i97iB3IuDuQO5Fw7260F/Cz4fiW2QOgCf2UWTgDtyT4B7E7cA9pSub/7aD3ImAu325lw336qn+EsrvFb42NbUrmR8AcE+AexS3A/c4bkfuRMDdgdwLh/u6/h9k5V8JuYbAE//60QfubcE9jNuBeyC3f5N7F3IRAXfbci8c7irH93PyH4Q8geBprQr9AID72HCP43bgHsntdT1E7kTA3bbcS4f73JL+Aq4Lb49dCJ7UE6GBO3AfG+6B3A7cQ7kduRMBd+tyLx3u1bX+Aj4V3h37NaX0RuoHANzHhHsktwP3WG5H7kTA3bjci4f74RP9BVyW3RzvMXhK76UG7sB9TLiHcjtwD+Z25E4E3G3LvXi4V/P66/e5L7o3dkB4SptiPwDgPhbcY7kduI/V6qKDWwtyJwLuhuVePtyrG/31WxPdGjM1jd8nuRfqA/dx4B7M7cA9nNuROxFwtyx3A3A/1n9W7AwEN0YfhLf8yxNwHwPu0dwO3OO5HbkTAXfDcjcA92qov3wLTNxb7pngN9gC9+ZwD+d24B7Q7d/k3odeRMDdptwtwH3b+Csh+Yx7y5cscG8M93huB+4R3Y7ciYC7WblbgHt1qr96R4LbgrfKjN+HS+DeAtwDuh24h3R7XZ8hdyLgblLuJuB+2AJ9L+R2Be9xb/mKBe4N4R7R7cA9ptvrDnInAu4m5W4C7tWV/uLty93V+ebUdgfuwL0h3EO6HbjHdDszdyLgblTuNuBe3esvntxrxE+A+Lhdi16UwL0R3GO6Hbg36o0/tzNzJwLuJuVuBO6zHfW121mR2hJrQLy1tQfujeEe1O3AParbmbkTAXeTcjcC9+pMf+1eSO2ICyQ+ZqeylyRwbwD3qG4H7nHdjtyJgLtBuVuB+4b+KyF7e0IbYg6JtzpwB+4N4B7W7cA9sNuROxFwtyd3K3CvXusv3YHUhviExVtlG3B/FO5x3Q7cH22z4/hmg9yJgLsxuZuB+6W+fjvnQvthWNMYLQ2AuzLcA7sduId2O3InAu7W5G4G7tUb/ZX70pXZDlc1jdEL6csRuD8C98huB+6x3Y7ciYC7MbnbgXv3L/2VeyOzGwaLNTUfuM8Bd124h3Y7cP9zzzvu7zgHyJ0IuBuSux24V7f6T5BnQv8leV9T496JX4zA/Y9wj+124B7d7XV9hNyJgLsduRuCe3Wgv3CvZY78FRxvXG8buKvu5OBuB+7h3Y7ciYC7JblbgvtGT1+RMq+EHPRqatiC/KUI3P8A9+huB+64ve4gdyLgbkbuluCu8oj9pTOzfyxg4A7cG8A9vNuBO25n5k4E3A3J3RTcL5+pL1vnVuTI+fLUpt1luBCB+4Nwx+3AHbczcycC7obkbgru1ab+sgk9cj9D8mYD9w3grgh33A7ccTszdyLgbknutuDe/aK/bFciR76KyRs1neMyBO4PwB23A3fcjtyJgLspuduCe3Wu/zD5dCnyK8dHUN5ki+YYuAP3B+CO24H7g611wt19kDsRcLcgd2Nwr470V+1U5MD59tQmnWS5CIH7b+GO24E7bkfuRMDdmNytwX1vRn3RlkSmwN19WP74/tzLcg0C99/BHbcDd9yO3ImAuzW5W4N79U5/0YYiB34e81HYwkoD9yZwx+3AHbcjdyLgbk7u5uC+8kF9zTqzIkc+BOaPtJhn4A7cfwN33A7ccTtyJwLu9uRuDu7Vc/012xU58MGzmtoYuAP3f8MdtwN33P5buR9iMiLgXrTc7cG938KHxedFjpz/T31k4L4O3JXgjtuBO25H7kTA3aLc7cG9jW8hfSJzLz8D53/qLNflB9x/gTtuB+64HbkTAXeTcjcI9+qr/pJdixz4JW+WaWPgDtx/gTtuB+4Pds0/0SN3IuBestwtwn29hVdCbssc+RI+1x+4A/ef4Y7bgfvDbudGVNdfkTsRcC9X7hbhXt3pr9iJzJHPM87SH7gD95/gjtuBO25H7kTA3arcTcK9hVdCLh7zYLQ6cAfuo3DH7cCd29Ojz6xLZEYE3AuVu0m4V2v6C7brcReUNHB/C9w14I7bgTtuR+5EwN2u3G3Cvf9Rf8G2ZA69y/cw/baDjBcecP8Bd9wO3HE7cicC7oblbhPu1bL+en0W+kq9/hEPRd2BO3D/AXfcDtxxe7NukDsRcC9S7kbhXj3VXy+pTcTMXXngDtz/hjtuB+4Pdspd6Kc6yJ0IuBcpd6twt/tKyO+PSN4tozlwB+7/hztuB+7clJi5EwF323K3CneVA/9lAjMtdvBrizwV9QbuwP1/cMftwJ15O3InAu7G5W4W7nM7lsfCFx94Ko7+TnSc9ZoD7t/hjtuBO25H7kTAfey60yXdmHpfrMK9eqW/WoInsn3DU/GfjvJec8D9G9xxO3DH7cidCLibn7kb8+5Ih0/0z2RZ7vD7r/m4zI+B+9u8Vxxwr+svRW2304Lux8C9MLcX9WF75E4E3CPKPQ/cqy39M5F6JeR/O56qSWPgDtxL62VJt2PgXpbbp8v62xByJwLuAeWeCe5VC582WZM8/u7mTk3ZP+EO3HE7cLfj9m51hdyJgHtpcA8m91xwP9a/v+8MRM9g44zPy+QfuAN33A7crbj9+yEhdyLgXhzcY8k9F9yrE/1zWRA+hb3pmTp42QfuwB23A3dDbq+qraLuisidCLhHk3s2uG8vqZ/LzLr0SewNe7Hh/jX7xQbccTtwN+R25E4E3AuEeyS5P/X01MnwuY7L1d3A31rYmQXuuB244/a6vvvnwJA7EXBH7h7h3sYrIS9ynMj6y92oH5nJP3AH7rgduLd27kluR+5EwL3EEw8j93xwr+b1z2a/n+dUVpbv7gO+ZUZh4A7ccTtwN+b20uS+i9yJgHsguWeEe7WrfzqbGU9ncLt5+mJheHB0NBxtYbSXpyOtjbY62vJot7MjrY+2PTfSt99Jho42B3DH7cDdqNsLk3sHuRMB90Byz2mzNl4JueL4atzTfljeAvcwcC/S7XHhXrjbS5u533u+7xMBd+SuN1Qd6p/PC8dX44nDgTtwx+3A3Z7bkTsRcEfuHuHewishe3tuL8YN7VdTagzcgTtuB+4G3Y7ciYA7cncI9+ql/gkdMHAX6kblrIA7bgfuBt2O3P/D3r1uRZFkYQCN1lIcrKZRsBAFRUUb8IYoeMEL7/9UY/ea+TFrVnd7gchzTuzvCThZGZmbr7IiRcCd3AvCff+g+0Cz1wr3RIU7uHM7uP9vfs/h9mhyv0TuIuA+hNwv+DnmO/0nOp3XXIuXSxbu4M7t4B7Y7Tf/7k8ldxFwJ/dqcG9f+o90W+F+Hun0zQW4czu453Q7uYuAO7nXg/vSrPtIyyUv359rFu7gzu3gntXt5C4C7uReDu7tqP9MqwVX4k7vwv0NuA8B99BuHw/uydze2ga5i4A7udeC+7YtITMW7o96DQbu3A7uad3+Ve63Iv3J5C4C7uXlfvEv2VntP9RRvcK9978/vQp3cOd2cI/p9m98mR25i4A7udeC+/FJ96Fmn6otxN6nYLfCHdy5Hdwzu73NyV0E3LGpFNzb7f5T/VJsS8i6hTu4czu4Z3a7zl0E3Mm9Gtznl/qP9a7WOux9S//SbzRw53Zwj3eTWf2eP/0NuYuAO7kXgnv71H9LyJPjSstwr27hDu7cDu7J3R5N7r+Qu4A7uBeWew+4tyf953pVaRn+2vng9aQMuHM7uLf55VAnx+r3/v3B5L7HbgLu4F5W7l3gvtv/qr6+rXD/4WyAe3m4p3D7MHDP7nZyFwF3ci8F9+6V8dc8U7j/8F2v53Dgzu3Dwz2/28ldBNzJvRTcN5e7DzZbUrgnKNzBnduHh3sFt5O7CLiTeyW4t3v9J3tUZRGuVi7cwZ3bR4f7/LDGyRFL7o+v8ZuAO7iXlHsnuM9P+492o8Ya3HxYuXAHd24fHO7R3P7j78B4Te4i4E7uVeDeXvffEvKgxpaQK6ULd3Dn9rHhXqVvJ3cRcCf3UnBvT/vP9l7h/gO5D+614Z7I7QPAvZLbv8p9PdIw5C7gDu4V5d4N7ltXu8+2vqNw//6b3bzvfODO7QPDvZbbW3tD7iLgTu5F4D7FgTtUuEcv3MGd2weGezW369xFwJ3c68B983n34dZepl+Br4oX7uDO7ePCvZ7bde4i4E7uZeDervefLv2WkN0L9+5b8YA7t48K94pu17mLgHvABHtdRhq4Lx73H+9+8gX4vnrhDu7cPirca7q9zYPJfYfjBNzBvZTcO8K9vek/3tv91OvvuPfjRf33vgd3bh8T7rHcPjvHPbjIXQTcyb0G3NvH/vP9lnr91S/cwZ3bx4T7/FlVt5O7CLiTexW42xIyeOH+rv+M4M7tI8J9/mwW6NyYnfNdmNxFwJ3cS8C9fe5/R7qcePn91vlgvViAe1m4Z3R7XbgH69vP/SZM7iLgTu4l4L73sPuAaw/yFu7LnY/VBIU7uHP7gHCP5vbzf0RuidxFwJ3cC8C9e4fcf8LEB+vtBIU7uHP7eHCv3reTuwi4k3sV1i5e9B9xI+kJtn8yQOEO7tw+HNwXR/XdHk3uL8hdwB3ci8i9dx+90X/ESYrkc8jdIY4TuHP7YHAfw+3kLgLu5F7jQZJ/9Z/xrsL9W3JnkjHBndvHgvsobid36GqYOwAAHndJREFUEXAn9xJwf7DWfcaHewr3sF9MgDu3DwX3cdxO7iLgTu4V4N4mOGQ3Fe7/nNvTzAnu3D4S3BdPxnF7NLm/3UY6AXdwzy/3/nC/1n9LyKtb+c6s62MU7uDO7SPBfSy3t/aS3EXAndyzw32KLSGfpjuvFlc6H6KJCndw5/aB4L54Uvl9qTp3EXAn95JwX7ztP+abbKfVvc4H6MpUW++AO7cPA/fR+vY/5f4w0sxXyF3AHdyzy32K1xPd7z/m42RbQvYv3OcTTQru3D4K3Ed0O7mLgDu554d7+9B/znsK97/LwWT/2IA7tw8C9zHdTu4i4E7u+eE+xZaQmwr3kP/XgDu3jwH3Ud3e2ktyFwF3cs8N9/as/6C/Zjqhbg9TuIM7t48B92Bu7/pWOp27CLiTe3K4X+u/1cCt3USF+4txHiQCd24fAe7R3N73Ny06dxFwJ/fccG+v+k/6ROEesHAHd24fAe4j9+1/3B/JXQTcyT033Pev9L9ZvU5zLvUu3K9POCy4c3t9uAdz+wTfsJG7CLiTe2q4t3f9Rz2dJzmV7nQ+MCf74F4N7jXcXgXu3E7uIuBO7snh3h71n/V2khNppMId3Lm9PNy5ndxFwJ3c08P9Zf8tIZdzbAnZ+8uI5SkLd3Dn9upwj+X2tcl+if7gObmLgDu554V7O+o/7GqKs+hx56Nyd9JxwZ3ba8Od28ldBNzJvQLcd2wJqXAHd24vDvf9j9z+3/sjuYuAO7knhntb6T/tUYJzaKzCHdy5vTTc9z/OuF3nLgLu5F4B7vsH3aedfQp/Bt3oXbgfg3spuFdye36469sjy/2A3AXcwT2f3CeEe/dtD7/ml/BbQp52PiJTLz9w5/a6cA/m9gD7agXr3HebCLgPD/dscp8S7u1S/3nfBT997nc+Hs8nLtzBndvrwp3bo8v9hNwF3ME9m9wnhftS/8c/T45jnz2jFe7gzu1l4R7N7YsQnym5i4A7uaeFe5tgo7TflyLn+miFO7hze1W469vJXQTcyb0Y3LdvncmUmX7xgTu314R7NLfH+XkPuYuAO7lnhXtbZecpM33hDu7cXhPu+vY0ct8iPQF3cE8k94nhfnxCzxPm/fRLBdzPze3zehfSvHDf/xe3k7sIuJN7ObjPb9PzdHm4Ce5l4L5S8TqaFu7cTu4i4E7uFeHe5pfOZODCHdz17QXhzu255L5M7gLu4J5G7lPDvb2encm4hTu469vrwZ3byV0E3Mm9Ktyn2BJS/syrCMsE3PXt1eDO7d+SLXIXAXdyTwn3XVtCDly4g7u+vRrcg7k96sui5+QuAu7knhLuXW7OErRwB3d9ezG4c7vOXQTcyb003DeXz2TUwh3c9e214H7M7d/euYe69JO7gDu4p5B7ALi3exQ9LvfAXd9eCe7c/j3ZDfUeD3IXcAf3DHKPAPfFKUaPWriDu769Etxjuf3qu+j3R3IXAXdyTwh3W0IO3NOCu769DtyPH3G7zl0E3Mm9PNzbU5DunPW9IOsD3PXtZeAezO03MnzE5C4C7uSeEO5bV1G6b1ajLA9w17dXgTu3/9DF3y9URcA9nNwPwf2fchOlxyzcwV3fXgXuxx+4Pb/cT3a5T8Ad3EN37kHgvvn8TEYs3MH9J/JqXv3SmQnui1i/S72f51MOJvdt8BNwB/fIcg8C93YXpnsW7tfAPT/cV+pfOTPBPdQXq3n69j8S6zn3F3tNBNyHh3tguUeB++IxTvfLr3GWBrj/sNvn9S+cieC+om//ic49lNw/LNBPwB3c48o9CtzbG5wesXAHd317CbhvrOnbf6ZzP4i0tm6in4A7uMeVexi4t49APWDhDu769gpw333I7XXkPnvXRMAd3KPKPQ7cbQk5YuEO7vr2AnBfRDpNsj0n8x+5R3paZt3WMgLu4B5W7nHg3j4jdZ/8HmlZgLu+PT/cIz3gnrFvD9e5PxpkgQm4g3tCuQeC+97DM+mQWzvgnhzuK6NcM5PA/WWgbwtz9u3hOve79CfgDu5B5R4I7u03qB6ucAd3fXt6uM+/cHu1zn3dbu4C7uAeVO6R4L54QdWjFe7grm9PD/d73F5P7kf4J+AO7jHlHgnubQOrLz7BtjoDd317crgHeu3zrY3cn3cguc+W+E/AHdxDyj0U3NsHrh6scAd3fXt2uL/i9opy/8B/Au7gHlLuseD+YO1MLjafgy0IcNe354b7Zpgf1ed3eyi5vwFAAXdwjyj3WHBvh2Q9VuEO7vr25HAPU7hXcHskuavcBdzBPaTcg8H9mi0hxyrcwV3fnhvui+Ug50YNt7e2/TbIAZ09IEABd3APKPdgcG/v2foiczXcJmfgrm9PDfc73F5V7ocEKOAO7gHlHg3ui7dncnG5HG4xgLu+PTXcHwVxe6EnsrevxDim65sIKOAO7vHkHg3u7QZdj1S4g7u+PTXct2P8nr5O3x6pc7+NgALu4B5P7uHgbkvIoQp3cNe3p4Z7jJ+m1nJ7GLn7eaqAO7gHlHs8uNsScqTCHdz17anhfuo5mQuRe4inZdb2GFDAHdzDyT0e3Nszwr6gHAZcCOCub08M950Ztxfu3O8woIA7uIeTe0C476wj9sUU7rvgnhXuK2NeJcPD/R63V5b7EQMKuIN7OLkHhHugV4gr3MFd3w7uf50n3H5hcg/wtMxzBhRwB/dwco8I9/0rZzJI4Q7u+vbMcD/h9gvLToDOfbeJgDu4B5N7RLi3d5R9AXkWchGAu749L9y3uf0i5f5i8sNrQ0gBd3APJ/eQcI/yUpNSWYtZHoG7vj0v3Cd/68T668of//TPuX+GQAF3cI8m95hwf2lLyEEKd3DXtyeG+9Q/x6nct4fo3O3kLuAO7uHkHhPu7Qi0z7tw3wL3lHBfGfn6GB3uE1+nqru9zaeW+wEECriDezS5B4W7LSEHKdzBXd+eGO6XPCdTu3Of7VOggDu4B5N7ULi3FdQeonAHd317YrgfcHvxzt22MgLu4B5N7lHhfnxyJueYsG8SAXd9e1643+L24p37JwoUcAf3YHKPCvd2B7ZHKNzBXd+eF+6b3F5d7vcpUMAd3IPJPSzcJ358VOEO7pPDffS+PTzcdyZ0+0BV8JRyv0OBAu7gHkzuceG+NOPtcyvcH4T9mHs8EpUU7iuujMHhvsvtXXLt8WQH2huYBNzB/S/kfgju/5cnwF2/cO9yifmZm+90cNe3h4f7FrdX79yvW4SSLj2Wy12HecLO/WncY7J9i7jLF+6tR5d2IyPc9e0ad26fvHO/ZxFKupxaGcXl/mTwu/YQifwh9/gpw8+8puYLt0+YHrvC/pu9e11LXefCMMyc7ERBUQRUEEF2IiA7QRDU8z+r5bf5seY1EWiTkTThuY8gjNL27WiSNhV6C+R235M7c9zhni/ODGPJ3c5smQhPoojNT8ncvjfcY+8GCvAR8fGR23+yivZswSc7uT19jH+Fup3kfslJCOdsDJwZZcpssed+FeWS3BC6fW+4x/oGCtCI+CWQ3P6TCwO13ihcs1P02415Wts4E2echHDOwMCZMaLMFpP7KtIVYUtI3xvusa58ARJzhfFNye0Wmfiaw0BhfBbeCV4f7SeBrCT3KichnGNilnGdMltM7tHe7WrGlpCeN9xjNfkCPEf8weLv3M5+Mv/3aqDaOYXxmY+SxzlP5n9szHO/5SSEcwzcVYvcpGwm94i/CeyTu5X7zdF+pTWL9CRmM5M16Lf/pGGg3BcuXZ+Ot99up+f+yDkI9xi4q66pss3kHvH3HS22hFTVj/YRNrC+71NlfJf02y2aF+TrrfJRe9MbXx1zv91Kcv/iHISD58mxv8j3PblHvqHQJXl73XA3MU1YZcPZrPFv7NBv/zcDH9ZVmcVsePn8sed288l9wCkIrptbTCjyH0FhbPS61Ix6PW6HZG+fG+4mVn+2VIZXMrxxCP32P8jvxpkqKQyvYfS/QW43ntz5PCRcJD+Hj+2WbPbcc5GvR43s7XXDXf4AJ9XGZ3ZBHP32P8m/cVOaq5l9JLd7ndzZ8w4uEl+alZpTZIvJ/SHy5Si1Sd8+N9xj99I7B43Vxjcmt1skv8QgrjS+DLnd5+R+XaLecNBI+sz4TY3/Su7mokLhKfrlYEtIrxvusdibcA0Uv314Q263qC5+9qt9uXti7L/xSPPXfHJ/p9pwMkQOuVV53HN3Ys08W0KGt3Hg+ArPhigq7sTcIrf7/FiXuI92Z4vcviW5/zJV9QuKDSdJLx3jcmQzuTuxMriaIoCHTSUOvF3PVmWbqlPVAb6Q2y36FC56W3F8C3K7x8md76bCTQ+yJ8aCPRS2hhlDs2UaTlTjigTuccM9FvstWoNXV/5+7CezjfS3U7uK44uT2/1N7m0qDTeVZJfN56iwxZ67Ix+/YkvIsNz4zGIl2q2BD/rtFvWE921RfSeVJrf7m9zZqxquku39NiiwxZ67KzP4KkTwUDKO3IQlP4+bVx9fktzu7Q0oqTy+N3K7lW7Ol4GZhvfUGY4S7Sj8or4Wk3uq7kgt2BLS54a76Dzmoob/eI7cbtFMtO7qz3UTcruvPfcMVYazJGeg3lFei8l96kwtXgnhPt937uVa7l0Nw2sVyO0Wr4OSLe1CS3l8ou+LyO02e+5ligxnLeVOjGGP8lpM7g7dEDLEcH8b7oIr/HQ03GOxjfSRynO1+5nkRDkd3ycbk9v9TO5vrBaHu0pyUzxXVNdicnfp4xJsCen18RVruXe1DO+V3G4znwkuT51pGF8rRW73MrnXqDAcjo9inw4c3lJdi8n9w6VSxAniNkKJKUIfYXo80TM82U81Mk9mN7k1BnrWWA3I7T4m92SJAsPllrvUJEM+S2Yzubu18ubkkSQeTNOlwzt/jnTPTPRrFvTb93i6jvYkZsGW+5Bt13Ynd8EVeDeUF04rCz3RzimtveRecKyVc0EUD+bVqcMrEo2/tE1SFcwH9Nv3yguV/kvT+LpS/w367XuTe1PsbQwz3OE4maWBDxTWYnL/dKwQpTeyuPlZAOYILABN6WtXphP02+2ZL0RKn9A1WfB2IZTb6bdbS+6JD2oLx1Ul1o5tqKvF5D58cq0Ql4Rx87MAzLl/jHQmnpLbLboTqf0g4uNjnsxByV1mnvuYysJ5K4FuAl8ls5ncHXzd0SSNH27t3OF90N3UbupcXFaXmWfNPBl75/5jXd/4+vTb7SV3iT/Hgo0z4L6S/nODby/ZTO5TB+swSpDHfX4w0/z91KHezoDI3lp5rm6HaQk8N+m8A9WH5HafknvilbLChwvnI8nRo+SedLKfMCWPH6rt4MqqktZvmBd033r75HaLzrQXv6N1fGXdXQXmyQRI7tpny3QpKrxQ1vvZ7xfeRFlM7kU3Nyu4L5LID7R08vieaqyA9o+71U91HyTmyQSge/Hy4kTv+PLkdovJXXPPvckW7vCE1gvTdZWC2kvuCVd3qM2RyA/z5uaNp6FvQoTApkkjzc+Nea5rQbKZ3l2lUmnN4ytp3XptWGUzQnvJfVGnovAlO2qcqJAqU0+Lyd3ZxDA/JZN7vYBkpisbdyRyT4V+u0V6n5vO9GdHjTO9TmlsWUzu1+yeD3/03o++4+tHcnd4eUGNTH7QEgZn3/Qu9czIy8gUQOfy2TzXtIAeNM7WlJjDfL/Ql9vpt9tL7ikWpsKrU0NTSyFRoZYhkntc03Wp7/D8vVKbVH4Ahx+Mlzo+H58RWkGT7ZDbLdK3QLUvEoxbC125nWMd3FxTck9dUkuQ3LfkdtoJFvt9fafX3bySyvd7dvkQv6rPc+/0pAbX0zWRmXkyYUw0VT8j9AepapnKtyC3h0vuWqYEpPigO7xL7hoeagtn1DGkro7Jv46vl8+Qy/equXyAsx+qO8/GBf/impL7hIuZxeSeEXuwayXVR/fW4jiHTO4admy9Zvkd/FNSXqFa5IE2vJryLM+46287GgWC+b437T3HD7FS+imsRAfX0xAOChdcykK60HD6S75zPFHeUfxXnaMc+qFfeduxYZoqwkc5tQ9NLDgxVDyozSNIefC2Y0wy38P5JSS3CuH4Ubpjph4OUnw0OrxL5b1l4qLvHOeKyyCmc46xgoraEpk2bztAdvxbk3aCmtZapRX74UEFTq6J5ruPsvu3/uwqbGP1615+dBdq4cCLs9Ce2VDtqUn8sbZWjPLofJdWWSDc4akJ/mbH36EvS+d8kEy5ozMO/cqjf+JFBSZk8528mIcxCzVdJpU3coFRCgcmHi28VldZaHU6M/D3CP2pqBc2EFf/e4R+XXfNLtXwWbYSrqfwwjQZLZnmOdxlyZdmTi9JON81S9OPrlFvEryv/dtU7qlvQk9vz9O7UFXKhZ7ovqkbaa5chRpg4YqGrw534Va3vzNNBp6rhth4qTjpUTgtnj6D3xcSU38afUvS+Q4rXw7zKOCssOszgwuv78JN2Hqjd6HlrxHucw7mehfpEG+l10yh0vVcHQ/+VnpYY5Nq+O8yYNsz0eENsT6NoA9O65lPP/838fznxZm33hzm7DLAnIPiVd3o4O47wcNB8ZyWqh7z8+AvfY3egrK1gFu6L24Ijvp8BLxFFLu3FA3HoHQXILonMkze02sWZD/plzu/bgrpBAH9J+dHeZEpxs33BWbtoMGRd/H6tII+OJnuXfQqAVbRnq54pNN8dgbYlzM1oKuIo9G7OfBddnFAbBe4MvUPmzCTeH/wrpfTIaD/NBvgybP+wPJ9f0Bb5OpWBldu07uwpxEkutvoXfTuDvzSeLtCbLd3gxxaunoAtnwM9k/1bK9OKJRM0ym3f5nq8LPh4y8vEtG3y/t3sKtXO1uXxU7Z2nrP7MN7gt6FNaNBMeK9i9n+G+T1YMaRlLpB7n1hl9osWXqH4zNfdnas4U60c9ywRG8Mn7suTYtB2dM9LLpE9O0pwMuH5Gw6v94ekJ8HS8uvGBqfQ3oX1tRX+196nFrtXcwvpzv+IKeDS3KjpI+rlx1Xy80ZJyaOVeljstlybSq0xzdMHZNXPZu+bUk1i86Fx89Mt0NC+jZdfyPa5Xk/+a9334nFe/ysGonrX3m8Y1/3xDrf4CIl+eSUW+946/E8tt+7yI4uOsm/xlhIen2Fjo7Wzbj999ayw8z5K89MOPrWx2vlavrebj8/J9u/NuP83YhpewZzbPomN8j8+q7+c3udmXbPZr53Em5PsIXnm4TPW6PyslK7K89G0doFovEdzbb0LtbxmzpXJ/mbz3c02zKfOdmpROeZaT66W312Ns1vm87nivuj2Yfr6uVFd9r/T/Uz/fh5bUanHQCAo5b9fnrOjzdf7Xay3W524pNlg46eOb3GchLvNP9b/a/NOH+TZoM/AAAAAAAAAAAAAAAAAAAAAAAAAAAAAAAAAAAAAAAAAAAAAAAAAAAAAAAAAAAAAAAAAAAAAAAAAAAAAAAAAAAAAAAAAAAAAAAAAAAAAAAAAAAAAAAAAAAAAAAAAAAAAAAAAAAAAAAAAAAAAAAAAAAAAAAAAAAAAAAAAAAAAAAAAADwD3twIAAAAAAA5P/aCKqqqqqqqqqqqqqqqqqqqqqqqqqqqqqqqqqqqqqqqqqqqqqqqqqqqqqqqqqqqqqqqqqqqqqqqqqqqqqqqqqqqqqqqqqqqqqqqqqqqqqqqqqqqqqqqqqqqqqqqqqqqqqqqqqqqqqqqqqqqqqqqqqqqqqqqqqqqqqqqqqqqqqqqqqqqqqqqqqqqqqqqqqqqqqqqqqqqqqqqqqqqqqqqqqqqqqqqqqqqqqqqqqqqqqqqqqqqqqqqqqqqqqqqqqqqqqqqqqqqqqqqqqqqqqqqqqqqqqqqqqqqqqqqqqqqqqqqqqqqqqqqqqqqqqqqqqqqqqqqqqqqqqqqqqqqqqqqqqqqqqqqqqqqqqqqqqqqqqqqqqqqqqqqqqqqqqqqqqqqqqqqqqqqqqqqqqqqqqqqqqqqqqqqqqqqqqqqqqqqqqqqqqqqqqqqqqqqqqqqqqqqqqqqqqqqqqqqqqqqqqqqqqqqqqqqqqqqqqqqqqqqqqqqqqqqqqqqqqqqqqqqqqqqqqqqqqqqqqqqqqqqqqqqqqqqqqqqqqqqqqqqqqqqqqqqqqqqqqqqqqqqqqqqqqqqqqqqqqqqqqqqqqqqqqqqqqqqqqqqqqqqqqqqqqqqqqqqqqqqqqqqqqqqqqqqqqqqqqqqqqqqqqqqqqqqqqqqqqqqqqqqqqqqqqqqqqqqqqqqqoq7MGBAAAAAACQ/2sjqKqqqqqqqqqqqqqqqqqqqqqqqqqqqqqqqqqqqqqqqqqqqqqqqqqqqqqqqqqqqqqqqqqqqqqqqqqqqqqqqqqqqqqqqqqqqqqqqqqqqqqqqqqqqqqqqqqqqqqqqqqqqqqqqqqqqqqqqqqqqqqqqqqqqqqqqqqqqqqqqqqqqqqqqqqqqqqqqqqqqqqqqqqqqqqqqqqqqqqqqqqqqqqqqqqqqqqqqqqqqqqqqqqqqqqqqqqqqqqqqqqqqqqqqqqqqqqqqqqqqqqqqqqqqqqqqqqqqqqqqqqqqqqqqqqqqqqqqqqqqqqqqqqqqqqqqqqqqqqqqqqqqqqqqqqqqqqqqqqqqqqqqqqqqqqqqqqqqqqqqqqqqqqqqqqqqqqqqqqqqqqqqqqqqqqqqqqqqqqqqqqqqqqqqqqqqqqqqqqqqqqqqqqqqqqqqqqqqqqqqqqqqqqqqqqqqqqqqqqqqqqqqqqqqqqqqqqqqqqqqqqqqqqqqqqqqqqqqqqqqqqqqqqqqqqqqqqqqqqqqqqqqqqqqqqqqqqqqqqqqqqqqqqqqqqqqqqqqqqqqqqqqqqqqqqqqqqqqqqqqqqqqqqqqqqqqqqqqqqqqqqqqqqqqqqqqqqqqqqqqqqqqqqqqqqqqqqqqqqqqqqqqqqqqqqqqqqqqqqqqqqqqqqqqqqqqqqqqqqqqqqwBwcCAAAAAED+r42gqqqqqqqqqqqqqqqqqqqqqqqqqqqqqqqqqqqqqqqqqqqqqqqqqqqqqqqqqqqqqqqqqqqqqqqqqqqqqqqqqqqqqqqqqqqqqqqqqqqqqqqqqqqqqqqqqqqqqqqqqqqqqqqqqqqqqqqqqqqqqqqqqqqqqqqqqqqqqqqqqqqqqqqqqqqqqqqqqqqqqqqqqqqqqqqqqqqqqqqqqqqqqqqqqqqqqqqqqqqqqqqqqqqqqqqqqqqqqqqqqqqqqqqqqqqqqqqqqqqqqqqqqqqqqqqqqqqqqqqqqqqqqqqqqqqqqqqqqqqqqqqqqqqqqqqqqqqqqqqqqqqqqqqqqqqqqqqqqqqqqqqqqqqqqqqqqqqqqqqqqqqqqqqqqqqqqqqqqqqqqqqqqqqqqqqqqqqqqqqqqqqqqqqqqqqqqqqqqqqqqqqqqqqqqqqqqqqqqqqqqqqqqqqqqqqqqqqqqqqqqqqqqqqqqqqqqqqqqqqqqqqqqqqqqqqqqqqqqqqqqqqqqqqqqqqqqqqqqqqqqqqqqqqqqqqqqqqqqqqqqqqqqqqqqqqqqqqqqqqqqqqqqqqqqqqqqqqqqqqqqqqqqqqqqqqqqqqqqqqqqqqqqqqqqqqqqqqqqqqqqqqqqqqqqqqqqqqqqqqqqqqqqqqqqqqqqqqqqqqqqqqqqqqqqqqqqqqqqqqqqsIeHAgAAAAAAPm/NoKqqqqqqqqqqqqqqqqqqqqqqqqqqqqqqqqqqqqqqqqqqqqqqqqqqqqqqqqqqqqqqqqqqqqqqqqqqqqqqqqqqqqqqqqqqqqqqqqqqqqqqqqqqqqqqqqqqqqqqqqqqqqqqqqqqqqqqqqqqqqqqqqqqqqqqqqqqqqqqqqqqqqqqqqqqqqqqqqqqqqqqqqqqqqqqqqqqqqqqqqqqqqqqqqqqqqqqqqqqqqqqqqqqqqqqqqqqqqqqqqqqqqqqqqqqqqqqqqqqqqqqqqqqqqqqqqqqqqqqqqqqqqqqqqqqqqqqqqqqqqqqqqqqqqqqqqqqqqqqqqqqqqqqqqqqqqqqqqqqqqqqqqqqqqqqqqqqqqqqqqqqqqqqqqqqqqqqqqqqqqqqqqqqqqqqqqqqqqqqqqqqqqqqqqqqqqqqqqqqqqqqqqqqqqqqqqqqqqqqqqqqqqqqqqqqqqqqqqqqqqqqqqqqqqqqqqqqqqqqqqqqqqqqqqqqqqqqqqqqqqqqqqqqqqqqqqqqqqqqqqqqqqqqqqqqqqqqqqqqqqqqqqqqqqqqqqqqqqqqqqqqqqqqqqqqqqqqqqqqqqqqqqqqqqqqqqqqqqqqqqqqqqqqqqqqqqqqqqqqqqqqqqqqqqqqqqqqqqqqqqqqqqqqqqqqqqqqqqqqqqqqqqqqqqqqqqqqqqqqqqqSntwSAAAAAAg6P9rZ1gAAAAAAAAAAAAAAAAAAAAAAAAAAAAAAAAAAAAAAAAAAAAAAAAAAAAAAAAAAAAAAAAAAAAAAAAAAAAAAAAAAAAAAAAAAAAAAACAW8HNXaf7sJe+AAAAAElFTkSuQmCC;clipPath=inset(32.5% 10.67% 32% 10%);imageBorder=none;" parent="I1IXjIapEW5mU9hD-b8A-23" vertex="1">
          <mxGeometry x="30.68000000000029" y="65" width="234.65" height="70" as="geometry" />
        </mxCell>
        <mxCell id="I1IXjIapEW5mU9hD-b8A-26" value="" style="shape=flexArrow;endArrow=classic;startArrow=classic;html=1;rounded=0;exitX=1;exitY=0.5;exitDx=0;exitDy=0;entryX=0;entryY=0.5;entryDx=0;entryDy=0;fillColor=#fff2cc;strokeColor=#d6b656;" parent="1" source="I1IXjIapEW5mU9hD-b8A-21" target="I1IXjIapEW5mU9hD-b8A-25" edge="1">
          <mxGeometry width="100" height="100" relative="1" as="geometry">
            <mxPoint x="2050" y="1520" as="sourcePoint" />
            <mxPoint x="2320" y="1330" as="targetPoint" />
          </mxGeometry>
        </mxCell>
        <mxCell id="I1IXjIapEW5mU9hD-b8A-27" style="rounded=0;orthogonalLoop=1;jettySize=auto;html=1;entryX=0.5;entryY=1;entryDx=0;entryDy=0;endArrow=none;endFill=0;" parent="1" source="I1IXjIapEW5mU9hD-b8A-33" edge="1">
          <mxGeometry relative="1" as="geometry">
            <mxPoint x="2548" y="1411.0000000000005" as="targetPoint" />
          </mxGeometry>
        </mxCell>
        <mxCell id="I1IXjIapEW5mU9hD-b8A-28" value="" style="swimlane;startSize=0;" parent="1" vertex="1">
          <mxGeometry x="2270" y="1178" width="580" height="502" as="geometry" />
        </mxCell>
        <mxCell id="I1IXjIapEW5mU9hD-b8A-29" value="自宅" style="text;html=1;strokeColor=none;fillColor=none;align=center;verticalAlign=middle;whiteSpace=wrap;rounded=0;fontSize=29;" parent="I1IXjIapEW5mU9hD-b8A-28" vertex="1">
          <mxGeometry x="33" y="22" width="80" height="22" as="geometry" />
        </mxCell>
        <mxCell id="I1IXjIapEW5mU9hD-b8A-30" value="NginxやIP Forward&lt;br&gt;192.168.0.zzz" style="text;html=1;strokeColor=none;fillColor=none;align=center;verticalAlign=middle;whiteSpace=wrap;rounded=0;fontSize=21;" parent="I1IXjIapEW5mU9hD-b8A-28" vertex="1">
          <mxGeometry x="173.34" y="182" width="209.32" height="30" as="geometry" />
        </mxCell>
        <mxCell id="I1IXjIapEW5mU9hD-b8A-31" value="&lt;font style=&quot;font-size: 14px;&quot;&gt;100.96.0.xxx&lt;/font&gt;" style="text;html=1;strokeColor=#d6b656;fillColor=#fff2cc;align=center;verticalAlign=middle;whiteSpace=wrap;rounded=0;" parent="I1IXjIapEW5mU9hD-b8A-28" vertex="1">
          <mxGeometry x="33" y="152" width="80" height="30" as="geometry" />
        </mxCell>
        <mxCell id="I1IXjIapEW5mU9hD-b8A-32" value="&lt;span style=&quot;font-size: 23px;&quot;&gt;Webサーバー&lt;br&gt;(docker-compose)&lt;br&gt;192.168.0.yyy&lt;br&gt;&lt;/span&gt;" style="rounded=0;whiteSpace=wrap;html=1;" parent="I1IXjIapEW5mU9hD-b8A-28" vertex="1">
          <mxGeometry x="50" y="346" width="220" height="110" as="geometry" />
        </mxCell>
        <mxCell id="I1IXjIapEW5mU9hD-b8A-33" value="&lt;font style=&quot;font-size: 23px;&quot;&gt;OpenVPNサーバー&lt;br&gt;DNSサーバー&lt;br&gt;192.168.0.xxx&lt;br&gt;&lt;/font&gt;" style="rounded=0;whiteSpace=wrap;html=1;" parent="I1IXjIapEW5mU9hD-b8A-28" vertex="1">
          <mxGeometry x="330" y="346" width="220" height="110" as="geometry" />
        </mxCell>
        <mxCell id="I1IXjIapEW5mU9hD-b8A-34" value="&lt;font style=&quot;font-size: 23px;&quot;&gt;L4プロキシ&lt;/font&gt;" style="text;html=1;strokeColor=none;fillColor=none;align=center;verticalAlign=middle;whiteSpace=wrap;rounded=0;fontSize=23;" parent="I1IXjIapEW5mU9hD-b8A-28" vertex="1">
          <mxGeometry x="330" y="242" width="160" height="30" as="geometry" />
        </mxCell>
        <mxCell id="I1IXjIapEW5mU9hD-b8A-35" value="" style="group" parent="1" vertex="1" connectable="0">
          <mxGeometry x="1967" y="1222" width="280" height="160" as="geometry" />
        </mxCell>
        <mxCell id="I1IXjIapEW5mU9hD-b8A-36" value="" style="rounded=0;whiteSpace=wrap;html=1;fillColor=#FFF2CC;" parent="I1IXjIapEW5mU9hD-b8A-35" vertex="1">
          <mxGeometry x="5" width="270" height="160" as="geometry" />
        </mxCell>
        <mxCell id="I1IXjIapEW5mU9hD-b8A-37" value="" style="shape=image;verticalLabelPosition=bottom;labelBackgroundColor=default;verticalAlign=top;aspect=fixed;imageAspect=0;image=data:image/png,iVBORw0KGgoAAAANSUhEUgAAAUcAAADWCAYAAABCBEA5AAAACXBIWXMAAC4jAAAuIwF4pT92AAAJWWlUWHRYTUw6Y29tLmFkb2JlLnhtcAAAAAAAPD94cGFja2V0IGJlZ2luPSLvu78iIGlkPSJXNU0wTXBDZWhpSHpyZVN6TlRjemtjOWQiPz4gPHg6eG1wbWV0YSB4bWxuczp4PSJhZG9iZTpuczptZXRhLyIgeDp4bXB0az0iQWRvYmUgWE1QIENvcmUgNy4xLWMwMDAgNzkuOWNjYzRkZTkzLCAyMDIyLzAzLzE0LTE0OjA3OjIyICAgICAgICAiPiA8cmRmOlJERiB4bWxuczpyZGY9Imh0dHA6Ly93d3cudzMub3JnLzE5OTkvMDIvMjItcmRmLXN5bnRheC1ucyMiPiA8cmRmOkRlc2NyaXB0aW9uIHJkZjphYm91dD0iIiB4bWxuczp4bXA9Imh0dHA6Ly9ucy5hZG9iZS5jb20veGFwLzEuMC8iIHhtbG5zOmRjPSJodHRwOi8vcHVybC5vcmcvZGMvZWxlbWVudHMvMS4xLyIgeG1sbnM6eG1wTU09Imh0dHA6Ly9ucy5hZG9iZS5jb20veGFwLzEuMC9tbS8iIHhtbG5zOnN0RXZ0PSJodHRwOi8vbnMuYWRvYmUuY29tL3hhcC8xLjAvc1R5cGUvUmVzb3VyY2VFdmVudCMiIHhtbG5zOnN0UmVmPSJodHRwOi8vbnMuYWRvYmUuY29tL3hhcC8xLjAvc1R5cGUvUmVzb3VyY2VSZWYjIiB4bWxuczpwaG90b3Nob3A9Imh0dHA6Ly9ucy5hZG9iZS5jb20vcGhvdG9zaG9wLzEuMC8iIHhtcDpDcmVhdG9yVG9vbD0iQWRvYmUgUGhvdG9zaG9wIDIzLjMgKE1hY2ludG9zaCkiIHhtcDpDcmVhdGVEYXRlPSIyMDIyLTEwLTE3VDExOjQ2OjEzLTA0OjAwIiB4bXA6TWV0YWRhdGFEYXRlPSIyMDIyLTExLTIxVDE1OjUwOjA0LTA1OjAwIiB4bXA6TW9kaWZ5RGF0ZT0iMjAyMi0xMS0yMVQxNTo1MDowNC0wNTowMCIgZGM6Zm9ybWF0PSJpbWFnZS9wbmciIHhtcE1NOkluc3RhbmNlSUQ9InhtcC5paWQ6M2UyM2FmOTYtNTVjNy00ZWEwLTg5M2ItNWU4YzhlNWNhZjA2IiB4bXBNTTpEb2N1bWVudElEPSJhZG9iZTpkb2NpZDpwaG90b3Nob3A6MmJiOTEyY2EtZTVhNi04NjRiLTllMjUtMmNkMzM2ODlmOWVkIiB4bXBNTTpPcmlnaW5hbERvY3VtZW50SUQ9InhtcC5kaWQ6MWQ3MDZmMmUtNjY4OS00ZWQzLThlNWQtZDljYTFhNTdjMzE5IiBwaG90b3Nob3A6Q29sb3JNb2RlPSIzIj4gPHhtcE1NOkhpc3Rvcnk+IDxyZGY6U2VxPiA8cmRmOmxpIHN0RXZ0OmFjdGlvbj0iY3JlYXRlZCIgc3RFdnQ6aW5zdGFuY2VJRD0ieG1wLmlpZDoxZDcwNmYyZS02Njg5LTRlZDMtOGU1ZC1kOWNhMWE1N2MzMTkiIHN0RXZ0OndoZW49IjIwMjItMTAtMTdUMTE6NDY6MTMtMDQ6MDAiIHN0RXZ0OnNvZnR3YXJlQWdlbnQ9IkFkb2JlIFBob3Rvc2hvcCAyMy4zIChNYWNpbnRvc2gpIi8+IDxyZGY6bGkgc3RFdnQ6YWN0aW9uPSJzYXZlZCIgc3RFdnQ6aW5zdGFuY2VJRD0ieG1wLmlpZDo4OThkYmIwNi02NzkwLTQyNmMtYWEwOC1mYTA0ZTU3OGJlNmMiIHN0RXZ0OndoZW49IjIwMjItMTAtMTdUMTE6NDY6MzctMDQ6MDAiIHN0RXZ0OnNvZnR3YXJlQWdlbnQ9IkFkb2JlIFBob3Rvc2hvcCAyMy4zIChNYWNpbnRvc2gpIiBzdEV2dDpjaGFuZ2VkPSIvIi8+IDxyZGY6bGkgc3RFdnQ6YWN0aW9uPSJjb252ZXJ0ZWQiIHN0RXZ0OnBhcmFtZXRlcnM9ImZyb20gZG9jdW1lbnQvdm5kLmFkb2JlLmNwc2QrZGN4IHRvIGltYWdlL3BuZyIvPiA8cmRmOmxpIHN0RXZ0OmFjdGlvbj0iZGVyaXZlZCIgc3RFdnQ6cGFyYW1ldGVycz0iY29udmVydGVkIGZyb20gZG9jdW1lbnQvdm5kLmFkb2JlLmNwc2QrZGN4IHRvIGltYWdlL3BuZyIvPiA8cmRmOmxpIHN0RXZ0OmFjdGlvbj0ic2F2ZWQiIHN0RXZ0Omluc3RhbmNlSUQ9InhtcC5paWQ6NGNjNzBhYTMtMThhMS00MmVlLTlkN2EtMGM3Y2QxOWEzNmFlIiBzdEV2dDp3aGVuPSIyMDIyLTEwLTE3VDExOjQ2OjM3LTA0OjAwIiBzdEV2dDpzb2Z0d2FyZUFnZW50PSJBZG9iZSBQaG90b3Nob3AgMjMuMyAoTWFjaW50b3NoKSIgc3RFdnQ6Y2hhbmdlZD0iLyIvPiA8cmRmOmxpIHN0RXZ0OmFjdGlvbj0ic2F2ZWQiIHN0RXZ0Omluc3RhbmNlSUQ9InhtcC5paWQ6M2UyM2FmOTYtNTVjNy00ZWEwLTg5M2ItNWU4YzhlNWNhZjA2IiBzdEV2dDp3aGVuPSIyMDIyLTExLTIxVDE1OjUwOjA0LTA1OjAwIiBzdEV2dDpzb2Z0d2FyZUFnZW50PSJBZG9iZSBQaG90b3Nob3AgMjMuMyAoTWFjaW50b3NoKSIgc3RFdnQ6Y2hhbmdlZD0iLyIvPiA8L3JkZjpTZXE+IDwveG1wTU06SGlzdG9yeT4gPHhtcE1NOkRlcml2ZWRGcm9tIHN0UmVmOmluc3RhbmNlSUQ9InhtcC5paWQ6ODk4ZGJiMDYtNjc5MC00MjZjLWFhMDgtZmEwNGU1NzhiZTZjIiBzdFJlZjpkb2N1bWVudElEPSJ4bXAuZGlkOjFkNzA2ZjJlLTY2ODktNGVkMy04ZTVkLWQ5Y2ExYTU3YzMxOSIgc3RSZWY6b3JpZ2luYWxEb2N1bWVudElEPSJ4bXAuZGlkOjFkNzA2ZjJlLTY2ODktNGVkMy04ZTVkLWQ5Y2ExYTU3YzMxOSIvPiA8L3JkZjpEZXNjcmlwdGlvbj4gPC9yZGY6UkRGPiA8L3g6eG1wbWV0YT4gPD94cGFja2V0IGVuZD0iciI/PmN7rMsAACaqSURBVHic7d13nCR1nf/x17eqOk7amdm8y0YQJC1J4iEiBkDk4EAJAipg9sRDT70fngHvzp8/0cOAOSDigWAgKMgP9QjiEUQkZ5bdJWycmd1JHarqe398e5jZ2erq6p7qMDuf5+MxLnZVV3+7p/o9Vd+otNYIIYTYntXsAgghRCuScBRCiAASjkIIEUDCUQghAkg4CiFEAAlHIYQIIOEohBABJByFECKAhKMQQgSQcBRCiAASjkIIEUDCUQghAkg4CiFEAAlHIYQIIOEohBABJByFECKAhKMQQgSQcBRCiAASjkIIEUDCUQghAkg4CiFEAAlHIYQIIOEohBABJByFECKAhKMQQgSQcBRCiAASjkIIEUDCUQghAkg4CiFEAAlHIYQIIOEohBABJByFECKAhKMQQgSQcBRCiAASjkIIEUDCUQghAkg4CiFEAAlHIYQIIOEohBABJByFECKAhKMQQgSQcBRCiAASjkIIEUDCUQghAkg4CiFEAAlHIYQIIOEohBABJByFECKAhKMQQgSQcBRCiAASjkIIEUAd/fpjml0G0YJ8DduKNt98zToOX7iVkdFEs4skyrOB3YAlQC+wEJgFeBO254ANpZ/1wHPAlkYXNApddEmsXIQ9uwtdKDatHE7TXlkIMRVLgH2Ao4DlwJ7ASiBV4XkeJiCfAJ4B7gPuAR6uW0mnKQlHIaaPXYETgGOBo4FkDcewMVeWC4HXA+8tPf4A8Hvg18D/TLmkOwEJRyFa3wnAO4ETqS0Qo9i/9PPPwN+AK4ArgU11er2WJw0yQrSu0zG3vDcCp1K/YJxsP+CrwOPA54HZDXrdliLhKETreRNwO3AVcHATy9ELfAZ4Evh4E8vRFBKOQrSODuBHwC3Aa5tclol6gC9j6iXf0OSyNIyEoxCt4e+BR4F3N7sgIfYDbgW+2ORyNISEoxDN9zngOmCX5hYjsk9hbvsXNLsg9SThKETzJDCh+Nkml6MWrwX+ChzU7ILUi4SjEM3RBtyJuZ2eruYD92L6Xe50JByFaLwuzMiUQ5pdkBgo4GZ2woCUcBSisRxMmLy62QWJ2c3E0ZKtFPi++VFq6qWaAglHIRrrFuCwZheiTm4C9prSETwflUygUknw/HhKVSMJRyEa51uY8cw7qwQm/DO1HkB7HiqVRLWn0Z5X+Ql1JOEoRGOcCXyg2YVogEWYyStqozVWexplKdA6vlLVQMJRiPpbiJnEYaZ4M/Dhmp7p+ahsGmw73hLVQMJRiPq7CtOqO5N8A1hW1TM8H5VKoLJptNvcW2qQcBSi3s6ktcZJN9Llkff0NVprEisWotrSIOEoxE4tBXy92YVooqOI2Mlduy5WNo3V0wlNbogZI+EoRP38C2bar5nsK5H20hp7XjdYyixg1AIkHIWoj07MrNoz3UrMpL1l6YKL1dmG3duJzjdvQa3JZJkEIYIlgcOBPUo/8zD99wYxq/c9iZli7G4g6FLn/UC2ISVtfZ8Fri671fOw53aDY0PRa5mmKwlHIbZ3IGa9luMwC1pV8gRwA6bx4fEJj9fWlWXntAdwBHDXdo8qhR7NY8/pNsuw5ostE4wgt9VCjHkVpi/iX4B/JFowgvnifwJzFfkDzNf7QKbP3IyNssMfC+16qFQCe8mc0pjq1qhrHCNXjkLAuZihfZXWfA6jgPMwa760TsVZ6zgZswzE4CuP5Is4r1qM1ZZBj+SaPtHEZHLlKGa6S4EfMrVgnGgf4ICYjrUzSQFvGQtAf+Ma7J4k9oI56Fyh5YIRJBzFzPZt4IJmF2LGUOoEijn8LWtwXnM2iYNPQuf6W+52eoyEoyjLUtCRaI0OuXXwaUyLsmgIBZ57hC4MkzjgNNLnXIG1YBV624aWaoSZSMJRBFLAiGfx7GAKLI3WLXoG1+Zw4AvNLsTMotFDG5elTv7agalzTK8e3bcWrNZt9pBwFIGUgpTl86NnZzM8kiTl7FRXkDNphpyWoAvDqPa5OPue8gfgO8C+pLpAt+551bqxLZquN+nxYH+G69fO4sxXbyA/mGrFevNqvQ9Y3uxCzChKoYc24xz0jgLpzi7gfeQH3qs33HOvSnQ6mBzygD5gI6aT/aPAw5jO9tuaUWwJR1GWBmYlPa5a08Nbdhmg3fHJe9P+ZuOiZhdgxvE9FPjOfm8fe0T7z12v/JfvOER1vxp06HIIL2IWI7sR+D2wtr6FHTftz3RRPxqYnXJ5eCDDjWu7sVNus4s0VUchnbMbTo8OYC3Yy7P3OPaVvNEb7yuS7Ioy2/ci4CRMd6tHMHNjNmSpCQlHUZEGNhWcneFsmc5rRE9PSqGHB7W951t97KSZ3nt0s6f7HrNUspPgYelldWAmsfgDcBvwpphLu53pf7qLutKAozQZ26/yPG5Jf9fsAsw02s2hsu2ec+A7LEqddvSmB3w9/ILGaZvKoY/CLOZ1M7DflAsaQMJRzBTtmOmzRMMoGNyEvfJI31qw9yuLwuiN9ynia+84FvgrZnx7rCQcxUyxGJjV7ELMLBqKnnb2PVUxljVewdUb71fKaSPGWxEFfAmzbnZ3XAeVcBQzhYWc742V24aau9R39jl5vCGm/wmttz2nSXbU4xWPw8yqtE8cB5OTRQgRP2WhB/tx9nyrT7Z7PBw33Kt1cTiBqtvSqyuAe4Cjp3ogCUcxU7iYjsaiEYqjkMl6zqHnKyaMntZbHko0YCRBBtMn8oipHETCUcwUT2E6FIt6UzZ+33oSh5zrWwtXjV8ieoUCI+sLymnI6hEW8EfMZMQ1H0CImaALMyxN1JNlowdfwpq9SzH55s9ud9VIbourR7cUseOaOrOiJHArpn9k1WT4oNgZ7Q4cBhwErAJ6MEukdjazUDs9ZaFz22Ak56Xe9V1N2+xJ+aKIMiQmZosxi3u9pdonSjiKncUczOiJ04FDgLrV+IsAyoLCCLpvs58+/VLffvVxyR32ycxOqOz8pO57FJxMI0t3PGZdoG9U8yS5rRbTXQ/wZeAZ4OuYuRolGBtJWej8EP6WDTr1lv9TcI68IPjzt5wEHUuULg7RhBluvw4sreYJEo5iOvsQ8BjwceSWuTksGz20EQY36dTbLvETx/97ipBcsRYd7SrwIXQmnnr5VjU7SziK6Wg2ZgqrbwLzmlyWmUlZ4Hvojc+hku2F9LuudhOv+5hNhUtCteSNSTX/MF8PvkAd+zqWczxwZNSdJRzFdHMw8CBwQrMLMiMpZUKx73l0/wues+9bi5kL7rLs/U6L1n6hLGUdcrFWyY4CQ2tMyDb2FvuSqDtKOIrp5A3A/wALm12QGccroEf68Tc/j972kmvv+rpi+txr/dR5Nziqd6VDFQmnulYk7DdeoVX78oLuf1KT3wLareYQU3EwsH+UHaW1WlTka0jbPiiNpmmLxR2J6bPWIpT5Qvu++e9SLxXtFSo8xwevYHq0lBsporXZJ5SOMG+DjtBzpsI+WoPGU9ku1+pdoewlB/v2vidb9h7HOkzh4kr17pOyT7jOVY/9qKDX/d7S21b72h1OoCzLfJ7m0Ao1/jkpe/zHcsw+dpIazsgLgbMr7SThKCpKWpoNowk818JWTVlmeCVm7r7WYDno0QFwc65yUnmzNKMPylFWpguUpQMDR/tgJyyV7UmbL3+ZfSwHMt3h4WnZvkpmh0qP7Lij74GTxmqfU/59eEWfdGdKdcxPBy505buQbINsr291LXKtxftncNIQ1x2nk3WsfT9ss/f7NZv+VtS5jQ75AfDyWuf6hnFzvi5s1Xj5JF4ug18ANwfuqIc7nNduDka3JEl2ODjZahbrOhX4CNAfWrwpvj0xA3QkfO7ZnMXLO6QtzYjX8GvH6zHjZVvDcB/WvFe5yWMv9lS2W5urRxNqKtMDVplw9H2Nk1CqbTbh4ZgAp+IoEguY0myxpQJECbpE6aceFJajmHdQdsJZpdT473v7MnoFcEegOOjj5tBD6zz/oW9YeugFi0R71NdMY2YR/3nYThKOoqKkpdmYT7Ah57BLVx7tOY28tb4U2KtxL1eZv62f5OGvVfbub0oBDRsLF2Bn7s8Z/N7sJNhJm9SsdgA1azd4+uea/ieoIhzBtFxLOIqpyTo+q4eS/PDZ2XzuoBewaVgvtb2BCxrzUtFZvfPxHrpOFZ20R9fiHb/EWqOcVAEnlQO945WZ1qB9VFsvKtlmboEDd0KpjnlZEhmrzD7muqpjbqnurcxhlNLKThRBBVeIaA2WZW7nd1RTpV4NNGAqWn0XtGejPYfiMLgj6OJQkcLgKMURi+Kwr3Uhi190dP8Tnt7ysCI7t9oyHom5Ii17Kks4iop8DT1Jl7s3t+ONOiQdn5zbkI4O32/Ei1QtmUUXhqz8LV8oOwmasrCxVBL0jl/asYhKpFFOqszSpKWdUh0KK0Hgd1ib/1GpjlcaMIILoyCRLaAsHVweUyVgtc0xIak1pnXJV3TMS1g9y4v2iiO1tfKoBPH1cNHk+z298a+uHnjS1sMv2uQGirijmsKg1rqYwi84+AXwiuAXLNx8qvT/tdauhfbAydgqO8800oQv8TrZMswY/MfL7SDhKCLpSPisGU5y6VNz+diqF1Fust7rbR0FHFrfl6iR74GdxOoJGY2mtQ065LZXmQYE3w+9LtO+Z8IhZCdd2ED5pmsFaIXvt1fYB98rsH13BIUu5qCIo7Ipz17+d8Xk8V9Q1tLDylymRuLrjfe7+vkbtX7pT8offimBO6KwkxZWsl2psSvYsRbr0r/KsklkbVQ7oFBq+wl/qgzGsTe9JxKOYqoU0JVw+enqXs5Y2sfCrlGGRlJYZe7UYnBhvQ7cEJO/vIH7VF7utvGDSCa9vvlfC69guU/+Ae+5O4rpM3/i2vufUX12DDzleg9d5umXbrd1fqutMrOVyswJv+qtr93CNkoncBGJBtoTPnlP8cVHF4C2SDteva4eFyEjYFqIBjuBNWcFOOlE7vIz8Z65vVjNAfxHvldwbzkT//kbUiTaHdW1XJFob2YwgpnOrCwJRxGZrxXzM0VueKGLq5+ejZP06nUCnYqcm63H91Dts8GxnML1F5p+kpUUBl3vtg943l++kMCyHdW50nRVavi0joEWhG2UE1BUxQJmp12++fQc8vkEmaRXj/P8DbEfUcTD91GzFuOv+6vlPXpD+NXjyIaie8sZnr/mZlt17apw2qrpqN0Is8I2SjiKqmigw/HYWrD55dpZ4PjY8Xb0SGNm8BatSlloH8t75o/lO4YPv1x0bz3H1wOPp1TXytIZ0hJXixOFhruEo6iarUzr9ScfWMQ9L3eS7sqZEXTx2BWYH9fBRB1ojUqllN6y2iUoYHzX827/sK8HnkqpjmW1tCQ3SuhJK+EoqqYxHcO7kx4XP7yA/q1p2trycQXkyjgOIurMtqEwmsMseTuR793zGe1vvC+lupa3cjBWJOEoauJrmJ8u8tS2NGffuYK+kSRt6WIcASmT104XasfJGPXaWz3/yZ9aqnNZC95F72BT2EYJR1EzVyuWteV5bFua8+5agacVbSl3qg00IdPIiFahCznonN/GxLHlxWHfe+Arlkr3WGZUT8un44awjRKOYko8rVjeVuCB/gyXPTYfHA/HmtKXQgYmTAeu71tz99hu6I7/zDWe7n/MIj17utxOPxO2UcJRxGKXbIEvPjqPm57vJdWVCxzCG1FL9fUQAXwPlU5hLT1s/Jfsu76/+kZId6sW6cMYxdNhGyUcxZRpIGVr5mVcLnlsHs9u6CCbLtZ6V7U53tKJuOnCEFbvCs9aNh6O+qW7XPoft1Wym2lwOw0wAjwUtoOEo4iFr2Fuqsjq4RSfun8x2Jpspqb6x9BKctFkyoLBAazFByRUqv2VKhB/9a+T+K7V5OGA1XgW2Bi2g9TviNi4WrG8Lc+j2zL82/2L+cS+L9GWcRkeTaCiT1BxG2YRLWm1bkG6OIqaNddNHPY+jwmNMSo739OWY02lPqXBvlxpBwlHESsFzEkVufy5Xu7c2M53D1vDsu4RhodSUQNyC3B4fUspaubmUV2LsRbut93DqnMlY1OfNW0JtphNm2tgMT1owFGwtK3Ac8Mp3nnXctZuTdPWnp9GFxWiLGWZZVpHB7Z/3Ms1pTix0WaedCcDTi84PRKOog506WdZW571OYdz7lzJuoE02Y7YRtEIERvtm1C058HLm+CX/6347V1KbqtF/XhasTRbYO1IkrPuXMnPXvsci7tGGR5Kll11VIhG0j4kusDPwaW/tLjxQcXqzZB0pM5R1JmrFUtKAXnmHSu48sjnWDJrtGIdZDbpge3HeCtulk/JF2xcXwWGs9aKrOOhkl7I62r8os2oazUu4HXp83DKfB5KQ9FmpGiXXUMr4suggGzKLR0n6A0WIO1Bd+/2Rehpw2n3zGKxFjAKft4sL1ZVjwUNjoM5Tj16BI2A62JWqSgFo/Y05//E5vqHLFbO0ew6x/S+kHAUdTcWkGuGk5x15wp+fMRqVs4dhELA6adMiD29JcvmfIKUHc9IC08rHKXZf/YwKccnP+rgamWaEDRkEz4qXWRwMM0jm9vLvm7BV+w7a5S2jjz+aKKuIak0ZFIeJD3WbMnywkiSTEC5RlyLXTvyzO8egbzDSMGuuk3EAtJpE4qPb25ja9EmGTDSSRdsrOEMyXvuRXXMHX98zfP4z2UgrRgtKvZeoMn2avCVWWR1CNyQpXC0hoQDdAGD8LcnzB8wK6bP1i+9lVXLNE4nMGBeS7tw/g9sbn1Ksf8uGl+P76uOfv0x8by6EBXYSrN2JMmu7Xku3Gs9KQWuv/3Zn3B87t3UxjVrehh2LdIxhePY67x27hBnrdjCQfMGAfALNlamSH40wfUvzOKa53t4cmuajBP8ujnPYu+uUd6+vI8TF23FSrv4o06sIamATMqFhMe6gQzXPt/Ddeu66c/bgeUacS0WZoucsrSPU5b2M7sjDznHXEmG0SZ80uki2JrHN7Vz9fM9/O6lLvKeIhn42SuzMGF+cPshgnYKZacBn5ECrFoEXZ2a5V1wxO6aw5dq6AS2QrHIK5/VdqFYgNseUVx5t8V9ayBhxxeOng+uD0es0JxzuObQPTX5UbjgCoubn1DsNmc8FF95pxKOopFspdlWtBku2lhlxmC7vqIr6ZG2ffyYbqsVGl8r1ucSpCyfNywY5NxdN7PXrBFuWNfNz1b38GBflozj05Nyy76upTRb8g45z+Kg3mHOXNbHCYsHIOXijyQZ9YJv2St55ZY26ULS44WBDNeu7eG6tbNYN5RiTrpIm+PjBZRr7DPtzzu8qnOUk5f1c+qSfnpKITlcsLcrk9ZmTs50pgi2zyOb2rl6dS83v9BFf8FhQaZA0tbhn70/eaaysdUCwbZgYBRGcgptaSzg0OWasw7RHLOPhgzQX3rTPUAe7nxEceW9ijueNq85t6P6zzCK9YPQnoSDVmi2blM8sh7md+4YjCDhKJokrDqpnlV5loKir3hxJMGctMuStjwP92dJWJrZKbdi2cbKp4GNOYdRz+KQ3mHOXD4Wkh7eSIKcZ0Xu+K41tKU8SLq8PJDh6jU9XL92FmuHU8zNFOlwvMBQDHpvAwWbvrzDbh053rasj9OW9tPRnodcwvxBUppM6Urx0c1tXLW6h5temMVAwWFhtkDGDg7gWinMitsbtkHBhSNWas44RHPsARos+MPfFD+7W3Hn0wrLgoWdE5bOrgNLQdGDvmFzxdqTDQ5GkHAUM5SlNDnPYsS16CotFFbt91GZO0w25BKMuBYHzx7itGV9nLjLAE7KxR9NMuqGXEmONbSkXDYNZPivNT38am03a4eTzE0X6Uj4Zb+44e8N+gs2W/IOu3fmOG1pP29b0kdHRx58i8c2Z/mv53v53diVYh1CMahMnoaXt0LBVZxyoI9jw7X3WdiWZmGXueKs5f3Wi4SjEFM0MSRzrsVr5pRCcvEAtuMzMrr9Uitam4k6nHSRl7elueb5Hn61rps1w0nmpFw6Y1i0bCzm+go2fQWHvbpGOX3FFvpHE/x0dS/9eZv52SIZWzc0kCxlAnD9NvM5zO8yt/itFIpjqgnHWcABmDGvvZgGrk2YCSMfocIg7ohSQJIdp62ygRwVFsSpk8XA3pj33YUp2wbgJeBBYDim18lg3ufkWnAbGGXH6egnc0rH8Nn+IsjClDlHtIsjB8hWeD2rtL2ewyIUZrGtoM+kFg6mvIUI+6aBBFWeh2OBtDHnUPAs9uoe4aJ9XubABdsYGUpNaAAxrcLfe2Iulz87mxdHksxNuXSVQjHkl7S4VLaJ5bIwn8/qcmVSCvryNnnPAgVdCY+M44cFsIU5lyDaOWMDgxH2q0a587kWqvQzShVT4lUKRxs4DTgL2J/yCx9tAR4ArgV+Ru2B8V3MYu6TvwwW8B/AZTUet1qLgTOAfwD2AspVD78A3IV5zzdO8TXvApay44lgAR8Bflnh+e8BPseOn50C1gHHYKZpquQ04D8JP4lUaXt/6d+1mOmfHgZuBbZGeJ1KOoDbgbnE0+PNBn4AfCbCvtdixncHnYf/F/hG2JPH6iTXDCfpcHx+fMRq9l+wjfxwklSmwOot7Xz+4QX8eWM7HUmP7mT5BqAJdgPuwwRGUDgeh/m8yhr7ECPcPK8CfjPhrVRiYcIxh/nd/wW4t3SMWrPgVOBrxPOHEcx7eQ9wc5ntxwF7lv77buCusH6OZ2K+bLtFeOFezFrDbwD+FbgY+H6E5022HFhYZlujZmn5HPAJxv9yhlmMCZPTgHuAzwK31Pi6e2GuTIP0lnl8ormU/+w6iT5UtJcKi51PsKT07wHASaX/7geuB76D+UxqZQP7EG9f3MUR99uN8p9lxZURx9JkRXueDbkE7/rTcq74u+dYtayfyx9YxKWPzyfnKRa1FUyyRavr+yDlzw+AT1EhHKuoUcwS/bMK8trSvxsxFzQX13CMHsr/Dmo1q8zj7wb+H3An5mO6AHh/0BcmAVyNuRqKEoyTLQa+B9xA+C8zyLaQbVGueqZiD+CvmICLEoyTHQL8DvMh16IvZFuU29fRCseOevU11VvlbuBdmL++36b2cNOYO5I4DUXcbyBkW+Tz0NOK+ekiWsGn7t+Fi+9azqWPzcdWmsXZYuTLMkxYvbvCPsdi7jziUKkKJ6q5wOeB+6l+baB6VNnkAx7rAA7D3Jm2Y8bm3AocNzkc2zFz6Z0WQ0HeirlymFtpxxZwCKas+8dwrH8GfhHDcXYG78dUt8zY5VbdUkD2FW1+9uxsupIu3Umv2gaIdxDtQuMjNRWy/g7AzNOZbHI5gmQwF2VPYbIqD1yBaTzfzk3AgTG+8O7UfpvZKPMxZeyM8ZinYOpPhWnMuoNoVQP11pRZqFytaHN8FmULtbbMXhBxv3MxDTataE/gi00uQ9CQoY2Yu65/Bz6Aqee8Bnh64snyJeDIiC/iE72idD8a15BSi18Q/fa/msrh9wJvq744O6WFmHrIZutudgFqcCSmPjqKWcDp9SvKlF1Aay69+1XMHfMpwPGYK8fLxuqD9sY0QlTybeA6TNcdgIMwFfGV6kM+iGkpfKCaEjfAucARFfZ5CXMVeDPwIqZO9nWYD/KtFZ77g9LzotZ1tbo1wJWTHlsGHEXlCvwjgPOAH8ZUlu9gzqeodZqdmB4B080/Vbn/BcDldSjHmAHM93kQcyU2Nn3nEuBg4JyQ59qYRturpliGBzGZo4h2NzC231Nltvdjrhr3wnTTegrGT6zPVTj4auBExkNxzA2ln2+X/g1ryfss4y2arcCmcivaLZguPf2THv9J6eec0r/ldGI+9IrrVUwTjwCfDng8gWmEuYTw6okvYD6vOCr8f4jpMrIzWwicXOVz9sNcbd4Ze2mMEcqH22XArzAXUOXsHUMZ+qjPhdajE/+Pheki8w8hT9iC+bAnB+NE95X2CevT9PfALtHK2BBvBhaFbL8H0wI4ORgnuoLKtzGVrqqnk7YyjxcxXbcOJbzVfQHmyiEOcXfzaEUfDNk2SvnG7o/GX5RX2IRXQ12PabsoJ4460YbMpGlhAiDsxT6JuZ2s5Bng4xX2CQvhRjuxwvYzIx7n56Wfcl6N6SY0EzxO5T8Gx8f0WutiOk6rsjH11kGGMHc05bo6nUT0vqr18HTItjg69Hdg+kQvx/SECPvZHdPFqepAdYDXhGzfQPht42TfwdyCBw35cigzxKlJDgrZdgvwXBXH+jLh3Z8OA56o4njT2Q2Y0TL7ltketXGhkvMwdU9R/YHqfqfN9nbKN178CXOFdj5mRNlkFvAhgqtA4lCpWuTYkG1hfZmj2p/xW+BKdY42JndWEd4XeAcOsGvI9j9Rff1Qq3fdAVMvFtaA8Jsqj/cA5hewvMz2Vmyhq6ebKR+OCzAnbOQxrmV8qMr9z2d6heOFIdvGLlguJzgcwQyV+wzxDb8b41O++mwuZhDE7iHP/3MMZZg49juKHmq8cmwP2f5ytQecJtoI75AaVm8WxMeMLy4XjjNtgfqwSUgyBE/qUG9xT4xQTwdR/s6mn/Fx9tdj7u6Czq+5mKvPq2MuW0/pdUcxv0cwdc6dmPHoYfWRL2E6gzfaEDXczjuE/2WZqWvM1PK+w+akb3QQTNbotf7CPguf5n8ere6jIdt+yPisQC7m6vGTZfb9J+IPxxSV6+vLuZD4hibWnUV4HcCKRhWkwbYRXv9Q7RhVG9Pfr5z1VR5vsihTtbVS4JS7ggbTT64ZU89NF7MxV3xBhoCLJj12EeWvig+mfPVGo32f8IbLelpKDaOjHODZkO1HYEYVhHVnmWwJ4x1DJ7/W1iqPVS/DmNvgct1BTsH0yYvqMMLrMKPUdYVdrdYyEcZEA1RZGT1FbwnZ9nyjCjFJnVYlid35jN+uTjYMfAxTJTQ2Vdlo6afc+7sQ0we1mS7BzDkQl/WYhr+othBtHs/tOJhRA+UGrLdhOm9/NOLxPs14C9nkcExjWrFapcHmHky/vCCrMBXdURtmwuYI1EQbmbGV8v1AjwR+VOH5YZNmDBF/xXw5H2J8KrMgcY1SuRXTdahc38uJLEwL+nTw4ZBt8zCzx1TjDMz3d6DG8kzF7Zip1O6O+biPAO+L+Zg7cDBhlaN858wLgP9PeMdOMHO4hV1tjWLGL9Yq7onUf0X4gP4rMfMJVupP9zHgjSHbb8PMmF7JM5QfPfB2zF/ezWW2dxI+jntNhNePotLv4HjgmxX2+XVMZfkM8X/poqjnhP4nEj4woRZJTH/JWqfSm8zHXInlS8euNOtWPX5HU72TisTCXLFMHi872W8J761/DvD7Cse4hKn1cYp7fPIdhPc97MJcXb6pzPYk5gt6SYXX+WrE8oQNh8piwjyoJbATMwt5NuT5cZ2g5eoK98PMZvLbCs//LfH1dZ0d03GqVc9x8mHdd6ai2m5PYTZjZu7aDXgV4fWIRwFfj/G1x9RzeY5XjNVz/RumriPMZZiJGn4NPFZ6bDfMsMDDKzx3G/CVGss45nxMh/UoLclZTH+qSsH1ScJni1mAubK+CXOLPdawchDmai6sjyiYwIt6a/5bzMSg5RyJ6fh6FeN9xQ7FjOSpNOlDpdCKahVmyOTYPK1zMPW2USv9K42gqkZTph/DfAcOINp52Ib5w/SlCPvuiQmTelhCddVEYXzG76ZymO/lmyk/y/Y/Yv6w3xbDa49ZjpmzQBHeM2IiG/hvqhg4MPYLXoOpl7i0wv4HUtt8j+9h6uuK7Ff6iWoXKofjDZhB8idV2O94ahv2FnUIIpjZkh8gvO5wEdUHzG8Ib3Srxjzg7BqfexE7xyihVaWfqFYSLRzjvLoL8lHiCUeFuYMZ+z4PYYaMhlWXXIX5Ax5Xj4oVwLdqeN6/UkU4Tvzr+zXq09T+n5jJIxttQ8T9zsS0XMftbKoPg7DK+FpFmYqu3n5M9Q0JO4so3bg6gHeGbL8MMz7/gJCf3QlvtDuG8QWk4nYdZlGycuZT3TDkeqmqWm/yrcnphE83VK1LqV89SlxGMbenj8d4zI9QuR43yJ+JN0Q+SLzvqxb/gbkVFeWdR/lWd42p234Sc2dR7ucp4F8qvE49l1F4F+Fr/ryD8kMdW1JQvc3JmCnDp6KAacWtdqLOZnkZE5BTvXJej2lxDF26s4KLiKdl8ZOYeTab5SFMVcTkTstiR2GNnb8h+nDWjZRfehTMEsthw4WnYoTKfwSvoPpF95qmXKX2pzEdwG+t4ZjXYOoGo7bSTlRx2csqVDtl0zbMlfPZVN8nbhDzfvdm6utXgwm2tzFp8s2I7sZ0Lao1YKeylk4BswLjWZh6ubAvaiVjc42WE6V/Y63i7E5Tad7J8wlf5bPaJUbCulK1EW1wQypk2zzK58YNhA9X7Mb0fYzyu6tHp/2qgjmsxe3PmG4sh2C+qIdgWosnf3CDmMaEP2HqHabS2fZGxheKnwqb2tdMvrL0cwKmoeZgTF3N5FaxTZgg+iPmhJjqEMHJfoGZYOAkzNXo/ph6p8mf/zDmM/8bpuV9qp3sH8G0blcaA2tjrhb6MBMK3IfpxRBX/W0eU0/Vw44d2C3ia2QK8nNMuMdxHt5fYZ9egj9vG9Ntptrf502Y8dfz2LH8FtH6aU4cgTJxfwvz+w5a4nTMexmfNSdo4MEsTIPKwxXK8BjmqjmuRhybKmcPV0e//pio+87HdNlYgOkwrjDB+DLmjUbp6FxJgnhmbLExffLiGMO7G6ayez7ml64YD4T7aVCfK0y3oRWY7jNjf1X7MPU8TxBtQuIobMzvN0o4hs1GHYckwXODWpgvaL1G/TTyPJyFueKe/Fpjf3xqlQ04poX54zpQ4bmK8T/Ck8PRo/JQvLHXCfr9ZEuPV+q9YpeOEWc45qs5ntK6nue2EEJMT83qSCuEEC1NwlEIIQJIOAohRAAJRyGECCDhKIQQASQchRAigISjEEIEkHAUQogAEo5CCBFAwlEIIQJIOAohRAAJRyGECCDhKIQQASQchRAigISjEEIEkHAUQogAEo5CCBFAwlEIIQJIOAohRAAJRyGECCDhKIQQASQchRAigISjEEIEkHAUQogAEo5CCBFAwlEIIQJIOAohRAAJRyGECCDhKIQQASQchRAigISjEEIEkHAUQogAEo5CCBFAwlEIIQJIOAohRAAJRyGECCDhKIQQASQchRAigISjEEIEkHAUQogAEo5CCBFAwlEIIQJIOAohRAAJRyGECCDhKIQQASQchRAigISjEEIEkHAUQogAEo5CCBFAwlEIIQJIOAohRID/BdQ1tC44nx82AAAAAElFTkSuQmCC;clipPath=inset(20.41% 0% 24.49% 0%);" parent="I1IXjIapEW5mU9hD-b8A-35" vertex="1">
          <mxGeometry x="20.5" y="13.95999999999998" width="239" height="86.04" as="geometry" />
        </mxCell>
        <mxCell id="I1IXjIapEW5mU9hD-b8A-38" value="&lt;font style=&quot;font-size: 18px;&quot;&gt;Cloudflare WARP Network&lt;br&gt;100.96.0.0/12&lt;/font&gt;" style="text;html=1;align=center;verticalAlign=middle;resizable=0;points=[];autosize=1;strokeColor=none;fillColor=none;fontStyle=1" parent="I1IXjIapEW5mU9hD-b8A-35" vertex="1">
          <mxGeometry x="15" y="100" width="250" height="60" as="geometry" />
        </mxCell>
        <mxCell id="I1IXjIapEW5mU9hD-b8A-39" value="&lt;font style=&quot;font-size: 15px;&quot;&gt;100.96.0.zzz&lt;br style=&quot;font-size: 15px;&quot;&gt;&lt;/font&gt;" style="text;html=1;strokeColor=#d6b656;fillColor=#fff2cc;align=center;verticalAlign=middle;whiteSpace=wrap;rounded=0;fontSize=15;" parent="1" vertex="1">
          <mxGeometry x="1850" y="1340" width="110" height="30" as="geometry" />
        </mxCell>
        <mxCell id="I1IXjIapEW5mU9hD-b8A-40" style="rounded=0;orthogonalLoop=1;jettySize=auto;html=1;entryX=0.5;entryY=1;entryDx=0;entryDy=0;endArrow=none;endFill=0;" parent="1" source="I1IXjIapEW5mU9hD-b8A-32" target="I1IXjIapEW5mU9hD-b8A-23" edge="1">
          <mxGeometry relative="1" as="geometry" />
        </mxCell>
        <mxCell id="I1IXjIapEW5mU9hD-b8A-41" value="" style="group" parent="1" vertex="1" connectable="0">
          <mxGeometry x="1912" y="1490" width="280" height="160" as="geometry" />
        </mxCell>
        <mxCell id="I1IXjIapEW5mU9hD-b8A-42" value="" style="rounded=0;whiteSpace=wrap;html=1;fillColor=#FFF2CC;" parent="I1IXjIapEW5mU9hD-b8A-41" vertex="1">
          <mxGeometry x="7" width="270" height="160" as="geometry" />
        </mxCell>
        <mxCell id="I1IXjIapEW5mU9hD-b8A-43" value="" style="shape=image;verticalLabelPosition=bottom;labelBackgroundColor=default;verticalAlign=top;aspect=fixed;imageAspect=0;image=data:image/png,iVBORw0KGgoAAAANSUhEUgAAAUcAAADWCAYAAABCBEA5AAAACXBIWXMAAC4jAAAuIwF4pT92AAAJWWlUWHRYTUw6Y29tLmFkb2JlLnhtcAAAAAAAPD94cGFja2V0IGJlZ2luPSLvu78iIGlkPSJXNU0wTXBDZWhpSHpyZVN6TlRjemtjOWQiPz4gPHg6eG1wbWV0YSB4bWxuczp4PSJhZG9iZTpuczptZXRhLyIgeDp4bXB0az0iQWRvYmUgWE1QIENvcmUgNy4xLWMwMDAgNzkuOWNjYzRkZTkzLCAyMDIyLzAzLzE0LTE0OjA3OjIyICAgICAgICAiPiA8cmRmOlJERiB4bWxuczpyZGY9Imh0dHA6Ly93d3cudzMub3JnLzE5OTkvMDIvMjItcmRmLXN5bnRheC1ucyMiPiA8cmRmOkRlc2NyaXB0aW9uIHJkZjphYm91dD0iIiB4bWxuczp4bXA9Imh0dHA6Ly9ucy5hZG9iZS5jb20veGFwLzEuMC8iIHhtbG5zOmRjPSJodHRwOi8vcHVybC5vcmcvZGMvZWxlbWVudHMvMS4xLyIgeG1sbnM6eG1wTU09Imh0dHA6Ly9ucy5hZG9iZS5jb20veGFwLzEuMC9tbS8iIHhtbG5zOnN0RXZ0PSJodHRwOi8vbnMuYWRvYmUuY29tL3hhcC8xLjAvc1R5cGUvUmVzb3VyY2VFdmVudCMiIHhtbG5zOnN0UmVmPSJodHRwOi8vbnMuYWRvYmUuY29tL3hhcC8xLjAvc1R5cGUvUmVzb3VyY2VSZWYjIiB4bWxuczpwaG90b3Nob3A9Imh0dHA6Ly9ucy5hZG9iZS5jb20vcGhvdG9zaG9wLzEuMC8iIHhtcDpDcmVhdG9yVG9vbD0iQWRvYmUgUGhvdG9zaG9wIDIzLjMgKE1hY2ludG9zaCkiIHhtcDpDcmVhdGVEYXRlPSIyMDIyLTEwLTE3VDExOjQ2OjEzLTA0OjAwIiB4bXA6TWV0YWRhdGFEYXRlPSIyMDIyLTExLTIxVDE1OjUwOjA0LTA1OjAwIiB4bXA6TW9kaWZ5RGF0ZT0iMjAyMi0xMS0yMVQxNTo1MDowNC0wNTowMCIgZGM6Zm9ybWF0PSJpbWFnZS9wbmciIHhtcE1NOkluc3RhbmNlSUQ9InhtcC5paWQ6M2UyM2FmOTYtNTVjNy00ZWEwLTg5M2ItNWU4YzhlNWNhZjA2IiB4bXBNTTpEb2N1bWVudElEPSJhZG9iZTpkb2NpZDpwaG90b3Nob3A6MmJiOTEyY2EtZTVhNi04NjRiLTllMjUtMmNkMzM2ODlmOWVkIiB4bXBNTTpPcmlnaW5hbERvY3VtZW50SUQ9InhtcC5kaWQ6MWQ3MDZmMmUtNjY4OS00ZWQzLThlNWQtZDljYTFhNTdjMzE5IiBwaG90b3Nob3A6Q29sb3JNb2RlPSIzIj4gPHhtcE1NOkhpc3Rvcnk+IDxyZGY6U2VxPiA8cmRmOmxpIHN0RXZ0OmFjdGlvbj0iY3JlYXRlZCIgc3RFdnQ6aW5zdGFuY2VJRD0ieG1wLmlpZDoxZDcwNmYyZS02Njg5LTRlZDMtOGU1ZC1kOWNhMWE1N2MzMTkiIHN0RXZ0OndoZW49IjIwMjItMTAtMTdUMTE6NDY6MTMtMDQ6MDAiIHN0RXZ0OnNvZnR3YXJlQWdlbnQ9IkFkb2JlIFBob3Rvc2hvcCAyMy4zIChNYWNpbnRvc2gpIi8+IDxyZGY6bGkgc3RFdnQ6YWN0aW9uPSJzYXZlZCIgc3RFdnQ6aW5zdGFuY2VJRD0ieG1wLmlpZDo4OThkYmIwNi02NzkwLTQyNmMtYWEwOC1mYTA0ZTU3OGJlNmMiIHN0RXZ0OndoZW49IjIwMjItMTAtMTdUMTE6NDY6MzctMDQ6MDAiIHN0RXZ0OnNvZnR3YXJlQWdlbnQ9IkFkb2JlIFBob3Rvc2hvcCAyMy4zIChNYWNpbnRvc2gpIiBzdEV2dDpjaGFuZ2VkPSIvIi8+IDxyZGY6bGkgc3RFdnQ6YWN0aW9uPSJjb252ZXJ0ZWQiIHN0RXZ0OnBhcmFtZXRlcnM9ImZyb20gZG9jdW1lbnQvdm5kLmFkb2JlLmNwc2QrZGN4IHRvIGltYWdlL3BuZyIvPiA8cmRmOmxpIHN0RXZ0OmFjdGlvbj0iZGVyaXZlZCIgc3RFdnQ6cGFyYW1ldGVycz0iY29udmVydGVkIGZyb20gZG9jdW1lbnQvdm5kLmFkb2JlLmNwc2QrZGN4IHRvIGltYWdlL3BuZyIvPiA8cmRmOmxpIHN0RXZ0OmFjdGlvbj0ic2F2ZWQiIHN0RXZ0Omluc3RhbmNlSUQ9InhtcC5paWQ6NGNjNzBhYTMtMThhMS00MmVlLTlkN2EtMGM3Y2QxOWEzNmFlIiBzdEV2dDp3aGVuPSIyMDIyLTEwLTE3VDExOjQ2OjM3LTA0OjAwIiBzdEV2dDpzb2Z0d2FyZUFnZW50PSJBZG9iZSBQaG90b3Nob3AgMjMuMyAoTWFjaW50b3NoKSIgc3RFdnQ6Y2hhbmdlZD0iLyIvPiA8cmRmOmxpIHN0RXZ0OmFjdGlvbj0ic2F2ZWQiIHN0RXZ0Omluc3RhbmNlSUQ9InhtcC5paWQ6M2UyM2FmOTYtNTVjNy00ZWEwLTg5M2ItNWU4YzhlNWNhZjA2IiBzdEV2dDp3aGVuPSIyMDIyLTExLTIxVDE1OjUwOjA0LTA1OjAwIiBzdEV2dDpzb2Z0d2FyZUFnZW50PSJBZG9iZSBQaG90b3Nob3AgMjMuMyAoTWFjaW50b3NoKSIgc3RFdnQ6Y2hhbmdlZD0iLyIvPiA8L3JkZjpTZXE+IDwveG1wTU06SGlzdG9yeT4gPHhtcE1NOkRlcml2ZWRGcm9tIHN0UmVmOmluc3RhbmNlSUQ9InhtcC5paWQ6ODk4ZGJiMDYtNjc5MC00MjZjLWFhMDgtZmEwNGU1NzhiZTZjIiBzdFJlZjpkb2N1bWVudElEPSJ4bXAuZGlkOjFkNzA2ZjJlLTY2ODktNGVkMy04ZTVkLWQ5Y2ExYTU3YzMxOSIgc3RSZWY6b3JpZ2luYWxEb2N1bWVudElEPSJ4bXAuZGlkOjFkNzA2ZjJlLTY2ODktNGVkMy04ZTVkLWQ5Y2ExYTU3YzMxOSIvPiA8L3JkZjpEZXNjcmlwdGlvbj4gPC9yZGY6UkRGPiA8L3g6eG1wbWV0YT4gPD94cGFja2V0IGVuZD0iciI/PmN7rMsAACaqSURBVHic7d13nCR1nf/x17eqOk7amdm8y0YQJC1J4iEiBkDk4EAJAipg9sRDT70fngHvzp8/0cOAOSDigWAgKMgP9QjiEUQkZ5bdJWycmd1JHarqe398e5jZ2erq6p7qMDuf5+MxLnZVV3+7p/o9Vd+otNYIIYTYntXsAgghRCuScBRCiAASjkIIEUDCUQghAkg4CiFEAAlHIYQIIOEohBABJByFECKAhKMQQgSQcBRCiAASjkIIEUDCUQghAkg4CiFEAAlHIYQIIOEohBABJByFECKAhKMQQgSQcBRCiAASjkIIEUDCUQghAkg4CiFEAAlHIYQIIOEohBABJByFECKAhKMQQgSQcBRCiAASjkIIEUDCUQghAkg4CiFEAAlHIYQIIOEohBABJByFECKAhKMQQgSQcBRCiAASjkIIEUDCUQghAkg4CiFEAAlHIYQIIOEohBABJByFECKAhKMQQgSQcBRCiAASjkIIEUDCUQghAkg4CiFEAAlHIYQIIOEohBABJByFECKAhKMQQgSQcBRCiAASjkIIEUAd/fpjml0G0YJ8DduKNt98zToOX7iVkdFEs4skyrOB3YAlQC+wEJgFeBO254ANpZ/1wHPAlkYXNApddEmsXIQ9uwtdKDatHE7TXlkIMRVLgH2Ao4DlwJ7ASiBV4XkeJiCfAJ4B7gPuAR6uW0mnKQlHIaaPXYETgGOBo4FkDcewMVeWC4HXA+8tPf4A8Hvg18D/TLmkOwEJRyFa3wnAO4ETqS0Qo9i/9PPPwN+AK4ArgU11er2WJw0yQrSu0zG3vDcCp1K/YJxsP+CrwOPA54HZDXrdliLhKETreRNwO3AVcHATy9ELfAZ4Evh4E8vRFBKOQrSODuBHwC3Aa5tclol6gC9j6iXf0OSyNIyEoxCt4e+BR4F3N7sgIfYDbgW+2ORyNISEoxDN9zngOmCX5hYjsk9hbvsXNLsg9SThKETzJDCh+Nkml6MWrwX+ChzU7ILUi4SjEM3RBtyJuZ2eruYD92L6Xe50JByFaLwuzMiUQ5pdkBgo4GZ2woCUcBSisRxMmLy62QWJ2c3E0ZKtFPi++VFq6qWaAglHIRrrFuCwZheiTm4C9prSETwflUygUknw/HhKVSMJRyEa51uY8cw7qwQm/DO1HkB7HiqVRLWn0Z5X+Ql1JOEoRGOcCXyg2YVogEWYyStqozVWexplKdA6vlLVQMJRiPpbiJnEYaZ4M/Dhmp7p+ahsGmw73hLVQMJRiPq7CtOqO5N8A1hW1TM8H5VKoLJptNvcW2qQcBSi3s6ktcZJN9Llkff0NVprEisWotrSIOEoxE4tBXy92YVooqOI2Mlduy5WNo3V0wlNbogZI+EoRP38C2bar5nsK5H20hp7XjdYyixg1AIkHIWoj07MrNoz3UrMpL1l6YKL1dmG3duJzjdvQa3JZJkEIYIlgcOBPUo/8zD99wYxq/c9iZli7G4g6FLn/UC2ISVtfZ8Fri671fOw53aDY0PRa5mmKwlHIbZ3IGa9luMwC1pV8gRwA6bx4fEJj9fWlWXntAdwBHDXdo8qhR7NY8/pNsuw5ostE4wgt9VCjHkVpi/iX4B/JFowgvnifwJzFfkDzNf7QKbP3IyNssMfC+16qFQCe8mc0pjq1qhrHCNXjkLAuZihfZXWfA6jgPMwa760TsVZ6zgZswzE4CuP5Is4r1qM1ZZBj+SaPtHEZHLlKGa6S4EfMrVgnGgf4ICYjrUzSQFvGQtAf+Ma7J4k9oI56Fyh5YIRJBzFzPZt4IJmF2LGUOoEijn8LWtwXnM2iYNPQuf6W+52eoyEoyjLUtCRaI0OuXXwaUyLsmgIBZ57hC4MkzjgNNLnXIG1YBV624aWaoSZSMJRBFLAiGfx7GAKLI3WLXoG1+Zw4AvNLsTMotFDG5elTv7agalzTK8e3bcWrNZt9pBwFIGUgpTl86NnZzM8kiTl7FRXkDNphpyWoAvDqPa5OPue8gfgO8C+pLpAt+551bqxLZquN+nxYH+G69fO4sxXbyA/mGrFevNqvQ9Y3uxCzChKoYc24xz0jgLpzi7gfeQH3qs33HOvSnQ6mBzygD5gI6aT/aPAw5jO9tuaUWwJR1GWBmYlPa5a08Nbdhmg3fHJe9P+ZuOiZhdgxvE9FPjOfm8fe0T7z12v/JfvOER1vxp06HIIL2IWI7sR+D2wtr6FHTftz3RRPxqYnXJ5eCDDjWu7sVNus4s0VUchnbMbTo8OYC3Yy7P3OPaVvNEb7yuS7Ioy2/ci4CRMd6tHMHNjNmSpCQlHUZEGNhWcneFsmc5rRE9PSqGHB7W951t97KSZ3nt0s6f7HrNUspPgYelldWAmsfgDcBvwpphLu53pf7qLutKAozQZ26/yPG5Jf9fsAsw02s2hsu2ec+A7LEqddvSmB3w9/ILGaZvKoY/CLOZ1M7DflAsaQMJRzBTtmOmzRMMoGNyEvfJI31qw9yuLwuiN9ynia+84FvgrZnx7rCQcxUyxGJjV7ELMLBqKnnb2PVUxljVewdUb71fKaSPGWxEFfAmzbnZ3XAeVcBQzhYWc742V24aau9R39jl5vCGm/wmttz2nSXbU4xWPw8yqtE8cB5OTRQgRP2WhB/tx9nyrT7Z7PBw33Kt1cTiBqtvSqyuAe4Cjp3ogCUcxU7iYjsaiEYqjkMl6zqHnKyaMntZbHko0YCRBBtMn8oipHETCUcwUT2E6FIt6UzZ+33oSh5zrWwtXjV8ieoUCI+sLymnI6hEW8EfMZMQ1H0CImaALMyxN1JNlowdfwpq9SzH55s9ud9VIbourR7cUseOaOrOiJHArpn9k1WT4oNgZ7Q4cBhwErAJ6MEukdjazUDs9ZaFz22Ak56Xe9V1N2+xJ+aKIMiQmZosxi3u9pdonSjiKncUczOiJ04FDgLrV+IsAyoLCCLpvs58+/VLffvVxyR32ycxOqOz8pO57FJxMI0t3PGZdoG9U8yS5rRbTXQ/wZeAZ4OuYuRolGBtJWej8EP6WDTr1lv9TcI68IPjzt5wEHUuULg7RhBluvw4sreYJEo5iOvsQ8BjwceSWuTksGz20EQY36dTbLvETx/97ipBcsRYd7SrwIXQmnnr5VjU7SziK6Wg2ZgqrbwLzmlyWmUlZ4Hvojc+hku2F9LuudhOv+5hNhUtCteSNSTX/MF8PvkAd+zqWczxwZNSdJRzFdHMw8CBwQrMLMiMpZUKx73l0/wues+9bi5kL7rLs/U6L1n6hLGUdcrFWyY4CQ2tMyDb2FvuSqDtKOIrp5A3A/wALm12QGccroEf68Tc/j972kmvv+rpi+txr/dR5Nziqd6VDFQmnulYk7DdeoVX78oLuf1KT3wLareYQU3EwsH+UHaW1WlTka0jbPiiNpmmLxR2J6bPWIpT5Qvu++e9SLxXtFSo8xwevYHq0lBsporXZJ5SOMG+DjtBzpsI+WoPGU9ku1+pdoewlB/v2vidb9h7HOkzh4kr17pOyT7jOVY/9qKDX/d7S21b72h1OoCzLfJ7m0Ao1/jkpe/zHcsw+dpIazsgLgbMr7SThKCpKWpoNowk818JWTVlmeCVm7r7WYDno0QFwc65yUnmzNKMPylFWpguUpQMDR/tgJyyV7UmbL3+ZfSwHMt3h4WnZvkpmh0qP7Lij74GTxmqfU/59eEWfdGdKdcxPBy505buQbINsr291LXKtxftncNIQ1x2nk3WsfT9ss/f7NZv+VtS5jQ75AfDyWuf6hnFzvi5s1Xj5JF4ug18ANwfuqIc7nNduDka3JEl2ODjZahbrOhX4CNAfWrwpvj0xA3QkfO7ZnMXLO6QtzYjX8GvH6zHjZVvDcB/WvFe5yWMv9lS2W5urRxNqKtMDVplw9H2Nk1CqbTbh4ZgAp+IoEguY0myxpQJECbpE6aceFJajmHdQdsJZpdT473v7MnoFcEegOOjj5tBD6zz/oW9YeugFi0R71NdMY2YR/3nYThKOoqKkpdmYT7Ah57BLVx7tOY28tb4U2KtxL1eZv62f5OGvVfbub0oBDRsLF2Bn7s8Z/N7sJNhJm9SsdgA1azd4+uea/ieoIhzBtFxLOIqpyTo+q4eS/PDZ2XzuoBewaVgvtb2BCxrzUtFZvfPxHrpOFZ20R9fiHb/EWqOcVAEnlQO945WZ1qB9VFsvKtlmboEDd0KpjnlZEhmrzD7muqpjbqnurcxhlNLKThRBBVeIaA2WZW7nd1RTpV4NNGAqWn0XtGejPYfiMLgj6OJQkcLgKMURi+Kwr3Uhi190dP8Tnt7ysCI7t9oyHom5Ii17Kks4iop8DT1Jl7s3t+ONOiQdn5zbkI4O32/Ei1QtmUUXhqz8LV8oOwmasrCxVBL0jl/asYhKpFFOqszSpKWdUh0KK0Hgd1ib/1GpjlcaMIILoyCRLaAsHVweUyVgtc0xIak1pnXJV3TMS1g9y4v2iiO1tfKoBPH1cNHk+z298a+uHnjS1sMv2uQGirijmsKg1rqYwi84+AXwiuAXLNx8qvT/tdauhfbAydgqO8800oQv8TrZMswY/MfL7SDhKCLpSPisGU5y6VNz+diqF1Fust7rbR0FHFrfl6iR74GdxOoJGY2mtQ065LZXmQYE3w+9LtO+Z8IhZCdd2ED5pmsFaIXvt1fYB98rsH13BIUu5qCIo7Ipz17+d8Xk8V9Q1tLDylymRuLrjfe7+vkbtX7pT8offimBO6KwkxZWsl2psSvYsRbr0r/KsklkbVQ7oFBq+wl/qgzGsTe9JxKOYqoU0JVw+enqXs5Y2sfCrlGGRlJYZe7UYnBhvQ7cEJO/vIH7VF7utvGDSCa9vvlfC69guU/+Ae+5O4rpM3/i2vufUX12DDzleg9d5umXbrd1fqutMrOVyswJv+qtr93CNkoncBGJBtoTPnlP8cVHF4C2SDteva4eFyEjYFqIBjuBNWcFOOlE7vIz8Z65vVjNAfxHvldwbzkT//kbUiTaHdW1XJFob2YwgpnOrCwJRxGZrxXzM0VueKGLq5+ejZP06nUCnYqcm63H91Dts8GxnML1F5p+kpUUBl3vtg943l++kMCyHdW50nRVavi0joEWhG2UE1BUxQJmp12++fQc8vkEmaRXj/P8DbEfUcTD91GzFuOv+6vlPXpD+NXjyIaie8sZnr/mZlt17apw2qrpqN0Is8I2SjiKqmigw/HYWrD55dpZ4PjY8Xb0SGNm8BatSlloH8t75o/lO4YPv1x0bz3H1wOPp1TXytIZ0hJXixOFhruEo6iarUzr9ScfWMQ9L3eS7sqZEXTx2BWYH9fBRB1ojUqllN6y2iUoYHzX827/sK8HnkqpjmW1tCQ3SuhJK+EoqqYxHcO7kx4XP7yA/q1p2trycQXkyjgOIurMtqEwmsMseTuR793zGe1vvC+lupa3cjBWJOEoauJrmJ8u8tS2NGffuYK+kSRt6WIcASmT104XasfJGPXaWz3/yZ9aqnNZC95F72BT2EYJR1EzVyuWteV5bFua8+5agacVbSl3qg00IdPIiFahCznonN/GxLHlxWHfe+Arlkr3WGZUT8un44awjRKOYko8rVjeVuCB/gyXPTYfHA/HmtKXQgYmTAeu71tz99hu6I7/zDWe7n/MIj17utxOPxO2UcJRxGKXbIEvPjqPm57vJdWVCxzCG1FL9fUQAXwPlU5hLT1s/Jfsu76/+kZId6sW6cMYxdNhGyUcxZRpIGVr5mVcLnlsHs9u6CCbLtZ6V7U53tKJuOnCEFbvCs9aNh6O+qW7XPoft1Wym2lwOw0wAjwUtoOEo4iFr2Fuqsjq4RSfun8x2Jpspqb6x9BKctFkyoLBAazFByRUqv2VKhB/9a+T+K7V5OGA1XgW2Bi2g9TviNi4WrG8Lc+j2zL82/2L+cS+L9GWcRkeTaCiT1BxG2YRLWm1bkG6OIqaNddNHPY+jwmNMSo739OWY02lPqXBvlxpBwlHESsFzEkVufy5Xu7c2M53D1vDsu4RhodSUQNyC3B4fUspaubmUV2LsRbut93DqnMlY1OfNW0JtphNm2tgMT1owFGwtK3Ac8Mp3nnXctZuTdPWnp9GFxWiLGWZZVpHB7Z/3Ms1pTix0WaedCcDTi84PRKOog506WdZW571OYdz7lzJuoE02Y7YRtEIERvtm1C058HLm+CX/6347V1KbqtF/XhasTRbYO1IkrPuXMnPXvsci7tGGR5Kll11VIhG0j4kusDPwaW/tLjxQcXqzZB0pM5R1JmrFUtKAXnmHSu48sjnWDJrtGIdZDbpge3HeCtulk/JF2xcXwWGs9aKrOOhkl7I62r8os2oazUu4HXp83DKfB5KQ9FmpGiXXUMr4suggGzKLR0n6A0WIO1Bd+/2Rehpw2n3zGKxFjAKft4sL1ZVjwUNjoM5Tj16BI2A62JWqSgFo/Y05//E5vqHLFbO0ew6x/S+kHAUdTcWkGuGk5x15wp+fMRqVs4dhELA6adMiD29JcvmfIKUHc9IC08rHKXZf/YwKccnP+rgamWaEDRkEz4qXWRwMM0jm9vLvm7BV+w7a5S2jjz+aKKuIak0ZFIeJD3WbMnywkiSTEC5RlyLXTvyzO8egbzDSMGuuk3EAtJpE4qPb25ja9EmGTDSSRdsrOEMyXvuRXXMHX98zfP4z2UgrRgtKvZeoMn2avCVWWR1CNyQpXC0hoQDdAGD8LcnzB8wK6bP1i+9lVXLNE4nMGBeS7tw/g9sbn1Ksf8uGl+P76uOfv0x8by6EBXYSrN2JMmu7Xku3Gs9KQWuv/3Zn3B87t3UxjVrehh2LdIxhePY67x27hBnrdjCQfMGAfALNlamSH40wfUvzOKa53t4cmuajBP8ujnPYu+uUd6+vI8TF23FSrv4o06sIamATMqFhMe6gQzXPt/Ddeu66c/bgeUacS0WZoucsrSPU5b2M7sjDznHXEmG0SZ80uki2JrHN7Vz9fM9/O6lLvKeIhn42SuzMGF+cPshgnYKZacBn5ECrFoEXZ2a5V1wxO6aw5dq6AS2QrHIK5/VdqFYgNseUVx5t8V9ayBhxxeOng+uD0es0JxzuObQPTX5UbjgCoubn1DsNmc8FF95pxKOopFspdlWtBku2lhlxmC7vqIr6ZG2ffyYbqsVGl8r1ucSpCyfNywY5NxdN7PXrBFuWNfNz1b38GBflozj05Nyy76upTRb8g45z+Kg3mHOXNbHCYsHIOXijyQZ9YJv2St55ZY26ULS44WBDNeu7eG6tbNYN5RiTrpIm+PjBZRr7DPtzzu8qnOUk5f1c+qSfnpKITlcsLcrk9ZmTs50pgi2zyOb2rl6dS83v9BFf8FhQaZA0tbhn70/eaaysdUCwbZgYBRGcgptaSzg0OWasw7RHLOPhgzQX3rTPUAe7nxEceW9ijueNq85t6P6zzCK9YPQnoSDVmi2blM8sh7md+4YjCDhKJokrDqpnlV5loKir3hxJMGctMuStjwP92dJWJrZKbdi2cbKp4GNOYdRz+KQ3mHOXD4Wkh7eSIKcZ0Xu+K41tKU8SLq8PJDh6jU9XL92FmuHU8zNFOlwvMBQDHpvAwWbvrzDbh053rasj9OW9tPRnodcwvxBUppM6Urx0c1tXLW6h5temMVAwWFhtkDGDg7gWinMitsbtkHBhSNWas44RHPsARos+MPfFD+7W3Hn0wrLgoWdE5bOrgNLQdGDvmFzxdqTDQ5GkHAUM5SlNDnPYsS16CotFFbt91GZO0w25BKMuBYHzx7itGV9nLjLAE7KxR9NMuqGXEmONbSkXDYNZPivNT38am03a4eTzE0X6Uj4Zb+44e8N+gs2W/IOu3fmOG1pP29b0kdHRx58i8c2Z/mv53v53diVYh1CMahMnoaXt0LBVZxyoI9jw7X3WdiWZmGXueKs5f3Wi4SjEFM0MSRzrsVr5pRCcvEAtuMzMrr9Uitam4k6nHSRl7elueb5Hn61rps1w0nmpFw6Y1i0bCzm+go2fQWHvbpGOX3FFvpHE/x0dS/9eZv52SIZWzc0kCxlAnD9NvM5zO8yt/itFIpjqgnHWcABmDGvvZgGrk2YCSMfocIg7ohSQJIdp62ygRwVFsSpk8XA3pj33YUp2wbgJeBBYDim18lg3ufkWnAbGGXH6egnc0rH8Nn+IsjClDlHtIsjB8hWeD2rtL2ewyIUZrGtoM+kFg6mvIUI+6aBBFWeh2OBtDHnUPAs9uoe4aJ9XubABdsYGUpNaAAxrcLfe2Iulz87mxdHksxNuXSVQjHkl7S4VLaJ5bIwn8/qcmVSCvryNnnPAgVdCY+M44cFsIU5lyDaOWMDgxH2q0a587kWqvQzShVT4lUKRxs4DTgL2J/yCx9tAR4ArgV+Ru2B8V3MYu6TvwwW8B/AZTUet1qLgTOAfwD2AspVD78A3IV5zzdO8TXvApay44lgAR8Bflnh+e8BPseOn50C1gHHYKZpquQ04D8JP4lUaXt/6d+1mOmfHgZuBbZGeJ1KOoDbgbnE0+PNBn4AfCbCvtdixncHnYf/F/hG2JPH6iTXDCfpcHx+fMRq9l+wjfxwklSmwOot7Xz+4QX8eWM7HUmP7mT5BqAJdgPuwwRGUDgeh/m8yhr7ECPcPK8CfjPhrVRiYcIxh/nd/wW4t3SMWrPgVOBrxPOHEcx7eQ9wc5ntxwF7lv77buCusH6OZ2K+bLtFeOFezFrDbwD+FbgY+H6E5022HFhYZlujZmn5HPAJxv9yhlmMCZPTgHuAzwK31Pi6e2GuTIP0lnl8ormU/+w6iT5UtJcKi51PsKT07wHASaX/7geuB76D+UxqZQP7EG9f3MUR99uN8p9lxZURx9JkRXueDbkE7/rTcq74u+dYtayfyx9YxKWPzyfnKRa1FUyyRavr+yDlzw+AT1EhHKuoUcwS/bMK8trSvxsxFzQX13CMHsr/Dmo1q8zj7wb+H3An5mO6AHh/0BcmAVyNuRqKEoyTLQa+B9xA+C8zyLaQbVGueqZiD+CvmICLEoyTHQL8DvMh16IvZFuU29fRCseOevU11VvlbuBdmL++36b2cNOYO5I4DUXcbyBkW+Tz0NOK+ekiWsGn7t+Fi+9azqWPzcdWmsXZYuTLMkxYvbvCPsdi7jziUKkKJ6q5wOeB+6l+baB6VNnkAx7rAA7D3Jm2Y8bm3AocNzkc2zFz6Z0WQ0HeirlymFtpxxZwCKas+8dwrH8GfhHDcXYG78dUt8zY5VbdUkD2FW1+9uxsupIu3Umv2gaIdxDtQuMjNRWy/g7AzNOZbHI5gmQwF2VPYbIqD1yBaTzfzk3AgTG+8O7UfpvZKPMxZeyM8ZinYOpPhWnMuoNoVQP11pRZqFytaHN8FmULtbbMXhBxv3MxDTataE/gi00uQ9CQoY2Yu65/Bz6Aqee8Bnh64snyJeDIiC/iE72idD8a15BSi18Q/fa/msrh9wJvq744O6WFmHrIZutudgFqcCSmPjqKWcDp9SvKlF1Aay69+1XMHfMpwPGYK8fLxuqD9sY0QlTybeA6TNcdgIMwFfGV6kM+iGkpfKCaEjfAucARFfZ5CXMVeDPwIqZO9nWYD/KtFZ77g9LzotZ1tbo1wJWTHlsGHEXlCvwjgPOAH8ZUlu9gzqeodZqdmB4B080/Vbn/BcDldSjHmAHM93kQcyU2Nn3nEuBg4JyQ59qYRturpliGBzGZo4h2NzC231Nltvdjrhr3wnTTegrGT6zPVTj4auBExkNxzA2ln2+X/g1ryfss4y2arcCmcivaLZguPf2THv9J6eec0r/ldGI+9IrrVUwTjwCfDng8gWmEuYTw6okvYD6vOCr8f4jpMrIzWwicXOVz9sNcbd4Ze2mMEcqH22XArzAXUOXsHUMZ+qjPhdajE/+Pheki8w8hT9iC+bAnB+NE95X2CevT9PfALtHK2BBvBhaFbL8H0wI4ORgnuoLKtzGVrqqnk7YyjxcxXbcOJbzVfQHmyiEOcXfzaEUfDNk2SvnG7o/GX5RX2IRXQ12PabsoJ4460YbMpGlhAiDsxT6JuZ2s5Bng4xX2CQvhRjuxwvYzIx7n56Wfcl6N6SY0EzxO5T8Gx8f0WutiOk6rsjH11kGGMHc05bo6nUT0vqr18HTItjg69Hdg+kQvx/SECPvZHdPFqepAdYDXhGzfQPht42TfwdyCBw35cigzxKlJDgrZdgvwXBXH+jLh3Z8OA56o4njT2Q2Y0TL7ltketXGhkvMwdU9R/YHqfqfN9nbKN178CXOFdj5mRNlkFvAhgqtA4lCpWuTYkG1hfZmj2p/xW+BKdY42JndWEd4XeAcOsGvI9j9Rff1Qq3fdAVMvFtaA8Jsqj/cA5hewvMz2Vmyhq6ebKR+OCzAnbOQxrmV8qMr9z2d6heOFIdvGLlguJzgcwQyV+wzxDb8b41O++mwuZhDE7iHP/3MMZZg49juKHmq8cmwP2f5ytQecJtoI75AaVm8WxMeMLy4XjjNtgfqwSUgyBE/qUG9xT4xQTwdR/s6mn/Fx9tdj7u6Czq+5mKvPq2MuW0/pdUcxv0cwdc6dmPHoYfWRL2E6gzfaEDXczjuE/2WZqWvM1PK+w+akb3QQTNbotf7CPguf5n8ere6jIdt+yPisQC7m6vGTZfb9J+IPxxSV6+vLuZD4hibWnUV4HcCKRhWkwbYRXv9Q7RhVG9Pfr5z1VR5vsihTtbVS4JS7ggbTT64ZU89NF7MxV3xBhoCLJj12EeWvig+mfPVGo32f8IbLelpKDaOjHODZkO1HYEYVhHVnmWwJ4x1DJ7/W1iqPVS/DmNvgct1BTsH0yYvqMMLrMKPUdYVdrdYyEcZEA1RZGT1FbwnZ9nyjCjFJnVYlid35jN+uTjYMfAxTJTQ2Vdlo6afc+7sQ0we1mS7BzDkQl/WYhr+othBtHs/tOJhRA+UGrLdhOm9/NOLxPs14C9nkcExjWrFapcHmHky/vCCrMBXdURtmwuYI1EQbmbGV8v1AjwR+VOH5YZNmDBF/xXw5H2J8KrMgcY1SuRXTdahc38uJLEwL+nTw4ZBt8zCzx1TjDMz3d6DG8kzF7Zip1O6O+biPAO+L+Zg7cDBhlaN858wLgP9PeMdOMHO4hV1tjWLGL9Yq7onUf0X4gP4rMfMJVupP9zHgjSHbb8PMmF7JM5QfPfB2zF/ezWW2dxI+jntNhNePotLv4HjgmxX2+XVMZfkM8X/poqjnhP4nEj4woRZJTH/JWqfSm8zHXInlS8euNOtWPX5HU72TisTCXLFMHi872W8J761/DvD7Cse4hKn1cYp7fPIdhPc97MJcXb6pzPYk5gt6SYXX+WrE8oQNh8piwjyoJbATMwt5NuT5cZ2g5eoK98PMZvLbCs//LfH1dZ0d03GqVc9x8mHdd6ai2m5PYTZjZu7aDXgV4fWIRwFfj/G1x9RzeY5XjNVz/RumriPMZZiJGn4NPFZ6bDfMsMDDKzx3G/CVGss45nxMh/UoLclZTH+qSsH1ScJni1mAubK+CXOLPdawchDmai6sjyiYwIt6a/5bzMSg5RyJ6fh6FeN9xQ7FjOSpNOlDpdCKahVmyOTYPK1zMPW2USv9K42gqkZTph/DfAcOINp52Ib5w/SlCPvuiQmTelhCddVEYXzG76ZymO/lmyk/y/Y/Yv6w3xbDa49ZjpmzQBHeM2IiG/hvqhg4MPYLXoOpl7i0wv4HUtt8j+9h6uuK7Ff6iWoXKofjDZhB8idV2O94ahv2FnUIIpjZkh8gvO5wEdUHzG8Ib3Srxjzg7BqfexE7xyihVaWfqFYSLRzjvLoL8lHiCUeFuYMZ+z4PYYaMhlWXXIX5Ax5Xj4oVwLdqeN6/UkU4Tvzr+zXq09T+n5jJIxttQ8T9zsS0XMftbKoPg7DK+FpFmYqu3n5M9Q0JO4so3bg6gHeGbL8MMz7/gJCf3QlvtDuG8QWk4nYdZlGycuZT3TDkeqmqWm/yrcnphE83VK1LqV89SlxGMbenj8d4zI9QuR43yJ+JN0Q+SLzvqxb/gbkVFeWdR/lWd42p234Sc2dR7ucp4F8qvE49l1F4F+Fr/ryD8kMdW1JQvc3JmCnDp6KAacWtdqLOZnkZE5BTvXJej2lxDF26s4KLiKdl8ZOYeTab5SFMVcTkTstiR2GNnb8h+nDWjZRfehTMEsthw4WnYoTKfwSvoPpF95qmXKX2pzEdwG+t4ZjXYOoGo7bSTlRx2csqVDtl0zbMlfPZVN8nbhDzfvdm6utXgwm2tzFp8s2I7sZ0Lao1YKeylk4BswLjWZh6ubAvaiVjc42WE6V/Y63i7E5Tad7J8wlf5bPaJUbCulK1EW1wQypk2zzK58YNhA9X7Mb0fYzyu6tHp/2qgjmsxe3PmG4sh2C+qIdgWosnf3CDmMaEP2HqHabS2fZGxheKnwqb2tdMvrL0cwKmoeZgTF3N5FaxTZgg+iPmhJjqEMHJfoGZYOAkzNXo/ph6p8mf/zDmM/8bpuV9qp3sH8G0blcaA2tjrhb6MBMK3IfpxRBX/W0eU0/Vw44d2C3ia2QK8nNMuMdxHt5fYZ9egj9vG9Ntptrf502Y8dfz2LH8FtH6aU4cgTJxfwvz+w5a4nTMexmfNSdo4MEsTIPKwxXK8BjmqjmuRhybKmcPV0e//pio+87HdNlYgOkwrjDB+DLmjUbp6FxJgnhmbLExffLiGMO7G6ayez7ml64YD4T7aVCfK0y3oRWY7jNjf1X7MPU8TxBtQuIobMzvN0o4hs1GHYckwXODWpgvaL1G/TTyPJyFueKe/Fpjf3xqlQ04poX54zpQ4bmK8T/Ck8PRo/JQvLHXCfr9ZEuPV+q9YpeOEWc45qs5ntK6nue2EEJMT83qSCuEEC1NwlEIIQJIOAohRAAJRyGECCDhKIQQASQchRAigISjEEIEkHAUQogAEo5CCBFAwlEIIQJIOAohRAAJRyGECCDhKIQQASQchRAigISjEEIEkHAUQogAEo5CCBFAwlEIIQJIOAohRAAJRyGECCDhKIQQASQchRAigISjEEIEkHAUQogAEo5CCBFAwlEIIQJIOAohRAAJRyGECCDhKIQQASQchRAigISjEEIEkHAUQogAEo5CCBFAwlEIIQJIOAohRAAJRyGECCDhKIQQASQchRAigISjEEIEkHAUQogAEo5CCBFAwlEIIQJIOAohRAAJRyGECCDhKIQQASQchRAigISjEEIEkHAUQogAEo5CCBFAwlEIIQJIOAohRID/BdQ1tC44nx82AAAAAElFTkSuQmCC;clipPath=inset(20.41% 0% 24.49% 0%);" parent="I1IXjIapEW5mU9hD-b8A-41" vertex="1">
          <mxGeometry x="20.5" y="13.95999999999998" width="239" height="86.04" as="geometry" />
        </mxCell>
        <mxCell id="I1IXjIapEW5mU9hD-b8A-44" value="&lt;font style=&quot;font-size: 18px;&quot;&gt;Cloudflare&amp;nbsp;Argo Tunnel&lt;br&gt;&lt;/font&gt;" style="text;html=1;align=center;verticalAlign=middle;resizable=0;points=[];autosize=1;strokeColor=none;fillColor=none;fontStyle=1" parent="I1IXjIapEW5mU9hD-b8A-41" vertex="1">
          <mxGeometry x="30" y="110" width="220" height="40" as="geometry" />
        </mxCell>
        <mxCell id="I1IXjIapEW5mU9hD-b8A-45" value="" style="shape=actor;whiteSpace=wrap;html=1;" parent="1" vertex="1">
          <mxGeometry x="1715" y="1543" width="50" height="60" as="geometry" />
        </mxCell>
        <mxCell id="I1IXjIapEW5mU9hD-b8A-46" value="Webサイト" style="text;html=1;strokeColor=none;fillColor=none;align=center;verticalAlign=middle;whiteSpace=wrap;rounded=0;fontSize=16;" parent="1" vertex="1">
          <mxGeometry x="1690" y="1603" width="100" height="30" as="geometry" />
        </mxCell>
        <mxCell id="I1IXjIapEW5mU9hD-b8A-47" value="自宅へ&lt;br style=&quot;font-size: 16px;&quot;&gt;OpenVPN接続" style="text;html=1;strokeColor=none;fillColor=none;align=center;verticalAlign=middle;whiteSpace=wrap;rounded=0;fontSize=16;" parent="1" vertex="1">
          <mxGeometry x="1390" y="1352" width="115" height="30" as="geometry" />
        </mxCell>
        <mxCell id="I1IXjIapEW5mU9hD-b8A-48" value="???.ma2kz.net" style="text;html=1;strokeColor=#d6b656;fillColor=#fff2cc;align=center;verticalAlign=middle;whiteSpace=wrap;rounded=0;" parent="1" vertex="1">
          <mxGeometry x="1790" y="1600" width="102" height="30" as="geometry" />
        </mxCell>
        <mxCell id="I1IXjIapEW5mU9hD-b8A-49" value="&lt;span style=&quot;font-size: 14px;&quot;&gt;Cloudflared&lt;/span&gt;" style="text;html=1;strokeColor=#d6b656;fillColor=#fff2cc;align=center;verticalAlign=middle;whiteSpace=wrap;rounded=0;" parent="1" vertex="1">
          <mxGeometry x="2200" y="1590" width="80" height="30" as="geometry" />
        </mxCell>
      </root>
    </mxGraphModel>
  </diagram>
  <diagram id="h1KH-kXRuicaqUSGSIap" name="ページ2">
    <mxGraphModel dx="2245" dy="820" grid="1" gridSize="10" guides="1" tooltips="1" connect="1" arrows="1" fold="1" page="1" pageScale="1" pageWidth="827" pageHeight="1169" math="0" shadow="0">
      <root>
        <mxCell id="0" />
        <mxCell id="1" parent="0" />
        <mxCell id="6GmrFoaWCR1EvFPG34b0-9" style="edgeStyle=orthogonalEdgeStyle;rounded=0;orthogonalLoop=1;jettySize=auto;html=1;entryX=0.206;entryY=0;entryDx=0;entryDy=0;entryPerimeter=0;strokeWidth=2;" parent="1" source="6GmrFoaWCR1EvFPG34b0-2" target="vTVf89vOjmCwnk7JqrYy-13" edge="1">
          <mxGeometry relative="1" as="geometry">
            <mxPoint x="440" y="610" as="targetPoint" />
          </mxGeometry>
        </mxCell>
        <mxCell id="6GmrFoaWCR1EvFPG34b0-2" value="" style="sketch=0;points=[[0.5,0,0],[1,0.5,0],[0.5,1,0],[0,0.5,0],[0.145,0.145,0],[0.8555,0.145,0],[0.855,0.8555,0],[0.145,0.855,0]];verticalLabelPosition=bottom;html=1;verticalAlign=top;aspect=fixed;align=center;pointerEvents=1;shape=mxgraph.cisco19.rect;prIcon=router;fillColor=#FAFAFA;strokeColor=#005073;" parent="1" vertex="1">
          <mxGeometry x="140" y="230" width="120" height="120" as="geometry" />
        </mxCell>
        <mxCell id="6GmrFoaWCR1EvFPG34b0-3" value="" style="fontColor=#0066CC;verticalAlign=top;verticalLabelPosition=bottom;labelPosition=center;align=center;html=1;outlineConnect=0;fillColor=#CCCCCC;strokeColor=#6881B3;gradientColor=none;gradientDirection=north;strokeWidth=2;shape=mxgraph.networks.pc;" parent="1" vertex="1">
          <mxGeometry x="-120" y="600" width="155" height="140" as="geometry" />
        </mxCell>
        <mxCell id="6GmrFoaWCR1EvFPG34b0-8" value="&lt;font style=&quot;font-size: 17px;&quot;&gt;ssh user@100.96.0.xxx&lt;/font&gt;" style="shape=callout;whiteSpace=wrap;html=1;perimeter=calloutPerimeter;position2=0.63;" parent="1" vertex="1">
          <mxGeometry x="-240" y="495" width="190" height="90" as="geometry" />
        </mxCell>
        <mxCell id="6GmrFoaWCR1EvFPG34b0-10" value="&lt;font style=&quot;font-size: 22px;&quot;&gt;WindowsPC&lt;br&gt;192,168.0.aaa&lt;/font&gt;" style="text;html=1;strokeColor=none;fillColor=none;align=center;verticalAlign=middle;whiteSpace=wrap;rounded=0;" parent="1" vertex="1">
          <mxGeometry x="-97.5" y="760" width="110" height="30" as="geometry" />
        </mxCell>
        <mxCell id="6GmrFoaWCR1EvFPG34b0-12" value="&lt;font style=&quot;font-size: 17px;&quot;&gt;ルーター&lt;br&gt;192.168.0.0/24&lt;br&gt;192.168.0.1&lt;/font&gt;" style="text;html=1;strokeColor=none;fillColor=none;align=center;verticalAlign=middle;whiteSpace=wrap;rounded=0;" parent="1" vertex="1">
          <mxGeometry x="135" y="360" width="130" height="60" as="geometry" />
        </mxCell>
        <mxCell id="vTVf89vOjmCwnk7JqrYy-1" value="" style="group" parent="1" vertex="1" connectable="0">
          <mxGeometry x="480" y="72" width="370" height="160" as="geometry" />
        </mxCell>
        <mxCell id="vTVf89vOjmCwnk7JqrYy-2" value="" style="rounded=0;whiteSpace=wrap;html=1;fillColor=#FFF2CC;" parent="vTVf89vOjmCwnk7JqrYy-1" vertex="1">
          <mxGeometry x="6.607142857142857" width="356.7857142857143" height="160" as="geometry" />
        </mxCell>
        <mxCell id="vTVf89vOjmCwnk7JqrYy-3" value="" style="shape=image;verticalLabelPosition=bottom;labelBackgroundColor=default;verticalAlign=top;aspect=fixed;imageAspect=0;image=data:image/png,iVBORw0KGgoAAAANSUhEUgAAAUcAAADWCAYAAABCBEA5AAAACXBIWXMAAC4jAAAuIwF4pT92AAAJWWlUWHRYTUw6Y29tLmFkb2JlLnhtcAAAAAAAPD94cGFja2V0IGJlZ2luPSLvu78iIGlkPSJXNU0wTXBDZWhpSHpyZVN6TlRjemtjOWQiPz4gPHg6eG1wbWV0YSB4bWxuczp4PSJhZG9iZTpuczptZXRhLyIgeDp4bXB0az0iQWRvYmUgWE1QIENvcmUgNy4xLWMwMDAgNzkuOWNjYzRkZTkzLCAyMDIyLzAzLzE0LTE0OjA3OjIyICAgICAgICAiPiA8cmRmOlJERiB4bWxuczpyZGY9Imh0dHA6Ly93d3cudzMub3JnLzE5OTkvMDIvMjItcmRmLXN5bnRheC1ucyMiPiA8cmRmOkRlc2NyaXB0aW9uIHJkZjphYm91dD0iIiB4bWxuczp4bXA9Imh0dHA6Ly9ucy5hZG9iZS5jb20veGFwLzEuMC8iIHhtbG5zOmRjPSJodHRwOi8vcHVybC5vcmcvZGMvZWxlbWVudHMvMS4xLyIgeG1sbnM6eG1wTU09Imh0dHA6Ly9ucy5hZG9iZS5jb20veGFwLzEuMC9tbS8iIHhtbG5zOnN0RXZ0PSJodHRwOi8vbnMuYWRvYmUuY29tL3hhcC8xLjAvc1R5cGUvUmVzb3VyY2VFdmVudCMiIHhtbG5zOnN0UmVmPSJodHRwOi8vbnMuYWRvYmUuY29tL3hhcC8xLjAvc1R5cGUvUmVzb3VyY2VSZWYjIiB4bWxuczpwaG90b3Nob3A9Imh0dHA6Ly9ucy5hZG9iZS5jb20vcGhvdG9zaG9wLzEuMC8iIHhtcDpDcmVhdG9yVG9vbD0iQWRvYmUgUGhvdG9zaG9wIDIzLjMgKE1hY2ludG9zaCkiIHhtcDpDcmVhdGVEYXRlPSIyMDIyLTEwLTE3VDExOjQ2OjEzLTA0OjAwIiB4bXA6TWV0YWRhdGFEYXRlPSIyMDIyLTExLTIxVDE1OjUwOjA0LTA1OjAwIiB4bXA6TW9kaWZ5RGF0ZT0iMjAyMi0xMS0yMVQxNTo1MDowNC0wNTowMCIgZGM6Zm9ybWF0PSJpbWFnZS9wbmciIHhtcE1NOkluc3RhbmNlSUQ9InhtcC5paWQ6M2UyM2FmOTYtNTVjNy00ZWEwLTg5M2ItNWU4YzhlNWNhZjA2IiB4bXBNTTpEb2N1bWVudElEPSJhZG9iZTpkb2NpZDpwaG90b3Nob3A6MmJiOTEyY2EtZTVhNi04NjRiLTllMjUtMmNkMzM2ODlmOWVkIiB4bXBNTTpPcmlnaW5hbERvY3VtZW50SUQ9InhtcC5kaWQ6MWQ3MDZmMmUtNjY4OS00ZWQzLThlNWQtZDljYTFhNTdjMzE5IiBwaG90b3Nob3A6Q29sb3JNb2RlPSIzIj4gPHhtcE1NOkhpc3Rvcnk+IDxyZGY6U2VxPiA8cmRmOmxpIHN0RXZ0OmFjdGlvbj0iY3JlYXRlZCIgc3RFdnQ6aW5zdGFuY2VJRD0ieG1wLmlpZDoxZDcwNmYyZS02Njg5LTRlZDMtOGU1ZC1kOWNhMWE1N2MzMTkiIHN0RXZ0OndoZW49IjIwMjItMTAtMTdUMTE6NDY6MTMtMDQ6MDAiIHN0RXZ0OnNvZnR3YXJlQWdlbnQ9IkFkb2JlIFBob3Rvc2hvcCAyMy4zIChNYWNpbnRvc2gpIi8+IDxyZGY6bGkgc3RFdnQ6YWN0aW9uPSJzYXZlZCIgc3RFdnQ6aW5zdGFuY2VJRD0ieG1wLmlpZDo4OThkYmIwNi02NzkwLTQyNmMtYWEwOC1mYTA0ZTU3OGJlNmMiIHN0RXZ0OndoZW49IjIwMjItMTAtMTdUMTE6NDY6MzctMDQ6MDAiIHN0RXZ0OnNvZnR3YXJlQWdlbnQ9IkFkb2JlIFBob3Rvc2hvcCAyMy4zIChNYWNpbnRvc2gpIiBzdEV2dDpjaGFuZ2VkPSIvIi8+IDxyZGY6bGkgc3RFdnQ6YWN0aW9uPSJjb252ZXJ0ZWQiIHN0RXZ0OnBhcmFtZXRlcnM9ImZyb20gZG9jdW1lbnQvdm5kLmFkb2JlLmNwc2QrZGN4IHRvIGltYWdlL3BuZyIvPiA8cmRmOmxpIHN0RXZ0OmFjdGlvbj0iZGVyaXZlZCIgc3RFdnQ6cGFyYW1ldGVycz0iY29udmVydGVkIGZyb20gZG9jdW1lbnQvdm5kLmFkb2JlLmNwc2QrZGN4IHRvIGltYWdlL3BuZyIvPiA8cmRmOmxpIHN0RXZ0OmFjdGlvbj0ic2F2ZWQiIHN0RXZ0Omluc3RhbmNlSUQ9InhtcC5paWQ6NGNjNzBhYTMtMThhMS00MmVlLTlkN2EtMGM3Y2QxOWEzNmFlIiBzdEV2dDp3aGVuPSIyMDIyLTEwLTE3VDExOjQ2OjM3LTA0OjAwIiBzdEV2dDpzb2Z0d2FyZUFnZW50PSJBZG9iZSBQaG90b3Nob3AgMjMuMyAoTWFjaW50b3NoKSIgc3RFdnQ6Y2hhbmdlZD0iLyIvPiA8cmRmOmxpIHN0RXZ0OmFjdGlvbj0ic2F2ZWQiIHN0RXZ0Omluc3RhbmNlSUQ9InhtcC5paWQ6M2UyM2FmOTYtNTVjNy00ZWEwLTg5M2ItNWU4YzhlNWNhZjA2IiBzdEV2dDp3aGVuPSIyMDIyLTExLTIxVDE1OjUwOjA0LTA1OjAwIiBzdEV2dDpzb2Z0d2FyZUFnZW50PSJBZG9iZSBQaG90b3Nob3AgMjMuMyAoTWFjaW50b3NoKSIgc3RFdnQ6Y2hhbmdlZD0iLyIvPiA8L3JkZjpTZXE+IDwveG1wTU06SGlzdG9yeT4gPHhtcE1NOkRlcml2ZWRGcm9tIHN0UmVmOmluc3RhbmNlSUQ9InhtcC5paWQ6ODk4ZGJiMDYtNjc5MC00MjZjLWFhMDgtZmEwNGU1NzhiZTZjIiBzdFJlZjpkb2N1bWVudElEPSJ4bXAuZGlkOjFkNzA2ZjJlLTY2ODktNGVkMy04ZTVkLWQ5Y2ExYTU3YzMxOSIgc3RSZWY6b3JpZ2luYWxEb2N1bWVudElEPSJ4bXAuZGlkOjFkNzA2ZjJlLTY2ODktNGVkMy04ZTVkLWQ5Y2ExYTU3YzMxOSIvPiA8L3JkZjpEZXNjcmlwdGlvbj4gPC9yZGY6UkRGPiA8L3g6eG1wbWV0YT4gPD94cGFja2V0IGVuZD0iciI/PmN7rMsAACaqSURBVHic7d13nCR1nf/x17eqOk7amdm8y0YQJC1J4iEiBkDk4EAJAipg9sRDT70fngHvzp8/0cOAOSDigWAgKMgP9QjiEUQkZ5bdJWycmd1JHarqe398e5jZ2erq6p7qMDuf5+MxLnZVV3+7p/o9Vd+otNYIIYTYntXsAgghRCuScBRCiAASjkIIEUDCUQghAkg4CiFEAAlHIYQIIOEohBABJByFECKAhKMQQgSQcBRCiAASjkIIEUDCUQghAkg4CiFEAAlHIYQIIOEohBABJByFECKAhKMQQgSQcBRCiAASjkIIEUDCUQghAkg4CiFEAAlHIYQIIOEohBABJByFECKAhKMQQgSQcBRCiAASjkIIEUDCUQghAkg4CiFEAAlHIYQIIOEohBABJByFECKAhKMQQgSQcBRCiAASjkIIEUDCUQghAkg4CiFEAAlHIYQIIOEohBABJByFECKAhKMQQgSQcBRCiAASjkIIEUDCUQghAkg4CiFEAAlHIYQIIOEohBABJByFECKAhKMQQgSQcBRCiAASjkIIEUAd/fpjml0G0YJ8DduKNt98zToOX7iVkdFEs4skyrOB3YAlQC+wEJgFeBO254ANpZ/1wHPAlkYXNApddEmsXIQ9uwtdKDatHE7TXlkIMRVLgH2Ao4DlwJ7ASiBV4XkeJiCfAJ4B7gPuAR6uW0mnKQlHIaaPXYETgGOBo4FkDcewMVeWC4HXA+8tPf4A8Hvg18D/TLmkOwEJRyFa3wnAO4ETqS0Qo9i/9PPPwN+AK4ArgU11er2WJw0yQrSu0zG3vDcCp1K/YJxsP+CrwOPA54HZDXrdliLhKETreRNwO3AVcHATy9ELfAZ4Evh4E8vRFBKOQrSODuBHwC3Aa5tclol6gC9j6iXf0OSyNIyEoxCt4e+BR4F3N7sgIfYDbgW+2ORyNISEoxDN9zngOmCX5hYjsk9hbvsXNLsg9SThKETzJDCh+Nkml6MWrwX+ChzU7ILUi4SjEM3RBtyJuZ2eruYD92L6Xe50JByFaLwuzMiUQ5pdkBgo4GZ2woCUcBSisRxMmLy62QWJ2c3E0ZKtFPi++VFq6qWaAglHIRrrFuCwZheiTm4C9prSETwflUygUknw/HhKVSMJRyEa51uY8cw7qwQm/DO1HkB7HiqVRLWn0Z5X+Ql1JOEoRGOcCXyg2YVogEWYyStqozVWexplKdA6vlLVQMJRiPpbiJnEYaZ4M/Dhmp7p+ahsGmw73hLVQMJRiPq7CtOqO5N8A1hW1TM8H5VKoLJptNvcW2qQcBSi3s6ktcZJN9Llkff0NVprEisWotrSIOEoxE4tBXy92YVooqOI2Mlduy5WNo3V0wlNbogZI+EoRP38C2bar5nsK5H20hp7XjdYyixg1AIkHIWoj07MrNoz3UrMpL1l6YKL1dmG3duJzjdvQa3JZJkEIYIlgcOBPUo/8zD99wYxq/c9iZli7G4g6FLn/UC2ISVtfZ8Fri671fOw53aDY0PRa5mmKwlHIbZ3IGa9luMwC1pV8gRwA6bx4fEJj9fWlWXntAdwBHDXdo8qhR7NY8/pNsuw5ostE4wgt9VCjHkVpi/iX4B/JFowgvnifwJzFfkDzNf7QKbP3IyNssMfC+16qFQCe8mc0pjq1qhrHCNXjkLAuZihfZXWfA6jgPMwa760TsVZ6zgZswzE4CuP5Is4r1qM1ZZBj+SaPtHEZHLlKGa6S4EfMrVgnGgf4ICYjrUzSQFvGQtAf+Ma7J4k9oI56Fyh5YIRJBzFzPZt4IJmF2LGUOoEijn8LWtwXnM2iYNPQuf6W+52eoyEoyjLUtCRaI0OuXXwaUyLsmgIBZ57hC4MkzjgNNLnXIG1YBV624aWaoSZSMJRBFLAiGfx7GAKLI3WLXoG1+Zw4AvNLsTMotFDG5elTv7agalzTK8e3bcWrNZt9pBwFIGUgpTl86NnZzM8kiTl7FRXkDNphpyWoAvDqPa5OPue8gfgO8C+pLpAt+551bqxLZquN+nxYH+G69fO4sxXbyA/mGrFevNqvQ9Y3uxCzChKoYc24xz0jgLpzi7gfeQH3qs33HOvSnQ6mBzygD5gI6aT/aPAw5jO9tuaUWwJR1GWBmYlPa5a08Nbdhmg3fHJe9P+ZuOiZhdgxvE9FPjOfm8fe0T7z12v/JfvOER1vxp06HIIL2IWI7sR+D2wtr6FHTftz3RRPxqYnXJ5eCDDjWu7sVNus4s0VUchnbMbTo8OYC3Yy7P3OPaVvNEb7yuS7Ioy2/ci4CRMd6tHMHNjNmSpCQlHUZEGNhWcneFsmc5rRE9PSqGHB7W951t97KSZ3nt0s6f7HrNUspPgYelldWAmsfgDcBvwpphLu53pf7qLutKAozQZ26/yPG5Jf9fsAsw02s2hsu2ec+A7LEqddvSmB3w9/ILGaZvKoY/CLOZ1M7DflAsaQMJRzBTtmOmzRMMoGNyEvfJI31qw9yuLwuiN9ynia+84FvgrZnx7rCQcxUyxGJjV7ELMLBqKnnb2PVUxljVewdUb71fKaSPGWxEFfAmzbnZ3XAeVcBQzhYWc742V24aau9R39jl5vCGm/wmttz2nSXbU4xWPw8yqtE8cB5OTRQgRP2WhB/tx9nyrT7Z7PBw33Kt1cTiBqtvSqyuAe4Cjp3ogCUcxU7iYjsaiEYqjkMl6zqHnKyaMntZbHko0YCRBBtMn8oipHETCUcwUT2E6FIt6UzZ+33oSh5zrWwtXjV8ieoUCI+sLymnI6hEW8EfMZMQ1H0CImaALMyxN1JNlowdfwpq9SzH55s9ud9VIbourR7cUseOaOrOiJHArpn9k1WT4oNgZ7Q4cBhwErAJ6MEukdjazUDs9ZaFz22Ak56Xe9V1N2+xJ+aKIMiQmZosxi3u9pdonSjiKncUczOiJ04FDgLrV+IsAyoLCCLpvs58+/VLffvVxyR32ycxOqOz8pO57FJxMI0t3PGZdoG9U8yS5rRbTXQ/wZeAZ4OuYuRolGBtJWej8EP6WDTr1lv9TcI68IPjzt5wEHUuULg7RhBluvw4sreYJEo5iOvsQ8BjwceSWuTksGz20EQY36dTbLvETx/97ipBcsRYd7SrwIXQmnnr5VjU7SziK6Wg2ZgqrbwLzmlyWmUlZ4Hvojc+hku2F9LuudhOv+5hNhUtCteSNSTX/MF8PvkAd+zqWczxwZNSdJRzFdHMw8CBwQrMLMiMpZUKx73l0/wues+9bi5kL7rLs/U6L1n6hLGUdcrFWyY4CQ2tMyDb2FvuSqDtKOIrp5A3A/wALm12QGccroEf68Tc/j972kmvv+rpi+txr/dR5Nziqd6VDFQmnulYk7DdeoVX78oLuf1KT3wLareYQU3EwsH+UHaW1WlTka0jbPiiNpmmLxR2J6bPWIpT5Qvu++e9SLxXtFSo8xwevYHq0lBsporXZJ5SOMG+DjtBzpsI+WoPGU9ku1+pdoewlB/v2vidb9h7HOkzh4kr17pOyT7jOVY/9qKDX/d7S21b72h1OoCzLfJ7m0Ao1/jkpe/zHcsw+dpIazsgLgbMr7SThKCpKWpoNowk818JWTVlmeCVm7r7WYDno0QFwc65yUnmzNKMPylFWpguUpQMDR/tgJyyV7UmbL3+ZfSwHMt3h4WnZvkpmh0qP7Lij74GTxmqfU/59eEWfdGdKdcxPBy505buQbINsr291LXKtxftncNIQ1x2nk3WsfT9ss/f7NZv+VtS5jQ75AfDyWuf6hnFzvi5s1Xj5JF4ug18ANwfuqIc7nNduDka3JEl2ODjZahbrOhX4CNAfWrwpvj0xA3QkfO7ZnMXLO6QtzYjX8GvH6zHjZVvDcB/WvFe5yWMv9lS2W5urRxNqKtMDVplw9H2Nk1CqbTbh4ZgAp+IoEguY0myxpQJECbpE6aceFJajmHdQdsJZpdT473v7MnoFcEegOOjj5tBD6zz/oW9YeugFi0R71NdMY2YR/3nYThKOoqKkpdmYT7Ah57BLVx7tOY28tb4U2KtxL1eZv62f5OGvVfbub0oBDRsLF2Bn7s8Z/N7sJNhJm9SsdgA1azd4+uea/ieoIhzBtFxLOIqpyTo+q4eS/PDZ2XzuoBewaVgvtb2BCxrzUtFZvfPxHrpOFZ20R9fiHb/EWqOcVAEnlQO945WZ1qB9VFsvKtlmboEDd0KpjnlZEhmrzD7muqpjbqnurcxhlNLKThRBBVeIaA2WZW7nd1RTpV4NNGAqWn0XtGejPYfiMLgj6OJQkcLgKMURi+Kwr3Uhi190dP8Tnt7ysCI7t9oyHom5Ii17Kks4iop8DT1Jl7s3t+ONOiQdn5zbkI4O32/Ei1QtmUUXhqz8LV8oOwmasrCxVBL0jl/asYhKpFFOqszSpKWdUh0KK0Hgd1ib/1GpjlcaMIILoyCRLaAsHVweUyVgtc0xIak1pnXJV3TMS1g9y4v2iiO1tfKoBPH1cNHk+z298a+uHnjS1sMv2uQGirijmsKg1rqYwi84+AXwiuAXLNx8qvT/tdauhfbAydgqO8800oQv8TrZMswY/MfL7SDhKCLpSPisGU5y6VNz+diqF1Fust7rbR0FHFrfl6iR74GdxOoJGY2mtQ065LZXmQYE3w+9LtO+Z8IhZCdd2ED5pmsFaIXvt1fYB98rsH13BIUu5qCIo7Ipz17+d8Xk8V9Q1tLDylymRuLrjfe7+vkbtX7pT8offimBO6KwkxZWsl2psSvYsRbr0r/KsklkbVQ7oFBq+wl/qgzGsTe9JxKOYqoU0JVw+enqXs5Y2sfCrlGGRlJYZe7UYnBhvQ7cEJO/vIH7VF7utvGDSCa9vvlfC69guU/+Ae+5O4rpM3/i2vufUX12DDzleg9d5umXbrd1fqutMrOVyswJv+qtr93CNkoncBGJBtoTPnlP8cVHF4C2SDteva4eFyEjYFqIBjuBNWcFOOlE7vIz8Z65vVjNAfxHvldwbzkT//kbUiTaHdW1XJFob2YwgpnOrCwJRxGZrxXzM0VueKGLq5+ejZP06nUCnYqcm63H91Dts8GxnML1F5p+kpUUBl3vtg943l++kMCyHdW50nRVavi0joEWhG2UE1BUxQJmp12++fQc8vkEmaRXj/P8DbEfUcTD91GzFuOv+6vlPXpD+NXjyIaie8sZnr/mZlt17apw2qrpqN0Is8I2SjiKqmigw/HYWrD55dpZ4PjY8Xb0SGNm8BatSlloH8t75o/lO4YPv1x0bz3H1wOPp1TXytIZ0hJXixOFhruEo6iarUzr9ScfWMQ9L3eS7sqZEXTx2BWYH9fBRB1ojUqllN6y2iUoYHzX827/sK8HnkqpjmW1tCQ3SuhJK+EoqqYxHcO7kx4XP7yA/q1p2trycQXkyjgOIurMtqEwmsMseTuR793zGe1vvC+lupa3cjBWJOEoauJrmJ8u8tS2NGffuYK+kSRt6WIcASmT104XasfJGPXaWz3/yZ9aqnNZC95F72BT2EYJR1EzVyuWteV5bFua8+5agacVbSl3qg00IdPIiFahCznonN/GxLHlxWHfe+Arlkr3WGZUT8un44awjRKOYko8rVjeVuCB/gyXPTYfHA/HmtKXQgYmTAeu71tz99hu6I7/zDWe7n/MIj17utxOPxO2UcJRxGKXbIEvPjqPm57vJdWVCxzCG1FL9fUQAXwPlU5hLT1s/Jfsu76/+kZId6sW6cMYxdNhGyUcxZRpIGVr5mVcLnlsHs9u6CCbLtZ6V7U53tKJuOnCEFbvCs9aNh6O+qW7XPoft1Wym2lwOw0wAjwUtoOEo4iFr2Fuqsjq4RSfun8x2Jpspqb6x9BKctFkyoLBAazFByRUqv2VKhB/9a+T+K7V5OGA1XgW2Bi2g9TviNi4WrG8Lc+j2zL82/2L+cS+L9GWcRkeTaCiT1BxG2YRLWm1bkG6OIqaNddNHPY+jwmNMSo739OWY02lPqXBvlxpBwlHESsFzEkVufy5Xu7c2M53D1vDsu4RhodSUQNyC3B4fUspaubmUV2LsRbut93DqnMlY1OfNW0JtphNm2tgMT1owFGwtK3Ac8Mp3nnXctZuTdPWnp9GFxWiLGWZZVpHB7Z/3Ms1pTix0WaedCcDTi84PRKOog506WdZW571OYdz7lzJuoE02Y7YRtEIERvtm1C058HLm+CX/6347V1KbqtF/XhasTRbYO1IkrPuXMnPXvsci7tGGR5Kll11VIhG0j4kusDPwaW/tLjxQcXqzZB0pM5R1JmrFUtKAXnmHSu48sjnWDJrtGIdZDbpge3HeCtulk/JF2xcXwWGs9aKrOOhkl7I62r8os2oazUu4HXp83DKfB5KQ9FmpGiXXUMr4suggGzKLR0n6A0WIO1Bd+/2Rehpw2n3zGKxFjAKft4sL1ZVjwUNjoM5Tj16BI2A62JWqSgFo/Y05//E5vqHLFbO0ew6x/S+kHAUdTcWkGuGk5x15wp+fMRqVs4dhELA6adMiD29JcvmfIKUHc9IC08rHKXZf/YwKccnP+rgamWaEDRkEz4qXWRwMM0jm9vLvm7BV+w7a5S2jjz+aKKuIak0ZFIeJD3WbMnywkiSTEC5RlyLXTvyzO8egbzDSMGuuk3EAtJpE4qPb25ja9EmGTDSSRdsrOEMyXvuRXXMHX98zfP4z2UgrRgtKvZeoMn2avCVWWR1CNyQpXC0hoQDdAGD8LcnzB8wK6bP1i+9lVXLNE4nMGBeS7tw/g9sbn1Ksf8uGl+P76uOfv0x8by6EBXYSrN2JMmu7Xku3Gs9KQWuv/3Zn3B87t3UxjVrehh2LdIxhePY67x27hBnrdjCQfMGAfALNlamSH40wfUvzOKa53t4cmuajBP8ujnPYu+uUd6+vI8TF23FSrv4o06sIamATMqFhMe6gQzXPt/Ddeu66c/bgeUacS0WZoucsrSPU5b2M7sjDznHXEmG0SZ80uki2JrHN7Vz9fM9/O6lLvKeIhn42SuzMGF+cPshgnYKZacBn5ECrFoEXZ2a5V1wxO6aw5dq6AS2QrHIK5/VdqFYgNseUVx5t8V9ayBhxxeOng+uD0es0JxzuObQPTX5UbjgCoubn1DsNmc8FF95pxKOopFspdlWtBku2lhlxmC7vqIr6ZG2ffyYbqsVGl8r1ucSpCyfNywY5NxdN7PXrBFuWNfNz1b38GBflozj05Nyy76upTRb8g45z+Kg3mHOXNbHCYsHIOXijyQZ9YJv2St55ZY26ULS44WBDNeu7eG6tbNYN5RiTrpIm+PjBZRr7DPtzzu8qnOUk5f1c+qSfnpKITlcsLcrk9ZmTs50pgi2zyOb2rl6dS83v9BFf8FhQaZA0tbhn70/eaaysdUCwbZgYBRGcgptaSzg0OWasw7RHLOPhgzQX3rTPUAe7nxEceW9ijueNq85t6P6zzCK9YPQnoSDVmi2blM8sh7md+4YjCDhKJokrDqpnlV5loKir3hxJMGctMuStjwP92dJWJrZKbdi2cbKp4GNOYdRz+KQ3mHOXD4Wkh7eSIKcZ0Xu+K41tKU8SLq8PJDh6jU9XL92FmuHU8zNFOlwvMBQDHpvAwWbvrzDbh053rasj9OW9tPRnodcwvxBUppM6Urx0c1tXLW6h5temMVAwWFhtkDGDg7gWinMitsbtkHBhSNWas44RHPsARos+MPfFD+7W3Hn0wrLgoWdE5bOrgNLQdGDvmFzxdqTDQ5GkHAUM5SlNDnPYsS16CotFFbt91GZO0w25BKMuBYHzx7itGV9nLjLAE7KxR9NMuqGXEmONbSkXDYNZPivNT38am03a4eTzE0X6Uj4Zb+44e8N+gs2W/IOu3fmOG1pP29b0kdHRx58i8c2Z/mv53v53diVYh1CMahMnoaXt0LBVZxyoI9jw7X3WdiWZmGXueKs5f3Wi4SjEFM0MSRzrsVr5pRCcvEAtuMzMrr9Uitam4k6nHSRl7elueb5Hn61rps1w0nmpFw6Y1i0bCzm+go2fQWHvbpGOX3FFvpHE/x0dS/9eZv52SIZWzc0kCxlAnD9NvM5zO8yt/itFIpjqgnHWcABmDGvvZgGrk2YCSMfocIg7ohSQJIdp62ygRwVFsSpk8XA3pj33YUp2wbgJeBBYDim18lg3ufkWnAbGGXH6egnc0rH8Nn+IsjClDlHtIsjB8hWeD2rtL2ewyIUZrGtoM+kFg6mvIUI+6aBBFWeh2OBtDHnUPAs9uoe4aJ9XubABdsYGUpNaAAxrcLfe2Iulz87mxdHksxNuXSVQjHkl7S4VLaJ5bIwn8/qcmVSCvryNnnPAgVdCY+M44cFsIU5lyDaOWMDgxH2q0a587kWqvQzShVT4lUKRxs4DTgL2J/yCx9tAR4ArgV+Ru2B8V3MYu6TvwwW8B/AZTUet1qLgTOAfwD2AspVD78A3IV5zzdO8TXvApay44lgAR8Bflnh+e8BPseOn50C1gHHYKZpquQ04D8JP4lUaXt/6d+1mOmfHgZuBbZGeJ1KOoDbgbnE0+PNBn4AfCbCvtdixncHnYf/F/hG2JPH6iTXDCfpcHx+fMRq9l+wjfxwklSmwOot7Xz+4QX8eWM7HUmP7mT5BqAJdgPuwwRGUDgeh/m8yhr7ECPcPK8CfjPhrVRiYcIxh/nd/wW4t3SMWrPgVOBrxPOHEcx7eQ9wc5ntxwF7lv77buCusH6OZ2K+bLtFeOFezFrDbwD+FbgY+H6E5022HFhYZlujZmn5HPAJxv9yhlmMCZPTgHuAzwK31Pi6e2GuTIP0lnl8ormU/+w6iT5UtJcKi51PsKT07wHASaX/7geuB76D+UxqZQP7EG9f3MUR99uN8p9lxZURx9JkRXueDbkE7/rTcq74u+dYtayfyx9YxKWPzyfnKRa1FUyyRavr+yDlzw+AT1EhHKuoUcwS/bMK8trSvxsxFzQX13CMHsr/Dmo1q8zj7wb+H3An5mO6AHh/0BcmAVyNuRqKEoyTLQa+B9xA+C8zyLaQbVGueqZiD+CvmICLEoyTHQL8DvMh16IvZFuU29fRCseOevU11VvlbuBdmL++36b2cNOYO5I4DUXcbyBkW+Tz0NOK+ekiWsGn7t+Fi+9azqWPzcdWmsXZYuTLMkxYvbvCPsdi7jziUKkKJ6q5wOeB+6l+baB6VNnkAx7rAA7D3Jm2Y8bm3AocNzkc2zFz6Z0WQ0HeirlymFtpxxZwCKas+8dwrH8GfhHDcXYG78dUt8zY5VbdUkD2FW1+9uxsupIu3Umv2gaIdxDtQuMjNRWy/g7AzNOZbHI5gmQwF2VPYbIqD1yBaTzfzk3AgTG+8O7UfpvZKPMxZeyM8ZinYOpPhWnMuoNoVQP11pRZqFytaHN8FmULtbbMXhBxv3MxDTataE/gi00uQ9CQoY2Yu65/Bz6Aqee8Bnh64snyJeDIiC/iE72idD8a15BSi18Q/fa/msrh9wJvq744O6WFmHrIZutudgFqcCSmPjqKWcDp9SvKlF1Aay69+1XMHfMpwPGYK8fLxuqD9sY0QlTybeA6TNcdgIMwFfGV6kM+iGkpfKCaEjfAucARFfZ5CXMVeDPwIqZO9nWYD/KtFZ77g9LzotZ1tbo1wJWTHlsGHEXlCvwjgPOAH8ZUlu9gzqeodZqdmB4B080/Vbn/BcDldSjHmAHM93kQcyU2Nn3nEuBg4JyQ59qYRturpliGBzGZo4h2NzC231Nltvdjrhr3wnTTegrGT6zPVTj4auBExkNxzA2ln2+X/g1ryfss4y2arcCmcivaLZguPf2THv9J6eec0r/ldGI+9IrrVUwTjwCfDng8gWmEuYTw6okvYD6vOCr8f4jpMrIzWwicXOVz9sNcbd4Ze2mMEcqH22XArzAXUOXsHUMZ+qjPhdajE/+Pheki8w8hT9iC+bAnB+NE95X2CevT9PfALtHK2BBvBhaFbL8H0wI4ORgnuoLKtzGVrqqnk7YyjxcxXbcOJbzVfQHmyiEOcXfzaEUfDNk2SvnG7o/GX5RX2IRXQ12PabsoJ4460YbMpGlhAiDsxT6JuZ2s5Bng4xX2CQvhRjuxwvYzIx7n56Wfcl6N6SY0EzxO5T8Gx8f0WutiOk6rsjH11kGGMHc05bo6nUT0vqr18HTItjg69Hdg+kQvx/SECPvZHdPFqepAdYDXhGzfQPht42TfwdyCBw35cigzxKlJDgrZdgvwXBXH+jLh3Z8OA56o4njT2Q2Y0TL7ltketXGhkvMwdU9R/YHqfqfN9nbKN178CXOFdj5mRNlkFvAhgqtA4lCpWuTYkG1hfZmj2p/xW+BKdY42JndWEd4XeAcOsGvI9j9Rff1Qq3fdAVMvFtaA8Jsqj/cA5hewvMz2Vmyhq6ebKR+OCzAnbOQxrmV8qMr9z2d6heOFIdvGLlguJzgcwQyV+wzxDb8b41O++mwuZhDE7iHP/3MMZZg49juKHmq8cmwP2f5ytQecJtoI75AaVm8WxMeMLy4XjjNtgfqwSUgyBE/qUG9xT4xQTwdR/s6mn/Fx9tdj7u6Czq+5mKvPq2MuW0/pdUcxv0cwdc6dmPHoYfWRL2E6gzfaEDXczjuE/2WZqWvM1PK+w+akb3QQTNbotf7CPguf5n8ere6jIdt+yPisQC7m6vGTZfb9J+IPxxSV6+vLuZD4hibWnUV4HcCKRhWkwbYRXv9Q7RhVG9Pfr5z1VR5vsihTtbVS4JS7ggbTT64ZU89NF7MxV3xBhoCLJj12EeWvig+mfPVGo32f8IbLelpKDaOjHODZkO1HYEYVhHVnmWwJ4x1DJ7/W1iqPVS/DmNvgct1BTsH0yYvqMMLrMKPUdYVdrdYyEcZEA1RZGT1FbwnZ9nyjCjFJnVYlid35jN+uTjYMfAxTJTQ2Vdlo6afc+7sQ0we1mS7BzDkQl/WYhr+othBtHs/tOJhRA+UGrLdhOm9/NOLxPs14C9nkcExjWrFapcHmHky/vCCrMBXdURtmwuYI1EQbmbGV8v1AjwR+VOH5YZNmDBF/xXw5H2J8KrMgcY1SuRXTdahc38uJLEwL+nTw4ZBt8zCzx1TjDMz3d6DG8kzF7Zip1O6O+biPAO+L+Zg7cDBhlaN858wLgP9PeMdOMHO4hV1tjWLGL9Yq7onUf0X4gP4rMfMJVupP9zHgjSHbb8PMmF7JM5QfPfB2zF/ezWW2dxI+jntNhNePotLv4HjgmxX2+XVMZfkM8X/poqjnhP4nEj4woRZJTH/JWqfSm8zHXInlS8euNOtWPX5HU72TisTCXLFMHi872W8J761/DvD7Cse4hKn1cYp7fPIdhPc97MJcXb6pzPYk5gt6SYXX+WrE8oQNh8piwjyoJbATMwt5NuT5cZ2g5eoK98PMZvLbCs//LfH1dZ0d03GqVc9x8mHdd6ai2m5PYTZjZu7aDXgV4fWIRwFfj/G1x9RzeY5XjNVz/RumriPMZZiJGn4NPFZ6bDfMsMDDKzx3G/CVGss45nxMh/UoLclZTH+qSsH1ScJni1mAubK+CXOLPdawchDmai6sjyiYwIt6a/5bzMSg5RyJ6fh6FeN9xQ7FjOSpNOlDpdCKahVmyOTYPK1zMPW2USv9K42gqkZTph/DfAcOINp52Ib5w/SlCPvuiQmTelhCddVEYXzG76ZymO/lmyk/y/Y/Yv6w3xbDa49ZjpmzQBHeM2IiG/hvqhg4MPYLXoOpl7i0wv4HUtt8j+9h6uuK7Ff6iWoXKofjDZhB8idV2O94ahv2FnUIIpjZkh8gvO5wEdUHzG8Ib3Srxjzg7BqfexE7xyihVaWfqFYSLRzjvLoL8lHiCUeFuYMZ+z4PYYaMhlWXXIX5Ax5Xj4oVwLdqeN6/UkU4Tvzr+zXq09T+n5jJIxttQ8T9zsS0XMftbKoPg7DK+FpFmYqu3n5M9Q0JO4so3bg6gHeGbL8MMz7/gJCf3QlvtDuG8QWk4nYdZlGycuZT3TDkeqmqWm/yrcnphE83VK1LqV89SlxGMbenj8d4zI9QuR43yJ+JN0Q+SLzvqxb/gbkVFeWdR/lWd42p234Sc2dR7ucp4F8qvE49l1F4F+Fr/ryD8kMdW1JQvc3JmCnDp6KAacWtdqLOZnkZE5BTvXJej2lxDF26s4KLiKdl8ZOYeTab5SFMVcTkTstiR2GNnb8h+nDWjZRfehTMEsthw4WnYoTKfwSvoPpF95qmXKX2pzEdwG+t4ZjXYOoGo7bSTlRx2csqVDtl0zbMlfPZVN8nbhDzfvdm6utXgwm2tzFp8s2I7sZ0Lao1YKeylk4BswLjWZh6ubAvaiVjc42WE6V/Y63i7E5Tad7J8wlf5bPaJUbCulK1EW1wQypk2zzK58YNhA9X7Mb0fYzyu6tHp/2qgjmsxe3PmG4sh2C+qIdgWosnf3CDmMaEP2HqHabS2fZGxheKnwqb2tdMvrL0cwKmoeZgTF3N5FaxTZgg+iPmhJjqEMHJfoGZYOAkzNXo/ph6p8mf/zDmM/8bpuV9qp3sH8G0blcaA2tjrhb6MBMK3IfpxRBX/W0eU0/Vw44d2C3ia2QK8nNMuMdxHt5fYZ9egj9vG9Ntptrf502Y8dfz2LH8FtH6aU4cgTJxfwvz+w5a4nTMexmfNSdo4MEsTIPKwxXK8BjmqjmuRhybKmcPV0e//pio+87HdNlYgOkwrjDB+DLmjUbp6FxJgnhmbLExffLiGMO7G6ayez7ml64YD4T7aVCfK0y3oRWY7jNjf1X7MPU8TxBtQuIobMzvN0o4hs1GHYckwXODWpgvaL1G/TTyPJyFueKe/Fpjf3xqlQ04poX54zpQ4bmK8T/Ck8PRo/JQvLHXCfr9ZEuPV+q9YpeOEWc45qs5ntK6nue2EEJMT83qSCuEEC1NwlEIIQJIOAohRAAJRyGECCDhKIQQASQchRAigISjEEIEkHAUQogAEo5CCBFAwlEIIQJIOAohRAAJRyGECCDhKIQQASQchRAigISjEEIEkHAUQogAEo5CCBFAwlEIIQJIOAohRAAJRyGECCDhKIQQASQchRAigISjEEIEkHAUQogAEo5CCBFAwlEIIQJIOAohRAAJRyGECCDhKIQQASQchRAigISjEEIEkHAUQogAEo5CCBFAwlEIIQJIOAohRAAJRyGECCDhKIQQASQchRAigISjEEIEkHAUQogAEo5CCBFAwlEIIQJIOAohRAAJRyGECCDhKIQQASQchRAigISjEEIEkHAUQogAEo5CCBFAwlEIIQJIOAohRID/BdQ1tC44nx82AAAAAElFTkSuQmCC;clipPath=inset(20.41% 0% 24.49% 0%);" parent="vTVf89vOjmCwnk7JqrYy-1" vertex="1">
          <mxGeometry x="65.49928571428572" y="9.95999999999998" width="239" height="86.04" as="geometry" />
        </mxCell>
        <mxCell id="vTVf89vOjmCwnk7JqrYy-4" value="&lt;font style=&quot;font-size: 18px;&quot;&gt;Cloudflare WARP Network&lt;br&gt;100.96.0.0/12&lt;/font&gt;" style="text;html=1;align=center;verticalAlign=middle;resizable=0;points=[];autosize=1;strokeColor=none;fillColor=none;fontStyle=1" parent="vTVf89vOjmCwnk7JqrYy-1" vertex="1">
          <mxGeometry x="60.00142857142857" y="96" width="250" height="60" as="geometry" />
        </mxCell>
        <mxCell id="vTVf89vOjmCwnk7JqrYy-7" value="&lt;font style=&quot;font-size: 22px;&quot;&gt;WARP接続用&lt;br&gt;サーバー&lt;/font&gt;" style="text;html=1;strokeColor=none;fillColor=none;align=center;verticalAlign=middle;whiteSpace=wrap;rounded=0;" parent="1" vertex="1">
          <mxGeometry x="400" y="780" width="160" height="30" as="geometry" />
        </mxCell>
        <mxCell id="vTVf89vOjmCwnk7JqrYy-8" style="edgeStyle=orthogonalEdgeStyle;rounded=0;orthogonalLoop=1;jettySize=auto;html=1;entryX=0;entryY=0.5;entryDx=0;entryDy=0;entryPerimeter=0;strokeWidth=2;" parent="1" source="6GmrFoaWCR1EvFPG34b0-3" target="6GmrFoaWCR1EvFPG34b0-2" edge="1">
          <mxGeometry relative="1" as="geometry">
            <Array as="points">
              <mxPoint x="-20" y="290" />
            </Array>
          </mxGeometry>
        </mxCell>
        <mxCell id="vTVf89vOjmCwnk7JqrYy-12" value="&lt;font style=&quot;font-size: 21px;&quot;&gt;宛先：100.96.0.0/12&amp;nbsp; GW：192.168.0.bbb&lt;/font&gt;" style="text;html=1;strokeColor=none;fillColor=none;align=center;verticalAlign=middle;whiteSpace=wrap;rounded=0;" parent="1" vertex="1">
          <mxGeometry y="130" width="215" height="100" as="geometry" />
        </mxCell>
        <mxCell id="vTVf89vOjmCwnk7JqrYy-16" style="edgeStyle=orthogonalEdgeStyle;rounded=0;orthogonalLoop=1;jettySize=auto;html=1;exitX=0.841;exitY=0.005;exitDx=0;exitDy=0;exitPerimeter=0;entryX=0.094;entryY=0.998;entryDx=0;entryDy=0;entryPerimeter=0;strokeWidth=2;" parent="1" source="vTVf89vOjmCwnk7JqrYy-13" target="vTVf89vOjmCwnk7JqrYy-2" edge="1">
          <mxGeometry relative="1" as="geometry">
            <mxPoint x="519.78" y="360" as="targetPoint" />
            <mxPoint x="499.9999999999998" y="680.0256410256411" as="sourcePoint" />
          </mxGeometry>
        </mxCell>
        <mxCell id="vTVf89vOjmCwnk7JqrYy-13" value="" style="image;points=[];aspect=fixed;html=1;align=center;shadow=0;dashed=0;image=img/lib/allied_telesis/computer_and_terminals/Server_Desktop.svg;" parent="1" vertex="1">
          <mxGeometry x="414" y="600" width="126.22" height="160" as="geometry" />
        </mxCell>
        <mxCell id="vTVf89vOjmCwnk7JqrYy-14" value="&lt;font style=&quot;font-size: 22px;&quot;&gt;192.168.0.bbb&lt;/font&gt;" style="text;html=1;strokeColor=none;fillColor=none;align=center;verticalAlign=middle;whiteSpace=wrap;rounded=0;" parent="1" vertex="1">
          <mxGeometry x="290" y="540" width="130" height="40" as="geometry" />
        </mxCell>
        <mxCell id="vTVf89vOjmCwnk7JqrYy-17" value="&lt;span style=&quot;font-size: 22px;&quot;&gt;100.96.0.ccc&lt;/span&gt;" style="text;html=1;strokeColor=none;fillColor=none;align=center;verticalAlign=middle;whiteSpace=wrap;rounded=0;" parent="1" vertex="1">
          <mxGeometry x="540.22" y="540" width="130" height="40" as="geometry" />
        </mxCell>
        <mxCell id="vTVf89vOjmCwnk7JqrYy-18" value="" style="image;points=[];aspect=fixed;html=1;align=center;shadow=0;dashed=0;image=img/lib/allied_telesis/computer_and_terminals/Server_Desktop.svg;" parent="1" vertex="1">
          <mxGeometry x="740" y="600" width="126.22" height="160" as="geometry" />
        </mxCell>
        <mxCell id="vTVf89vOjmCwnk7JqrYy-20" style="edgeStyle=orthogonalEdgeStyle;rounded=0;orthogonalLoop=1;jettySize=auto;html=1;entryX=0.878;entryY=0.987;entryDx=0;entryDy=0;entryPerimeter=0;startArrow=classic;startFill=1;endArrow=none;endFill=0;strokeWidth=2;" parent="1" source="vTVf89vOjmCwnk7JqrYy-18" target="vTVf89vOjmCwnk7JqrYy-2" edge="1">
          <mxGeometry relative="1" as="geometry">
            <Array as="points">
              <mxPoint x="800" y="500" />
              <mxPoint x="800" y="500" />
            </Array>
          </mxGeometry>
        </mxCell>
        <mxCell id="vTVf89vOjmCwnk7JqrYy-21" value="&lt;span style=&quot;font-size: 22px;&quot;&gt;遠隔地のサーバー&lt;br&gt;100.96.0.xxx&lt;br&gt;&lt;/span&gt;" style="text;html=1;strokeColor=none;fillColor=none;align=center;verticalAlign=middle;whiteSpace=wrap;rounded=0;" parent="1" vertex="1">
          <mxGeometry x="708.11" y="775" width="190" height="40" as="geometry" />
        </mxCell>
      </root>
    </mxGraphModel>
  </diagram>
</mxfile>
